<svg xmlns="http://www.w3.org/2000/svg" xmlns:xlink="http://www.w3.org/1999/xlink" width="2000" zoomAndPan="magnify" viewBox="0 0 1500 1499.999933" height="2000" preserveAspectRatio="xMidYMid meet" version="1.0"><defs><clipPath id="42a513d662"><path d="M 0 6 L 1492.5 6 L 1492.5 1499 L 0 1499 Z M 0 6 " clip-rule="nonzero"/></clipPath></defs><g clip-path="url(#42a513d662)"><path fill="#c62828" d="M 1130.113281 701.621094 C 1148.066406 673.980469 1152.371094 642.722656 1142.558594 611.242188 C 1135.128906 587.410156 1137.296875 562.617188 1147.757812 541.261719 L 1250.269531 541.261719 L 1250.269531 752.691406 C 1184.808594 761.761719 1134.230469 818.0625 1134.230469 886.003906 C 1134.230469 960.226562 1194.617188 1020.613281 1268.839844 1020.613281 C 1343.0625 1020.613281 1403.453125 960.226562 1403.453125 886.003906 C 1403.453125 818.09375 1352.875 761.792969 1287.414062 752.691406 L 1287.414062 522.6875 C 1287.414062 512.445312 1279.085938 504.117188 1268.839844 504.117188 L 1177.472656 504.117188 C 1195.917969 483.101562 1204.800781 457.164062 1203.316406 428.410156 C 1201.582031 395.476562 1186.695312 367.683594 1160.261719 347.964844 C 1130.457031 325.773438 1116.496094 289.34375 1123.769531 252.914062 C 1130.238281 220.566406 1122.6875 189.957031 1101.949219 164.328125 C 1081.210938 138.699219 1052.796875 124.957031 1019.832031 124.554688 C 982.691406 124.121094 949.976562 102.859375 934.4375 69.089844 C 920.664062 39.128906 896.550781 18.792969 864.703125 10.25 C 832.851562 1.707031 801.808594 7.277344 774.910156 26.34375 C 744.578125 47.824219 705.640625 49.867188 673.234375 31.667969 C 644.480469 15.511719 613.03125 13.253906 582.234375 25.046875 C 551.4375 36.867188 529.585938 59.617188 519.03125 90.847656 C 507.117188 126.039062 476.8125 150.585938 439.917969 154.917969 C 407.171875 158.757812 380.367188 175.410156 362.414062 203.050781 C 344.464844 230.6875 340.160156 261.949219 349.972656 293.429688 C 361.023438 328.898438 350.933594 366.597656 323.632812 391.761719 C 299.398438 414.109375 287.480469 443.328125 289.214844 476.261719 C 289.742188 486.011719 291.410156 495.296875 294.199219 504.085938 L 223.660156 504.085938 C 213.414062 504.085938 205.085938 512.414062 205.085938 522.660156 L 205.085938 752.660156 C 139.625 761.730469 89.046875 818.03125 89.046875 885.972656 C 89.046875 960.195312 149.4375 1020.582031 223.660156 1020.582031 C 297.882812 1020.582031 358.269531 960.195312 358.269531 885.972656 C 358.269531 818.0625 307.691406 761.761719 242.230469 752.660156 L 242.230469 541.230469 L 315.308594 541.230469 C 320.289062 546.832031 325.921875 552 332.238281 556.707031 C 362.042969 578.898438 376.003906 615.328125 368.730469 651.757812 C 362.261719 684.101562 369.8125 714.714844 390.550781 740.34375 C 411.320312 765.972656 439.703125 779.714844 472.667969 780.117188 C 509.808594 780.550781 542.523438 801.8125 558.0625 835.582031 C 571.835938 865.542969 595.949219 885.878906 627.796875 894.421875 C 637.484375 897.023438 647.109375 898.320312 656.582031 898.320312 C 678.1875 898.320312 698.894531 891.605469 717.621094 878.328125 C 720.871094 876.003906 724.273438 873.960938 727.710938 872.105469 L 727.710938 971.367188 C 662.246094 980.4375 611.671875 1036.738281 611.671875 1104.679688 C 611.671875 1178.902344 672.058594 1239.289062 746.28125 1239.289062 C 820.503906 1239.289062 880.890625 1178.898438 880.890625 1104.679688 C 880.890625 1036.769531 830.316406 980.46875 764.851562 971.367188 L 764.851562 861.023438 C 783.332031 859.476562 802.242188 863.40625 819.296875 872.972656 C 848.050781 889.128906 879.496094 891.417969 910.292969 879.59375 C 941.09375 867.773438 962.945312 845.023438 973.5 813.792969 C 985.414062 778.601562 1015.71875 754.054688 1052.613281 749.722656 C 1085.328125 745.914062 1112.132812 729.261719 1130.113281 701.621094 Z M 1366.308594 885.972656 C 1366.308594 939.703125 1322.574219 983.4375 1268.839844 983.4375 C 1215.109375 983.4375 1171.375 939.703125 1171.375 885.972656 C 1171.375 832.238281 1215.109375 788.503906 1268.839844 788.503906 C 1322.574219 788.503906 1366.308594 832.207031 1366.308594 885.972656 Z M 321.125 885.972656 C 321.125 939.703125 277.390625 983.4375 223.660156 983.4375 C 169.925781 983.4375 126.191406 939.703125 126.191406 885.972656 C 126.191406 832.238281 169.925781 788.503906 223.660156 788.503906 C 277.421875 788.503906 321.125 832.207031 321.125 885.972656 Z M 843.71875 1104.707031 C 843.71875 1158.441406 799.984375 1202.175781 746.25 1202.175781 C 692.515625 1202.175781 648.78125 1158.441406 648.78125 1104.707031 C 648.78125 1050.976562 692.515625 1007.242188 746.25 1007.242188 C 799.984375 1007.242188 843.71875 1050.945312 843.71875 1104.707031 Z M 938.277344 801.9375 C 931.28125 822.644531 917.351562 837.128906 896.953125 844.960938 C 876.527344 852.792969 856.53125 851.335938 837.464844 840.628906 C 792.429688 815.339844 738.265625 818.1875 696.140625 848.023438 C 678.3125 860.652344 658.53125 864.210938 637.421875 858.546875 C 616.3125 852.882812 600.960938 839.945312 591.832031 820.074219 C 570.257812 773.152344 524.789062 743.625 473.128906 743.003906 C 451.277344 742.757812 433.203125 733.996094 419.429688 717.003906 C 405.65625 700.011719 400.859375 680.511719 405.160156 659.09375 C 415.28125 608.457031 395.875 557.820312 354.429688 526.960938 C 336.878906 513.898438 327.410156 496.195312 326.265625 474.375 C 325.117188 452.519531 332.703125 433.949219 348.765625 419.125 C 386.742188 384.117188 400.765625 331.714844 385.382812 282.410156 C 378.882812 261.515625 381.605469 241.644531 393.523438 223.292969 C 405.4375 204.96875 422.492188 194.351562 444.191406 191.8125 C 495.476562 185.808594 537.632812 151.667969 554.164062 102.765625 C 561.15625 82.058594 575.085938 67.574219 595.484375 59.742188 C 604.089844 56.429688 612.628906 54.789062 621.082031 54.789062 C 632.625 54.789062 643.953125 57.886719 655.003906 64.074219 C 700.039062 89.363281 754.171875 86.515625 796.332031 56.679688 C 814.160156 44.050781 833.90625 40.488281 855.046875 46.152344 C 876.15625 51.820312 891.507812 64.757812 900.636719 84.628906 C 922.210938 131.550781 967.679688 161.078125 1019.339844 161.699219 C 1041.191406 161.945312 1059.265625 170.703125 1073.039062 187.695312 C 1086.8125 204.691406 1091.609375 224.1875 1087.308594 245.609375 C 1077.1875 296.246094 1096.59375 346.882812 1138.039062 377.742188 C 1155.589844 390.804688 1165.058594 408.507812 1166.207031 430.328125 C 1167.351562 452.179688 1159.765625 470.753906 1143.703125 485.578125 C 1105.726562 520.585938 1091.703125 572.984375 1107.085938 622.292969 C 1113.585938 643.183594 1110.863281 663.054688 1098.945312 681.378906 C 1087.03125 699.703125 1069.976562 710.320312 1048.277344 712.859375 C 996.960938 718.863281 954.835938 753.003906 938.277344 801.9375 Z M 746.25 136.039062 C 571.835938 136.039062 429.953125 277.921875 429.953125 452.335938 C 429.953125 626.75 571.835938 768.632812 746.25 768.632812 C 920.664062 768.632812 1062.546875 626.75 1062.546875 452.335938 C 1062.546875 277.921875 920.664062 136.039062 746.25 136.039062 Z M 746.25 731.492188 C 592.328125 731.492188 467.09375 606.257812 467.09375 452.335938 C 467.09375 298.410156 592.328125 173.179688 746.25 173.179688 C 900.171875 173.179688 1025.40625 298.410156 1025.40625 452.335938 C 1025.40625 606.257812 900.171875 731.492188 746.25 731.492188 Z M 261.140625 1044.289062 L 186.207031 1044.289062 C 86.199219 1044.289062 2.816406 1125.632812 0.339844 1225.574219 C -0.03125 1240.09375 5.136719 1253.246094 15.289062 1263.644531 C 25.410156 1274.046875 38.441406 1279.523438 52.957031 1279.523438 L 394.390625 1279.523438 C 408.90625 1279.523438 421.9375 1274.046875 432.058594 1263.644531 C 442.179688 1253.246094 447.347656 1240.09375 447.007812 1225.605469 C 444.53125 1125.632812 361.148438 1044.289062 261.140625 1044.289062 Z M 405.46875 1237.707031 C 402.3125 1240.929688 398.90625 1242.382812 394.390625 1242.382812 L 52.957031 1242.382812 C 48.441406 1242.382812 45.035156 1240.929688 41.878906 1237.707031 C 38.722656 1234.488281 37.359375 1231.023438 37.484375 1226.503906 C 39.464844 1146.523438 106.195312 1081.433594 186.207031 1081.433594 L 261.140625 1081.433594 C 341.183594 1081.433594 407.882812 1146.523438 409.863281 1226.503906 C 409.988281 1231.023438 408.625 1234.488281 405.46875 1237.707031 Z M 783.734375 1263.027344 L 708.796875 1263.027344 C 608.792969 1263.027344 525.410156 1344.367188 522.933594 1444.3125 C 522.5625 1458.828125 527.730469 1471.984375 537.882812 1482.382812 C 548.003906 1492.785156 561.035156 1498.261719 575.550781 1498.261719 L 916.980469 1498.261719 C 931.496094 1498.261719 944.527344 1492.785156 954.648438 1482.382812 C 964.769531 1471.984375 969.9375 1458.828125 969.597656 1444.34375 C 967.121094 1344.367188 883.738281 1263.027344 783.734375 1263.027344 Z M 932.457031 1445.242188 C 932.582031 1449.761719 931.21875 1453.195312 928.0625 1456.445312 C 924.902344 1459.664062 921.5 1461.121094 916.980469 1461.121094 L 575.519531 1461.121094 C 571 1461.121094 567.59375 1459.664062 564.4375 1456.445312 C 561.28125 1453.226562 559.917969 1449.761719 560.042969 1445.242188 C 562.023438 1365.261719 628.757812 1300.167969 708.765625 1300.167969 L 783.703125 1300.167969 C 863.742188 1300.167969 930.476562 1365.261719 932.457031 1445.242188 Z M 1306.292969 1044.289062 L 1231.359375 1044.289062 C 1131.351562 1044.289062 1047.96875 1125.601562 1045.492188 1225.574219 C 1045.121094 1240.09375 1050.289062 1253.246094 1060.441406 1263.617188 C 1070.5625 1274.015625 1083.59375 1279.492188 1098.109375 1279.492188 L 1439.542969 1279.492188 C 1454.058594 1279.492188 1467.089844 1274.015625 1477.210938 1263.617188 C 1487.332031 1253.214844 1492.5 1240.0625 1492.160156 1225.574219 C 1489.683594 1125.632812 1406.300781 1044.289062 1306.292969 1044.289062 Z M 1450.652344 1237.707031 C 1447.496094 1240.929688 1444.089844 1242.382812 1439.570312 1242.382812 L 1098.109375 1242.382812 C 1093.59375 1242.382812 1090.1875 1240.929688 1087.03125 1237.707031 C 1083.875 1234.488281 1082.511719 1231.023438 1082.636719 1226.503906 C 1084.617188 1146.523438 1151.347656 1081.433594 1231.359375 1081.433594 L 1306.292969 1081.433594 C 1386.335938 1081.433594 1453.035156 1146.523438 1455.015625 1226.503906 C 1455.140625 1231.023438 1453.808594 1234.488281 1450.652344 1237.707031 Z M 926.421875 379.074219 L 809.019531 369.199219 L 763.367188 260.589844 C 760.457031 253.6875 753.710938 249.230469 746.25 249.230469 C 738.789062 249.230469 732.042969 253.71875 729.132812 260.589844 L 683.480469 369.199219 L 566.078125 379.074219 C 558.621094 379.691406 552.273438 384.738281 549.984375 391.824219 C 547.664062 398.945312 549.859375 406.742188 555.523438 411.632812 L 644.695312 488.609375 L 617.800781 603.289062 C 616.097656 610.5625 618.914062 618.144531 624.980469 622.539062 C 631.015625 626.933594 639.125 627.277344 645.5 623.40625 L 746.25 562.402344 L 847.03125 623.4375 C 850 625.234375 853.3125 626.128906 856.65625 626.128906 C 860.492188 626.128906 864.332031 624.953125 867.582031 622.570312 C 873.617188 618.175781 876.464844 610.59375 874.761719 603.320312 L 847.863281 488.640625 L 937.039062 411.664062 C 942.703125 406.773438 944.867188 398.972656 942.578125 391.855469 C 940.226562 384.707031 933.847656 379.691406 926.421875 379.074219 Z M 815.023438 467.84375 C 809.792969 472.363281 807.503906 479.417969 809.082031 486.136719 L 828.457031 568.777344 L 755.84375 524.824219 C 752.875 523.03125 749.5625 522.132812 746.21875 522.132812 C 742.875 522.132812 739.5625 523.03125 736.59375 524.824219 L 664.011719 568.777344 L 683.386719 486.136719 C 684.964844 479.417969 682.675781 472.363281 677.445312 467.84375 L 613.1875 412.375 L 697.78125 405.289062 C 704.679688 404.699219 710.65625 400.367188 713.347656 393.992188 L 746.25 315.714844 L 779.152344 393.960938 C 781.84375 400.335938 787.816406 404.699219 794.71875 405.257812 L 879.28125 412.347656 Z M 815.023438 467.84375 " fill-opacity="1" fill-rule="nonzero"/></g></svg>