<svg xmlns="http://www.w3.org/2000/svg" xmlns:xlink="http://www.w3.org/1999/xlink" width="2000" zoomAndPan="magnify" viewBox="0 0 1500 1499.999933" height="2000" preserveAspectRatio="xMidYMid meet" version="1.0"><path fill="#c62828" d="M 234.214844 554.828125 C 245.410156 551.324219 257.34375 557.570312 260.847656 568.765625 C 264.347656 579.960938 258.101562 591.894531 246.90625 595.398438 C 211.078125 606.609375 185.09375 640.058594 185.09375 679.566406 C 185.09375 728.296875 224.574219 767.78125 273.308594 767.78125 C 322.003906 767.78125 361.480469 728.296875 361.480469 679.566406 C 361.480469 669.078125 359.65625 659.019531 356.296875 649.6875 C 352.320312 638.652344 358.058594 626.460938 369.089844 622.488281 C 380.128906 618.511719 392.316406 624.246094 396.292969 635.285156 C 401.273438 649.113281 403.992188 664.023438 403.992188 679.566406 C 403.992188 751.78125 345.476562 810.292969 273.308594 810.292969 C 201.09375 810.292969 142.582031 751.78125 142.582031 679.566406 C 142.582031 621.007812 181.109375 571.445312 234.214844 554.828125 Z M 531.347656 1088.917969 C 531.347656 1122.277344 509.269531 1150.550781 470.613281 1170.566406 C 422.75 1195.34375 348.070312 1208.257812 273.289062 1208.257812 C 198.507812 1208.257812 123.824219 1195.34375 75.964844 1170.566406 C 37.308594 1150.550781 15.226562 1122.277344 15.226562 1088.917969 C 15.226562 946.398438 130.789062 830.839844 273.308594 830.839844 C 415.824219 830.839844 531.347656 946.398438 531.347656 1088.917969 Z M 488.839844 1088.917969 C 488.839844 969.878906 392.347656 873.347656 273.308594 873.347656 C 154.261719 873.347656 57.738281 969.878906 57.738281 1088.917969 C 57.738281 1107.902344 73.511719 1121.425781 95.511719 1132.816406 C 138.585938 1155.117188 205.984375 1165.746094 273.289062 1165.746094 C 340.589844 1165.746094 407.992188 1155.117188 451.066406 1132.816406 C 473.066406 1121.425781 488.839844 1107.902344 488.839844 1088.917969 Z M 614.953125 431.789062 C 626.683594 431.789062 636.210938 441.316406 636.210938 453.046875 C 636.210938 464.777344 626.683594 474.300781 614.953125 474.300781 L 457.78125 474.300781 L 318.03125 652.890625 C 312.441406 660.035156 302.9375 662.84375 294.363281 659.882812 C 285.789062 656.929688 280.035156 648.859375 280.035156 639.792969 L 280.035156 474.300781 L 255.292969 474.300781 C 213.441406 474.300781 179.277344 440.132812 179.277344 398.285156 L 179.277344 76.015625 C 179.277344 34.164062 213.441406 0 255.292969 0 L 840.296875 0 C 882.152344 0 916.316406 34.164062 916.316406 76.015625 L 916.316406 267.105469 C 916.316406 278.835938 906.792969 288.359375 895.058594 288.359375 C 883.328125 288.359375 873.804688 278.835938 873.804688 267.105469 L 873.804688 76.015625 C 873.804688 57.570312 858.746094 42.511719 840.296875 42.511719 L 255.292969 42.511719 C 236.847656 42.511719 221.789062 57.570312 221.789062 76.015625 L 221.789062 398.285156 C 221.789062 416.734375 236.847656 431.789062 255.292969 431.789062 L 301.289062 431.789062 C 313.03125 431.789062 322.546875 441.308594 322.546875 453.046875 L 322.546875 578.140625 L 430.683594 439.945312 C 434.714844 434.800781 440.886719 431.789062 447.425781 431.789062 Z M 357.363281 326.394531 C 345.628906 326.394531 336.105469 316.875 336.105469 305.140625 C 336.105469 293.410156 345.628906 283.886719 357.363281 283.886719 L 738.234375 283.886719 C 749.964844 283.886719 759.488281 293.410156 759.488281 305.140625 C 759.488281 316.875 749.964844 326.394531 738.234375 326.394531 Z M 357.363281 179.03125 C 345.628906 179.03125 336.105469 169.507812 336.105469 157.777344 C 336.105469 146.046875 345.628906 136.519531 357.363281 136.519531 L 738.234375 136.519531 C 749.964844 136.519531 759.488281 146.046875 759.488281 157.777344 C 759.488281 169.507812 749.964844 179.03125 738.234375 179.03125 Z M 1074.910156 892.34375 C 1082.003906 883 1095.347656 881.175781 1104.691406 888.269531 C 1114.035156 895.363281 1115.855469 908.707031 1108.765625 918.050781 C 1097.527344 932.847656 1090.863281 951.300781 1090.863281 971.3125 C 1090.863281 1020.039062 1130.351562 1059.523438 1179.078125 1059.523438 C 1227.777344 1059.523438 1267.257812 1020.039062 1267.257812 971.3125 C 1267.257812 950.871094 1260.304688 932.054688 1248.628906 917.101562 C 1241.410156 907.855469 1243.054688 894.488281 1252.300781 887.269531 C 1261.546875 880.050781 1274.917969 881.691406 1282.136719 890.941406 C 1299.445312 913.109375 1309.765625 941.007812 1309.765625 971.3125 C 1309.765625 1043.527344 1251.253906 1102.035156 1179.078125 1102.035156 C 1106.867188 1102.035156 1048.355469 1043.523438 1048.355469 971.3125 C 1048.355469 941.640625 1058.246094 914.28125 1074.910156 892.34375 Z M 1437.121094 1380.660156 C 1437.121094 1414.015625 1415.039062 1442.296875 1376.382812 1462.308594 C 1328.523438 1487.089844 1253.84375 1500 1179.0625 1500 C 1104.277344 1500 1029.597656 1487.089844 981.738281 1462.308594 C 943.082031 1442.296875 921 1414.015625 921 1380.660156 C 921 1238.144531 1036.5625 1122.582031 1179.078125 1122.582031 C 1321.597656 1122.582031 1437.121094 1238.144531 1437.121094 1380.660156 Z M 1394.609375 1380.660156 C 1394.609375 1261.617188 1298.121094 1165.09375 1179.078125 1165.09375 C 1060.039062 1165.09375 963.511719 1261.617188 963.511719 1380.660156 C 963.511719 1399.644531 979.285156 1413.167969 1001.285156 1424.558594 C 1044.359375 1446.859375 1111.757812 1457.488281 1179.0625 1457.488281 C 1246.363281 1457.488281 1313.761719 1446.859375 1356.839844 1424.558594 C 1378.835938 1413.167969 1394.609375 1399.644531 1394.609375 1380.660156 Z M 981.980469 388.875 C 993.710938 388.875 1003.234375 398.394531 1003.234375 410.128906 C 1003.234375 421.859375 993.710938 431.382812 981.980469 431.382812 L 733.480469 431.382812 C 719.757812 431.382812 708.390625 441.871094 707.003906 455.238281 C 706.910156 456.144531 706.859375 457.066406 706.859375 457.996094 L 706.859375 739.710938 C 706.859375 754.363281 718.824219 766.324219 733.480469 766.324219 L 1076.910156 766.324219 C 1083.445312 766.324219 1089.621094 769.332031 1093.648438 774.480469 L 1183.398438 889.171875 L 1183.398438 787.578125 C 1183.398438 775.839844 1192.914062 766.324219 1204.65625 766.324219 L 1244.859375 766.324219 C 1259.515625 766.324219 1271.476562 754.363281 1271.476562 739.710938 L 1271.476562 639.792969 C 1271.476562 628.058594 1281 618.539062 1292.730469 618.539062 C 1304.460938 618.539062 1313.984375 628.058594 1313.984375 639.792969 L 1313.984375 739.710938 C 1313.984375 777.765625 1282.917969 808.832031 1244.859375 808.832031 L 1225.910156 808.832031 L 1225.910156 950.824219 C 1225.910156 959.890625 1220.15625 967.960938 1211.582031 970.917969 C 1203.007812 973.875 1193.503906 971.066406 1187.914062 963.921875 L 1066.550781 808.832031 L 733.480469 808.832031 C 695.421875 808.832031 664.351562 777.765625 664.351562 739.710938 L 664.351562 457.996094 C 664.351562 455.585938 664.480469 453.203125 664.722656 450.851562 C 668.320312 416.128906 697.832031 388.875 733.480469 388.875 Z M 798.730469 701.730469 C 787.003906 701.730469 777.476562 692.207031 777.476562 680.476562 C 777.476562 668.746094 787.003906 659.21875 798.730469 659.21875 L 1179.605469 659.21875 C 1191.335938 659.21875 1200.863281 668.746094 1200.863281 680.476562 C 1200.863281 692.207031 1191.335938 701.730469 1179.605469 701.730469 Z M 798.730469 554.367188 C 787.003906 554.367188 777.476562 544.839844 777.476562 533.109375 C 777.476562 521.378906 787.003906 511.855469 798.730469 511.855469 L 989.167969 511.855469 C 1000.902344 511.855469 1010.421875 521.378906 1010.421875 533.109375 C 1010.421875 544.839844 1000.902344 554.367188 989.167969 554.367188 Z M 1255.535156 136.519531 C 1382.054688 136.519531 1484.773438 239.238281 1484.773438 365.753906 C 1484.773438 492.273438 1382.054688 594.988281 1255.535156 594.988281 C 1129.019531 594.988281 1026.304688 492.273438 1026.304688 365.753906 C 1026.304688 239.238281 1129.019531 136.519531 1255.535156 136.519531 Z M 1255.535156 179.03125 C 1152.484375 179.03125 1068.8125 262.699219 1068.8125 365.753906 C 1068.8125 468.8125 1152.484375 552.480469 1255.535156 552.480469 C 1358.59375 552.480469 1442.261719 468.8125 1442.261719 365.753906 C 1442.261719 262.699219 1358.59375 179.03125 1255.535156 179.03125 Z M 1138.414062 373.074219 C 1129.589844 365.339844 1128.707031 351.902344 1136.441406 343.082031 C 1144.171875 334.257812 1157.613281 333.375 1166.433594 341.105469 L 1227.382812 394.53125 L 1349.488281 289.054688 C 1358.367188 281.390625 1371.796875 282.371094 1379.46875 291.25 C 1387.136719 300.125 1386.15625 313.558594 1377.277344 321.226562 L 1241.175781 438.789062 C 1233.148438 445.722656 1221.242188 445.679688 1213.269531 438.6875 Z M 1138.414062 373.074219 " fill-opacity="1" fill-rule="evenodd"/></svg>