<svg xmlns="http://www.w3.org/2000/svg" xmlns:xlink="http://www.w3.org/1999/xlink" width="2000" zoomAndPan="magnify" viewBox="0 0 1500 1499.999933" height="2000" preserveAspectRatio="xMidYMid meet" version="1.0"><defs><clipPath id="0322e8fefc"><path d="M 0 333.75 L 1500 333.75 L 1500 1166.25 L 0 1166.25 Z M 0 333.75 " clip-rule="nonzero"/></clipPath></defs><g clip-path="url(#0322e8fefc)"><path fill="#163c78" d="M 1477.917969 626.675781 C 1470.363281 617.65625 1461.300781 610.285156 1451.265625 604.761719 C 1441.089844 597.957031 1376.6875 555.859375 1327.09375 545.503906 L 1327.09375 424.855469 C 1327.09375 374.628906 1286.230469 333.765625 1236.003906 333.765625 L 822.871094 333.765625 C 793.105469 333.765625 766.632812 348.121094 750 370.265625 C 733.371094 348.121094 706.894531 333.765625 677.132812 333.765625 L 263.996094 333.765625 C 213.769531 333.765625 172.90625 374.628906 172.90625 424.855469 L 172.90625 545.503906 C 123.335938 555.851562 58.9375 597.941406 48.742188 604.757812 C 38.703125 610.28125 29.640625 617.652344 22.082031 626.675781 C 4.242188 647.96875 -3.191406 675.871094 1.675781 703.222656 C 1.699219 703.351562 1.726562 703.480469 1.75 703.613281 L 48.492188 936.355469 C 60.410156 995.699219 112.992188 1038.769531 173.519531 1038.769531 L 173.820312 1038.769531 L 173.820312 1148.074219 C 173.820312 1158.136719 181.976562 1166.292969 192.039062 1166.292969 L 246.691406 1166.292969 C 254.824219 1166.292969 261.972656 1160.902344 264.207031 1153.082031 L 296.867188 1038.769531 L 1203.132812 1038.769531 L 1235.792969 1153.082031 C 1238.027344 1160.902344 1245.175781 1166.292969 1253.3125 1166.292969 L 1307.964844 1166.292969 C 1318.023438 1166.292969 1326.179688 1158.136719 1326.179688 1148.074219 L 1326.179688 1038.769531 L 1326.480469 1038.769531 C 1387.011719 1038.769531 1439.59375 995.699219 1451.511719 936.355469 L 1498.25 703.613281 C 1498.273438 703.480469 1498.296875 703.351562 1498.320312 703.222656 C 1503.195312 675.871094 1495.757812 647.96875 1477.917969 626.675781 Z M 731.785156 859.320312 C 731.785156 869.363281 723.609375 877.535156 713.566406 877.535156 L 228.1875 877.535156 C 219.027344 877.535156 211.253906 870.679688 210.113281 861.589844 L 203.128906 805.972656 C 204.566406 771.109375 329.859375 739.507812 467.421875 739.507812 C 605.78125 739.507812 731.785156 771.476562 731.785156 806.578125 Z M 249.140625 626.375 L 261.890625 727.90625 C 236.679688 735.113281 213.878906 744.414062 196.90625 756.414062 L 186.214844 671.308594 C 186.175781 671 186.128906 670.6875 186.074219 670.382812 C 180.3125 638.019531 158.394531 612.152344 129.523438 600.273438 C 152.628906 588.914062 176.621094 579.632812 192.902344 579.632812 C 220.519531 579.632812 244.101562 599.265625 249.140625 626.375 Z M 768.21875 806.578125 C 768.21875 771.476562 894.222656 739.507812 1032.578125 739.507812 C 1170.148438 739.507812 1295.449219 771.113281 1296.871094 805.980469 L 1289.886719 861.589844 C 1288.746094 870.679688 1280.972656 877.539062 1271.8125 877.539062 L 786.4375 877.539062 C 776.390625 877.539062 768.21875 869.363281 768.21875 859.320312 Z M 1313.925781 670.382812 C 1313.871094 670.691406 1313.824219 671 1313.785156 671.308594 L 1303.097656 756.417969 C 1286.125 744.414062 1263.320312 735.113281 1238.109375 727.90625 L 1250.859375 626.375 C 1255.898438 599.265625 1279.480469 579.632812 1307.125 579.632812 C 1323.390625 579.632812 1347.375 588.910156 1370.476562 600.269531 C 1341.609375 612.148438 1319.6875 638.015625 1313.925781 670.382812 Z M 822.871094 370.203125 L 1236.003906 370.203125 C 1266.140625 370.203125 1290.660156 394.71875 1290.660156 424.855469 L 1290.660156 544.648438 C 1252.570312 551.394531 1221.898438 581.183594 1214.910156 620.417969 C 1214.855469 620.722656 1214.808594 621.03125 1214.769531 621.339844 L 1202.46875 719.289062 C 1124.394531 703.410156 1039.132812 703.070312 1032.578125 703.070312 C 1023.019531 703.070312 846.195312 703.792969 768.21875 752.335938 L 768.21875 424.855469 C 768.21875 394.71875 792.734375 370.203125 822.871094 370.203125 Z M 263.996094 370.203125 L 677.132812 370.203125 C 707.265625 370.203125 731.785156 394.71875 731.785156 424.855469 L 731.785156 752.335938 C 653.808594 703.792969 476.980469 703.070312 467.421875 703.070312 C 460.867188 703.070312 375.605469 703.414062 297.53125 719.289062 L 285.230469 621.34375 C 285.191406 621.03125 285.144531 620.726562 285.089844 620.417969 C 278.105469 581.191406 247.441406 551.402344 209.34375 544.652344 L 209.34375 424.855469 C 209.339844 394.71875 233.859375 370.203125 263.996094 370.203125 Z M 232.949219 1129.855469 L 210.253906 1129.855469 L 210.253906 1038.769531 L 258.972656 1038.769531 Z M 1289.746094 1129.855469 L 1267.050781 1129.855469 L 1241.027344 1038.769531 L 1289.746094 1038.769531 Z M 1462.484375 696.644531 L 1415.789062 929.183594 C 1407.277344 971.570312 1369.714844 1002.335938 1326.480469 1002.335938 L 173.519531 1002.335938 C 130.285156 1002.335938 92.726562 971.570312 84.214844 929.183594 L 37.515625 696.644531 C 34.605469 679.996094 39.15625 663.03125 50.011719 650.074219 C 60.910156 637.0625 76.894531 629.601562 93.886719 629.601562 C 121.507812 629.601562 145.089844 649.234375 150.128906 676.347656 L 173.964844 866.128906 C 177.386719 893.402344 200.699219 913.972656 228.1875 913.972656 L 713.566406 913.972656 C 727.570312 913.972656 740.320312 908.632812 750 899.9375 C 759.683594 908.632812 772.433594 913.972656 786.4375 913.972656 L 1271.8125 913.972656 C 1299.300781 913.972656 1322.613281 893.40625 1326.039062 866.128906 L 1349.875 676.34375 C 1354.910156 649.230469 1378.496094 629.601562 1406.136719 629.601562 C 1423.109375 629.601562 1439.089844 637.0625 1449.988281 650.070312 C 1460.84375 663.03125 1465.394531 679.996094 1462.484375 696.644531 Z M 1462.484375 696.644531 " fill-opacity="1" fill-rule="nonzero"/></g></svg>