<svg xmlns="http://www.w3.org/2000/svg" xmlns:xlink="http://www.w3.org/1999/xlink" width="2000" zoomAndPan="magnify" viewBox="0 0 1500 1499.999933" height="2000" preserveAspectRatio="xMidYMid meet" version="1.0"><defs><clipPath id="6d1253b0a0"><path d="M 1317.472656 583 L 1500 583 L 1500 946 L 1317.472656 946 Z M 1317.472656 583 " clip-rule="nonzero"/></clipPath><clipPath id="b320a0a775"><path d="M 602 1332 L 893.195312 1332 L 893.195312 1430.4375 L 602 1430.4375 Z M 602 1332 " clip-rule="nonzero"/></clipPath></defs><path fill="#c62828" d="M 507.65625 1140.472656 L 522.175781 1148.480469 C 590.816406 1186.324219 668.78125 1206.316406 747.640625 1206.316406 C 872.597656 1206.316406 990.0625 1157.667969 1078.417969 1069.308594 C 1166.773438 980.96875 1215.425781 863.488281 1215.425781 738.535156 C 1215.425781 613.59375 1166.773438 496.113281 1078.417969 407.773438 C 990.0625 319.417969 872.597656 270.75 747.640625 270.75 C 622.703125 270.75 505.222656 319.417969 416.863281 407.773438 C 328.507812 496.113281 279.859375 613.59375 279.859375 738.535156 C 279.859375 816.808594 299.558594 894.238281 336.847656 962.480469 L 344.753906 976.949219 L 284.953125 1200.152344 Z M 747.640625 1253.050781 C 661.667969 1253.050781 576.644531 1231.417969 501.578125 1190.46875 L 289.921875 1247.179688 C 286.246094 1248.179688 282.484375 1248.683594 278.753906 1248.683594 C 265.769531 1248.683594 253.203125 1242.414062 245.175781 1231.953125 C 237.113281 1221.441406 234.453125 1208.027344 237.90625 1195.164062 L 294.773438 982.921875 C 254.445312 908.304688 233.140625 823.867188 233.140625 738.535156 C 233.140625 601.113281 286.660156 471.910156 383.820312 374.730469 C 481 277.550781 610.222656 224.035156 747.640625 224.035156 C 885.078125 224.035156 1014.28125 277.550781 1111.460938 374.730469 C 1208.640625 471.910156 1262.160156 601.113281 1262.160156 738.535156 C 1262.160156 875.972656 1208.640625 1005.175781 1111.460938 1102.351562 C 1014.28125 1199.53125 885.078125 1253.050781 747.640625 1253.050781 " fill-opacity="1" fill-rule="nonzero"/><path fill="#c62828" d="M 1211.59375 286.269531 C 1087.671875 162.351562 922.90625 94.105469 747.640625 94.105469 C 572.378906 94.105469 407.628906 162.351562 283.707031 286.269531 C 159.769531 410.207031 91.527344 574.976562 91.527344 750.222656 C 91.527344 811.007812 99.742188 870.53125 115.644531 927.519531 L 156.578125 916.039062 C 141.746094 863.265625 133.804688 807.65625 133.804688 750.222656 C 133.804688 411.746094 409.164062 136.386719 747.640625 136.386719 C 1086.117188 136.386719 1361.476562 411.746094 1361.476562 750.222656 C 1361.476562 1088.699219 1086.117188 1364.058594 747.640625 1364.058594 L 747.640625 1406.335938 C 922.90625 1406.335938 1087.671875 1338.09375 1211.59375 1214.171875 C 1335.511719 1090.234375 1403.757812 925.46875 1403.757812 750.222656 C 1403.757812 574.976562 1335.511719 410.207031 1211.59375 286.269531 " fill-opacity="1" fill-rule="nonzero"/><g clip-path="url(#6d1253b0a0)"><path fill="#c62828" d="M 1487.988281 693.769531 L 1488.039062 689.367188 C 1488.539062 647.5 1458.519531 612.453125 1418.191406 605.808594 L 1378.742188 600.664062 C 1378.101562 598.816406 1377.238281 597.039062 1376.117188 595.433594 C 1374.113281 592.585938 1371.578125 590.082031 1368.574219 588.0625 C 1362.808594 584.160156 1355.746094 582.710938 1348.839844 583.484375 L 1348.632812 583.503906 C 1333.320312 585.488281 1322.390625 599.058594 1323.773438 614.421875 C 1332.714844 713.777344 1330.816406 814.304688 1318.128906 913.226562 C 1316.160156 928.589844 1327.054688 942.921875 1342.453125 945.164062 L 1342.761719 945.21875 C 1345.351562 945.578125 1347.976562 945.613281 1350.566406 945.285156 C 1361.703125 943.851562 1370.78125 936.066406 1374.148438 925.621094 C 1377.722656 925.761719 1381.710938 925.707031 1381.710938 925.707031 C 1390.585938 926.226562 1407.746094 925.847656 1412.476562 925.085938 C 1412.75 925.050781 1413.011719 925.070312 1413.285156 924.984375 C 1454.359375 919.699219 1485.691406 884.449219 1486.191406 842.996094 L 1486.242188 838.941406 C 1494.011719 829.566406 1498.363281 817.894531 1498.605469 805.621094 L 1500.054688 728.777344 C 1500.296875 715.917969 1496.03125 703.644531 1487.988281 693.769531 " fill-opacity="1" fill-rule="nonzero"/></g><path fill="#c62828" d="M 12.527344 693.769531 L 12.476562 689.367188 C 11.957031 647.5 41.980469 612.453125 82.308594 605.808594 L 121.773438 600.664062 C 122.410156 598.816406 123.257812 597.039062 124.398438 595.433594 C 126.382812 592.585938 128.9375 590.082031 131.941406 588.0625 C 137.691406 584.160156 144.769531 582.710938 151.675781 583.484375 L 151.882812 583.503906 C 167.195312 585.488281 178.105469 599.058594 176.722656 614.421875 C 167.78125 713.777344 169.679688 814.304688 182.386719 913.226562 C 184.355469 928.589844 173.460938 942.921875 158.0625 945.164062 L 157.734375 945.21875 C 155.144531 945.578125 152.519531 945.613281 149.949219 945.285156 C 138.8125 943.851562 129.714844 936.066406 126.363281 925.621094 C 122.773438 925.761719 118.804688 925.707031 118.804688 925.707031 C 109.914062 926.226562 92.769531 925.847656 88.039062 925.085938 C 87.761719 925.050781 87.503906 925.070312 87.226562 924.984375 C 46.15625 919.699219 14.804688 884.449219 14.304688 842.996094 L 14.269531 838.941406 C 6.5 829.566406 2.132812 817.894531 1.910156 805.621094 L 0.460938 728.777344 C 0.21875 715.917969 4.464844 703.644531 12.527344 693.769531 " fill-opacity="1" fill-rule="nonzero"/><path fill="#c62828" d="M 1167.84375 231.785156 C 1166.292969 219.355469 1159.902344 208.425781 1149.839844 201.039062 C 1032.980469 115.0625 893.902344 69.625 747.640625 69.625 C 601.382812 69.625 462.304688 115.0625 345.445312 201.039062 C 335.378906 208.425781 328.992188 219.355469 327.4375 231.785156 C 325.917969 244.144531 329.578125 256.765625 337.484375 266.363281 L 337.953125 266.933594 C 346.617188 277.449219 359.394531 283.472656 373.03125 283.472656 C 382.734375 283.472656 391.988281 280.433594 399.824219 274.703125 C 501.371094 200.226562 621.648438 160.847656 747.640625 160.847656 C 873.632812 160.847656 993.910156 200.226562 1095.457031 274.703125 C 1103.277344 280.433594 1112.550781 283.472656 1122.25 283.472656 C 1135.871094 283.472656 1148.664062 277.449219 1157.332031 266.933594 L 1157.796875 266.363281 C 1165.703125 256.765625 1169.382812 244.144531 1167.84375 231.785156 " fill-opacity="1" fill-rule="nonzero"/><g clip-path="url(#b320a0a775)"><path fill="#c62828" d="M 844.664062 1430.4375 L 650.84375 1430.4375 C 624.082031 1430.4375 602.382812 1408.734375 602.382812 1381.976562 L 602.382812 1380.992188 C 602.382812 1354.234375 624.082031 1332.53125 650.84375 1332.53125 L 844.664062 1332.53125 C 871.425781 1332.53125 893.125 1354.234375 893.125 1380.992188 L 893.125 1381.976562 C 893.125 1408.734375 871.425781 1430.4375 844.664062 1430.4375 " fill-opacity="1" fill-rule="nonzero"/></g><path fill="#c62828" d="M 553.144531 809.382812 L 477.925781 809.382812 L 540.59375 738.222656 C 548.191406 729.625 554.648438 720.441406 559.757812 710.929688 C 565.007812 701.140625 567.664062 691.539062 567.664062 682.375 C 567.664062 667.75 564.816406 654.804688 559.1875 643.859375 C 553.507812 632.808594 545.34375 624.160156 534.898438 618.167969 C 524.503906 612.195312 512.28125 609.175781 498.59375 609.175781 C 484.902344 609.175781 472.386719 612.402344 461.40625 618.757812 C 450.425781 625.125 441.640625 633.964844 435.285156 645.03125 C 428.914062 656.117188 425.6875 668.683594 425.6875 682.375 C 425.6875 687.191406 427.515625 691.453125 431.089844 695.046875 C 434.664062 698.617188 439.03125 700.433594 444.054688 700.433594 C 449.285156 700.433594 453.707031 698.601562 457.195312 694.992188 C 460.664062 691.421875 462.40625 687.171875 462.40625 682.375 C 462.40625 675.484375 464.011719 668.960938 467.171875 662.984375 C 470.332031 657.066406 474.75 652.265625 480.308594 648.761719 C 485.835938 645.289062 491.996094 643.53125 498.59375 643.53125 C 509.089844 643.53125 517.082031 646.914062 523.054688 653.871094 C 529.082031 660.878906 532.136719 670.460938 532.136719 682.375 C 532.136719 691.921875 526.164062 703.574219 514.355469 717.074219 L 430.695312 814.875 C 427.378906 818.242188 425.6875 822.574219 425.6875 827.734375 C 425.6875 832.742188 427.449219 837.074219 430.902344 840.648438 C 434.386719 844.257812 438.808594 846.085938 444.054688 846.085938 L 553.144531 846.085938 C 558.359375 846.085938 562.8125 844.273438 566.40625 840.699219 C 569.980469 837.109375 571.792969 832.757812 571.792969 827.734375 C 571.792969 822.710938 569.980469 818.34375 566.40625 814.769531 C 562.8125 811.195312 558.359375 809.382812 553.144531 809.382812 " fill-opacity="1" fill-rule="nonzero"/><path fill="#c62828" d="M 699.027344 675.691406 L 699.027344 760.128906 L 634.734375 760.128906 Z M 761.882812 764.082031 C 758.535156 761.476562 754.183594 760.128906 748.9375 760.128906 L 734.554688 760.128906 L 734.554688 627.820312 C 734.554688 622.710938 733 618.308594 729.910156 614.734375 C 726.699219 611.039062 722.488281 609.175781 717.378906 609.175781 C 711.40625 609.175781 706.363281 611.796875 702.359375 616.960938 L 589.433594 764.980469 C 587.019531 768.105469 585.792969 771.765625 585.792969 775.839844 C 585.792969 780.621094 587.484375 784.871094 590.816406 788.425781 C 594.21875 792.050781 598.6875 793.898438 604.160156 793.898438 L 699.027344 793.898438 L 699.027344 827.734375 C 699.027344 832.707031 700.71875 837.042969 704.050781 840.613281 C 707.433594 844.238281 711.628906 846.085938 716.496094 846.085938 C 721.539062 846.085938 725.855469 844.257812 729.34375 840.648438 C 732.8125 837.074219 734.554688 832.726562 734.554688 827.734375 L 734.554688 793.898438 L 748.9375 793.898438 C 753.890625 793.898438 758.207031 792.277344 761.761719 789.066406 C 765.421875 785.765625 767.289062 781.726562 767.289062 777.015625 C 767.289062 771.265625 765.476562 766.914062 761.882812 764.082031 " fill-opacity="1" fill-rule="nonzero"/><path fill="#c62828" d="M 890.757812 609.175781 C 887.203125 609.175781 883.835938 610.140625 880.765625 612.023438 C 877.621094 613.957031 875.292969 616.648438 873.804688 620.101562 L 785.085938 842.082031 C 783.929688 844.828125 783.359375 847.433594 783.359375 849.851562 C 783.359375 854.890625 785.171875 859.207031 788.800781 862.695312 C 792.371094 866.164062 796.722656 867.910156 801.710938 867.910156 C 805.234375 867.910156 808.566406 867.011719 811.621094 865.25 C 814.832031 863.402344 817.199219 860.625 818.648438 856.980469 L 907.402344 634.949219 L 907.4375 634.847656 C 908.351562 632.324219 908.816406 629.769531 908.816406 627.234375 C 908.816406 622.207031 907.058594 617.910156 903.570312 614.421875 C 900.082031 610.9375 895.765625 609.175781 890.757812 609.175781 " fill-opacity="1" fill-rule="nonzero"/><path fill="#c62828" d="M 1064.398438 614.5625 C 1060.828125 610.988281 1056.457031 609.175781 1051.453125 609.175781 L 939.117188 609.175781 C 933.902344 609.175781 929.484375 610.9375 925.996094 614.421875 C 922.523438 617.910156 920.746094 622.3125 920.746094 627.527344 C 920.746094 632.757812 922.523438 637.160156 925.996094 640.628906 C 929.484375 644.117188 933.886719 645.878906 939.117188 645.878906 L 1023.46875 645.878906 L 941.152344 816.808594 C 939.167969 820.796875 938.148438 824.472656 938.148438 827.734375 C 938.148438 832.757812 939.960938 837.109375 943.550781 840.699219 C 947.125 844.273438 951.390625 846.085938 956.207031 846.085938 C 959.539062 846.085938 962.765625 845.191406 965.824219 843.429688 C 968.914062 841.652344 971.332031 839.183594 972.988281 836.089844 L 973.023438 836.003906 L 1067.421875 636.917969 L 1067.457031 636.8125 C 1069.027344 633.207031 1069.804688 630.167969 1069.804688 627.527344 C 1069.804688 622.503906 1067.992188 618.152344 1064.398438 614.5625 " fill-opacity="1" fill-rule="nonzero"/></svg>