<svg xmlns="http://www.w3.org/2000/svg" xmlns:xlink="http://www.w3.org/1999/xlink" width="2000" zoomAndPan="magnify" viewBox="0 0 1500 1499.999933" height="2000" preserveAspectRatio="xMidYMid meet" version="1.0"><path fill="#c62828" d="M 1368.945312 1046.578125 L 1201.847656 1046.578125 L 1029.023438 799.683594 C 1027.832031 797.984375 1026.460938 796.453125 1024.902344 795.085938 C 1023.34375 793.71875 1021.644531 792.554688 1019.804688 791.597656 C 1017.964844 790.640625 1016.039062 789.914062 1014.027344 789.421875 C 1012.011719 788.929688 1009.96875 788.683594 1007.894531 788.683594 L 646.84375 788.683594 L 646.84375 685.527344 C 646.84375 684.679688 646.800781 683.839844 646.71875 683 C 646.636719 682.15625 646.511719 681.324219 646.347656 680.496094 C 646.183594 679.667969 645.976562 678.847656 645.730469 678.039062 C 645.484375 677.230469 645.203125 676.4375 644.878906 675.65625 C 644.554688 674.875 644.195312 674.113281 643.796875 673.367188 C 643.398438 672.625 642.964844 671.902344 642.496094 671.199219 C 642.027344 670.496094 641.523438 669.820312 640.988281 669.164062 C 640.453125 668.511719 639.886719 667.886719 639.289062 667.289062 C 638.691406 666.691406 638.066406 666.125 637.414062 665.589844 C 636.761719 665.054688 636.082031 664.550781 635.378906 664.082031 C 634.679688 663.613281 633.953125 663.179688 633.210938 662.78125 C 632.464844 662.382812 631.703125 662.023438 630.921875 661.699219 C 630.140625 661.375 629.347656 661.09375 628.539062 660.847656 C 627.730469 660.601562 626.914062 660.398438 626.082031 660.230469 C 625.253906 660.066406 624.421875 659.945312 623.582031 659.859375 C 622.738281 659.777344 621.898438 659.738281 621.050781 659.738281 L 27.894531 659.738281 C 27.050781 659.738281 26.207031 659.777344 25.367188 659.859375 C 24.527344 659.945312 23.691406 660.066406 22.863281 660.230469 C 22.035156 660.398438 21.214844 660.601562 20.410156 660.847656 C 19.601562 661.09375 18.804688 661.375 18.027344 661.699219 C 17.246094 662.023438 16.484375 662.382812 15.738281 662.78125 C 14.992188 663.179688 14.269531 663.613281 13.566406 664.082031 C 12.863281 664.550781 12.1875 665.054688 11.535156 665.589844 C 10.882812 666.125 10.257812 666.691406 9.660156 667.289062 C 9.0625 667.886719 8.496094 668.511719 7.960938 669.164062 C 7.421875 669.820312 6.921875 670.496094 6.453125 671.199219 C 5.980469 671.902344 5.546875 672.625 5.152344 673.371094 C 4.753906 674.113281 4.390625 674.875 4.070312 675.65625 C 3.746094 676.4375 3.460938 677.230469 3.214844 678.039062 C 2.96875 678.847656 2.765625 679.667969 2.601562 680.496094 C 2.4375 681.324219 2.3125 682.15625 2.230469 683 C 2.148438 683.839844 2.105469 684.679688 2.105469 685.527344 L 2.105469 1330.261719 C 2.105469 1331.109375 2.148438 1331.949219 2.230469 1332.789062 C 2.3125 1333.632812 2.4375 1334.464844 2.601562 1335.292969 C 2.765625 1336.121094 2.96875 1336.941406 3.214844 1337.75 C 3.460938 1338.558594 3.746094 1339.351562 4.070312 1340.132812 C 4.390625 1340.914062 4.753906 1341.675781 5.152344 1342.417969 C 5.546875 1343.164062 5.980469 1343.886719 6.453125 1344.589844 C 6.921875 1345.292969 7.421875 1345.96875 7.960938 1346.625 C 8.496094 1347.277344 9.0625 1347.902344 9.660156 1348.5 C 10.257812 1349.097656 10.882812 1349.664062 11.535156 1350.199219 C 12.1875 1350.734375 12.863281 1351.238281 13.566406 1351.707031 C 14.269531 1352.175781 14.992188 1352.609375 15.738281 1353.007812 C 16.484375 1353.40625 17.246094 1353.765625 18.027344 1354.089844 C 18.804688 1354.414062 19.601562 1354.695312 20.410156 1354.941406 C 21.214844 1355.1875 22.035156 1355.390625 22.863281 1355.558594 C 23.691406 1355.722656 24.527344 1355.84375 25.367188 1355.929688 C 26.207031 1356.011719 27.050781 1356.050781 27.894531 1356.050781 L 209.035156 1356.050781 C 209.230469 1358.230469 209.480469 1360.402344 209.78125 1362.566406 C 210.078125 1364.734375 210.429688 1366.890625 210.828125 1369.039062 C 211.226562 1371.191406 211.675781 1373.328125 212.171875 1375.457031 C 212.671875 1377.585938 213.21875 1379.703125 213.8125 1381.808594 C 214.410156 1383.910156 215.054688 1386 215.746094 1388.074219 C 216.4375 1390.148438 217.175781 1392.203125 217.964844 1394.246094 C 218.753906 1396.285156 219.585938 1398.304688 220.46875 1400.304688 C 221.347656 1402.308594 222.273438 1404.285156 223.246094 1406.246094 C 224.21875 1408.203125 225.238281 1410.136719 226.300781 1412.050781 C 227.363281 1413.960938 228.46875 1415.847656 229.617188 1417.707031 C 230.765625 1419.566406 231.957031 1421.398438 233.191406 1423.203125 C 234.425781 1425.007812 235.699219 1426.785156 237.015625 1428.53125 C 238.332031 1430.277344 239.6875 1431.992188 241.082031 1433.671875 C 242.480469 1435.355469 243.914062 1437.007812 245.382812 1438.625 C 246.855469 1440.242188 248.363281 1441.824219 249.910156 1443.371094 C 251.453125 1444.917969 253.035156 1446.429688 254.648438 1447.902344 C 256.261719 1449.375 257.910156 1450.8125 259.59375 1452.210938 C 261.273438 1453.609375 262.984375 1454.964844 264.730469 1456.285156 C 266.472656 1457.601562 268.246094 1458.882812 270.050781 1460.117188 C 271.855469 1461.355469 273.683594 1462.546875 275.542969 1463.699219 C 277.402344 1464.851562 279.285156 1465.960938 281.195312 1467.027344 C 283.105469 1468.089844 285.039062 1469.109375 286.996094 1470.085938 C 288.953125 1471.0625 290.929688 1471.992188 292.929688 1472.875 C 294.929688 1473.757812 296.949219 1474.597656 298.988281 1475.386719 C 301.023438 1476.179688 303.082031 1476.921875 305.152344 1477.617188 C 307.226562 1478.3125 309.316406 1478.960938 311.417969 1479.558594 C 313.519531 1480.15625 315.636719 1480.707031 317.765625 1481.207031 C 319.890625 1481.707031 322.03125 1482.160156 324.179688 1482.5625 C 326.328125 1482.964844 328.488281 1483.316406 330.652344 1483.621094 C 332.816406 1483.921875 334.988281 1484.171875 337.164062 1484.375 C 339.34375 1484.578125 341.523438 1484.730469 343.707031 1484.832031 C 345.890625 1484.929688 348.078125 1484.980469 350.261719 1484.980469 C 352.449219 1484.980469 354.636719 1484.929688 356.820312 1484.832031 C 359.003906 1484.730469 361.183594 1484.578125 363.359375 1484.375 C 365.539062 1484.171875 367.710938 1483.921875 369.875 1483.621094 C 372.039062 1483.316406 374.195312 1482.964844 376.347656 1482.5625 C 378.496094 1482.160156 380.632812 1481.707031 382.761719 1481.207031 C 384.890625 1480.707031 387.007812 1480.15625 389.109375 1479.558594 C 391.210938 1478.960938 393.300781 1478.3125 395.371094 1477.617188 C 397.445312 1476.921875 399.5 1476.179688 401.539062 1475.386719 C 403.578125 1474.597656 405.597656 1473.757812 407.597656 1472.875 C 409.597656 1471.992188 411.574219 1471.0625 413.53125 1470.085938 C 415.488281 1469.109375 417.421875 1468.089844 419.332031 1467.027344 C 421.242188 1465.960938 423.125 1464.851562 424.984375 1463.699219 C 426.839844 1462.550781 428.671875 1461.355469 430.476562 1460.117188 C 432.277344 1458.882812 434.050781 1457.605469 435.796875 1456.285156 C 437.539062 1454.964844 439.253906 1453.609375 440.933594 1452.210938 C 442.613281 1450.8125 444.261719 1449.375 445.878906 1447.902344 C 447.492188 1446.429688 449.074219 1444.917969 450.617188 1443.371094 C 452.160156 1441.824219 453.671875 1440.242188 455.140625 1438.625 C 456.613281 1437.007812 458.046875 1435.355469 459.441406 1433.671875 C 460.839844 1431.992188 462.195312 1430.277344 463.511719 1428.53125 C 464.824219 1426.785156 466.101562 1425.007812 467.335938 1423.203125 C 468.570312 1421.398438 469.761719 1419.566406 470.910156 1417.707031 C 472.058594 1415.847656 473.164062 1413.960938 474.226562 1412.050781 C 475.289062 1410.136719 476.304688 1408.203125 477.277344 1406.246094 C 478.25 1404.285156 479.175781 1402.308594 480.058594 1400.304688 C 480.941406 1398.304688 481.773438 1396.285156 482.5625 1394.246094 C 483.347656 1392.203125 484.089844 1390.148438 484.78125 1388.074219 C 485.472656 1386 486.117188 1383.910156 486.714844 1381.808594 C 487.308594 1379.703125 487.855469 1377.585938 488.355469 1375.457031 C 488.851562 1373.328125 489.300781 1371.191406 489.699219 1369.039062 C 490.097656 1366.890625 490.445312 1364.734375 490.746094 1362.566406 C 491.046875 1360.402344 491.292969 1358.230469 491.492188 1356.050781 L 982.71875 1356.050781 C 982.917969 1358.230469 983.164062 1360.402344 983.464844 1362.566406 C 983.761719 1364.734375 984.113281 1366.890625 984.511719 1369.039062 C 984.910156 1371.191406 985.359375 1373.328125 985.855469 1375.457031 C 986.355469 1377.585938 986.902344 1379.703125 987.496094 1381.808594 C 988.09375 1383.910156 988.738281 1386 989.429688 1388.074219 C 990.121094 1390.148438 990.863281 1392.203125 991.648438 1394.246094 C 992.4375 1396.285156 993.269531 1398.304688 994.152344 1400.304688 C 995.03125 1402.308594 995.960938 1404.285156 996.933594 1406.246094 C 997.90625 1408.203125 998.921875 1410.136719 999.984375 1412.050781 C 1001.046875 1413.960938 1002.152344 1415.847656 1003.300781 1417.707031 C 1004.449219 1419.566406 1005.640625 1421.398438 1006.875 1423.203125 C 1008.109375 1425.007812 1009.382812 1426.785156 1010.699219 1428.53125 C 1012.015625 1430.277344 1013.371094 1431.992188 1014.765625 1433.671875 C 1016.164062 1435.355469 1017.597656 1437.007812 1019.066406 1438.625 C 1020.539062 1440.242188 1022.046875 1441.824219 1023.59375 1443.371094 C 1025.136719 1444.917969 1026.71875 1446.429688 1028.332031 1447.902344 C 1029.949219 1449.375 1031.59375 1450.8125 1033.277344 1452.210938 C 1034.957031 1453.609375 1036.671875 1454.964844 1038.414062 1456.285156 C 1040.160156 1457.601562 1041.933594 1458.882812 1043.734375 1460.117188 C 1045.539062 1461.355469 1047.367188 1462.546875 1049.226562 1463.699219 C 1051.085938 1464.851562 1052.96875 1465.960938 1054.878906 1467.027344 C 1056.789062 1468.089844 1058.722656 1469.109375 1060.679688 1470.085938 C 1062.636719 1471.0625 1064.613281 1471.992188 1066.613281 1472.875 C 1068.613281 1473.757812 1070.632812 1474.597656 1072.671875 1475.386719 C 1074.710938 1476.175781 1076.765625 1476.921875 1078.835938 1477.617188 C 1080.910156 1478.3125 1083 1478.957031 1085.101562 1479.558594 C 1087.203125 1480.15625 1089.320312 1480.707031 1091.449219 1481.207031 C 1093.574219 1481.707031 1095.714844 1482.160156 1097.863281 1482.5625 C 1100.011719 1482.964844 1102.171875 1483.316406 1104.335938 1483.617188 C 1106.5 1483.921875 1108.671875 1484.171875 1110.851562 1484.375 C 1113.027344 1484.578125 1115.207031 1484.730469 1117.390625 1484.828125 C 1119.574219 1484.929688 1121.761719 1484.980469 1123.945312 1484.980469 C 1126.132812 1484.980469 1128.320312 1484.929688 1130.503906 1484.832031 C 1132.6875 1484.730469 1134.867188 1484.578125 1137.042969 1484.375 C 1139.222656 1484.171875 1141.394531 1483.921875 1143.558594 1483.617188 C 1145.722656 1483.316406 1147.882812 1482.964844 1150.03125 1482.5625 C 1152.179688 1482.160156 1154.316406 1481.707031 1156.445312 1481.207031 C 1158.574219 1480.707031 1160.691406 1480.15625 1162.792969 1479.558594 C 1164.894531 1478.957031 1166.984375 1478.3125 1169.054688 1477.617188 C 1171.128906 1476.921875 1173.183594 1476.175781 1175.222656 1475.386719 C 1177.261719 1474.597656 1179.28125 1473.757812 1181.28125 1472.875 C 1183.28125 1471.992188 1185.257812 1471.0625 1187.214844 1470.085938 C 1189.171875 1469.109375 1191.105469 1468.089844 1193.015625 1467.027344 C 1194.925781 1465.960938 1196.808594 1464.851562 1198.667969 1463.699219 C 1200.527344 1462.546875 1202.355469 1461.355469 1204.160156 1460.117188 C 1205.960938 1458.882812 1207.734375 1457.601562 1209.480469 1456.285156 C 1211.222656 1454.964844 1212.9375 1453.609375 1214.617188 1452.210938 C 1216.300781 1450.8125 1217.945312 1449.375 1219.5625 1447.902344 C 1221.175781 1446.429688 1222.757812 1444.917969 1224.300781 1443.371094 C 1225.847656 1441.824219 1227.355469 1440.242188 1228.828125 1438.625 C 1230.296875 1437.007812 1231.730469 1435.355469 1233.125 1433.671875 C 1234.523438 1431.992188 1235.878906 1430.277344 1237.195312 1428.53125 C 1238.511719 1426.785156 1239.785156 1425.007812 1241.019531 1423.203125 C 1242.253906 1421.398438 1243.445312 1419.566406 1244.59375 1417.707031 C 1245.742188 1415.847656 1246.847656 1413.960938 1247.910156 1412.046875 C 1248.972656 1410.136719 1249.988281 1408.203125 1250.960938 1406.246094 C 1251.933594 1404.285156 1252.863281 1402.308594 1253.742188 1400.304688 C 1254.625 1398.304688 1255.457031 1396.285156 1256.246094 1394.246094 C 1257.03125 1392.203125 1257.773438 1390.148438 1258.464844 1388.074219 C 1259.15625 1386 1259.800781 1383.910156 1260.398438 1381.808594 C 1260.992188 1379.703125 1261.539062 1377.585938 1262.039062 1375.457031 C 1262.535156 1373.328125 1262.984375 1371.191406 1263.382812 1369.039062 C 1263.78125 1366.890625 1264.132812 1364.734375 1264.429688 1362.566406 C 1264.730469 1360.402344 1264.976562 1358.230469 1265.175781 1356.050781 L 1472.105469 1356.050781 C 1472.949219 1356.050781 1473.792969 1356.011719 1474.632812 1355.929688 C 1475.472656 1355.84375 1476.308594 1355.722656 1477.136719 1355.558594 C 1477.964844 1355.390625 1478.78125 1355.1875 1479.589844 1354.941406 C 1480.398438 1354.695312 1481.195312 1354.414062 1481.972656 1354.089844 C 1482.753906 1353.765625 1483.515625 1353.40625 1484.261719 1353.007812 C 1485.007812 1352.609375 1485.730469 1352.175781 1486.433594 1351.707031 C 1487.136719 1351.238281 1487.8125 1350.734375 1488.464844 1350.199219 C 1489.117188 1349.664062 1489.742188 1349.097656 1490.339844 1348.5 C 1490.9375 1347.902344 1491.503906 1347.277344 1492.039062 1346.625 C 1492.578125 1345.96875 1493.078125 1345.292969 1493.546875 1344.589844 C 1494.015625 1343.886719 1494.449219 1343.164062 1494.847656 1342.421875 C 1495.246094 1341.675781 1495.609375 1340.914062 1495.929688 1340.132812 C 1496.253906 1339.351562 1496.539062 1338.558594 1496.785156 1337.75 C 1497.03125 1336.941406 1497.234375 1336.121094 1497.398438 1335.292969 C 1497.5625 1334.464844 1497.6875 1333.632812 1497.769531 1332.789062 C 1497.851562 1331.949219 1497.894531 1331.109375 1497.894531 1330.261719 L 1497.894531 1175.527344 C 1497.890625 1173.417969 1497.839844 1171.308594 1497.734375 1169.199219 C 1497.625 1167.09375 1497.46875 1164.992188 1497.261719 1162.890625 C 1497.050781 1160.792969 1496.792969 1158.699219 1496.480469 1156.613281 C 1496.167969 1154.527344 1495.804688 1152.449219 1495.390625 1150.378906 C 1494.980469 1148.3125 1494.515625 1146.253906 1494 1144.207031 C 1493.488281 1142.160156 1492.921875 1140.128906 1492.308594 1138.109375 C 1491.695312 1136.09375 1491.03125 1134.089844 1490.320312 1132.105469 C 1489.609375 1130.121094 1488.847656 1128.152344 1488.039062 1126.203125 C 1487.230469 1124.253906 1486.375 1122.328125 1485.472656 1120.421875 C 1484.570312 1118.515625 1483.621094 1116.628906 1482.625 1114.769531 C 1481.628906 1112.910156 1480.589844 1111.074219 1479.503906 1109.265625 C 1478.417969 1107.457031 1477.289062 1105.675781 1476.117188 1103.921875 C 1474.945312 1102.167969 1473.730469 1100.445312 1472.472656 1098.75 C 1471.214844 1097.054688 1469.917969 1095.394531 1468.578125 1093.761719 C 1467.242188 1092.132812 1465.863281 1090.535156 1464.445312 1088.972656 C 1463.03125 1087.410156 1461.574219 1085.882812 1460.082031 1084.390625 C 1458.589844 1082.898438 1457.0625 1081.445312 1455.5 1080.027344 C 1453.9375 1078.609375 1452.339844 1077.234375 1450.710938 1075.894531 C 1449.082031 1074.554688 1447.417969 1073.257812 1445.722656 1072 C 1444.03125 1070.742188 1442.304688 1069.527344 1440.550781 1068.355469 C 1438.796875 1067.183594 1437.015625 1066.054688 1435.207031 1064.96875 C 1433.398438 1063.882812 1431.5625 1062.84375 1429.703125 1061.847656 C 1427.84375 1060.851562 1425.960938 1059.902344 1424.054688 1059 C 1422.144531 1058.097656 1420.21875 1057.242188 1418.269531 1056.433594 C 1416.320312 1055.625 1414.355469 1054.867188 1412.367188 1054.152344 C 1410.382812 1053.441406 1408.378906 1052.777344 1406.363281 1052.164062 C 1404.34375 1051.550781 1402.3125 1050.988281 1400.265625 1050.472656 C 1398.21875 1049.957031 1396.164062 1049.496094 1394.09375 1049.082031 C 1392.023438 1048.667969 1389.945312 1048.304688 1387.859375 1047.992188 C 1385.773438 1047.683594 1383.679688 1047.421875 1381.582031 1047.214844 C 1379.480469 1047.003906 1377.378906 1046.847656 1375.273438 1046.742188 C 1373.164062 1046.636719 1371.058594 1046.582031 1368.945312 1046.578125 Z M 595.261719 711.316406 L 595.261719 1046.578125 L 53.683594 1046.578125 L 53.683594 711.316406 Z M 350.261719 1433.421875 C 348.785156 1433.421875 347.308594 1433.382812 345.835938 1433.3125 C 344.359375 1433.238281 342.886719 1433.132812 341.414062 1432.984375 C 339.945312 1432.839844 338.480469 1432.660156 337.019531 1432.445312 C 335.558594 1432.226562 334.101562 1431.972656 332.652344 1431.6875 C 331.203125 1431.398438 329.765625 1431.074219 328.332031 1430.714844 C 326.898438 1430.355469 325.476562 1429.964844 324.0625 1429.535156 C 322.648438 1429.105469 321.246094 1428.640625 319.855469 1428.144531 C 318.464844 1427.648438 317.085938 1427.117188 315.722656 1426.550781 C 314.355469 1425.984375 313.007812 1425.386719 311.671875 1424.753906 C 310.335938 1424.121094 309.015625 1423.460938 307.714844 1422.761719 C 306.410156 1422.066406 305.125 1421.339844 303.859375 1420.578125 C 302.589844 1419.820312 301.34375 1419.03125 300.117188 1418.207031 C 298.886719 1417.386719 297.679688 1416.539062 296.492188 1415.65625 C 295.308594 1414.777344 294.144531 1413.867188 293 1412.933594 C 291.859375 1411.996094 290.742188 1411.03125 289.644531 1410.039062 C 288.550781 1409.046875 287.480469 1408.027344 286.4375 1406.984375 C 285.394531 1405.9375 284.375 1404.871094 283.382812 1403.773438 C 282.390625 1402.679688 281.425781 1401.5625 280.488281 1400.421875 C 279.550781 1399.277344 278.644531 1398.113281 277.761719 1396.925781 C 276.882812 1395.742188 276.03125 1394.535156 275.210938 1393.304688 C 274.390625 1392.078125 273.601562 1390.828125 272.84375 1389.5625 C 272.082031 1388.296875 271.355469 1387.011719 270.65625 1385.707031 C 269.960938 1384.40625 269.296875 1383.085938 268.667969 1381.75 C 268.035156 1380.414062 267.4375 1379.066406 266.871094 1377.699219 C 266.304688 1376.335938 265.773438 1374.957031 265.277344 1373.566406 C 264.777344 1372.175781 264.316406 1370.773438 263.886719 1369.359375 C 263.457031 1367.945312 263.0625 1366.523438 262.707031 1365.089844 C 262.347656 1363.65625 262.023438 1362.214844 261.734375 1360.765625 C 261.445312 1359.316406 261.195312 1357.863281 260.976562 1356.402344 C 260.761719 1354.941406 260.578125 1353.476562 260.433594 1352.003906 C 260.289062 1350.535156 260.179688 1349.0625 260.109375 1347.585938 C 260.035156 1346.109375 260 1344.636719 260 1343.15625 C 260 1341.679688 260.035156 1340.203125 260.109375 1338.730469 C 260.179688 1337.253906 260.289062 1335.78125 260.433594 1334.308594 C 260.578125 1332.839844 260.761719 1331.375 260.976562 1329.914062 C 261.195312 1328.453125 261.445312 1326.996094 261.734375 1325.546875 C 262.023438 1324.097656 262.347656 1322.660156 262.707031 1321.226562 C 263.0625 1319.792969 263.457031 1318.371094 263.886719 1316.957031 C 264.316406 1315.542969 264.777344 1314.140625 265.277344 1312.75 C 265.773438 1311.359375 266.304688 1309.980469 266.871094 1308.617188 C 267.4375 1307.25 268.035156 1305.902344 268.667969 1304.566406 C 269.296875 1303.230469 269.960938 1301.910156 270.65625 1300.609375 C 271.355469 1299.304688 272.082031 1298.019531 272.84375 1296.753906 C 273.601562 1295.484375 274.390625 1294.238281 275.210938 1293.011719 C 276.03125 1291.78125 276.882812 1290.574219 277.761719 1289.386719 C 278.644531 1288.203125 279.550781 1287.039062 280.488281 1285.894531 C 281.425781 1284.753906 282.390625 1283.636719 283.382812 1282.539062 C 284.375 1281.445312 285.394531 1280.375 286.4375 1279.332031 C 287.480469 1278.289062 288.550781 1277.269531 289.644531 1276.277344 C 290.742188 1275.285156 291.859375 1274.320312 293 1273.382812 C 294.144531 1272.445312 295.308594 1271.539062 296.492188 1270.65625 C 297.679688 1269.777344 298.886719 1268.925781 300.117188 1268.105469 C 301.34375 1267.285156 302.589844 1266.496094 303.859375 1265.738281 C 305.125 1264.976562 306.410156 1264.25 307.714844 1263.554688 C 309.015625 1262.855469 310.335938 1262.191406 311.671875 1261.5625 C 313.007812 1260.929688 314.355469 1260.332031 315.722656 1259.765625 C 317.085938 1259.199219 318.464844 1258.667969 319.855469 1258.171875 C 321.246094 1257.671875 322.648438 1257.210938 324.0625 1256.78125 C 325.476562 1256.351562 326.898438 1255.957031 328.332031 1255.597656 C 329.765625 1255.242188 331.203125 1254.917969 332.652344 1254.628906 C 334.101562 1254.339844 335.558594 1254.089844 337.019531 1253.871094 C 338.480469 1253.65625 339.945312 1253.472656 341.414062 1253.328125 C 342.886719 1253.183594 344.359375 1253.074219 345.835938 1253.003906 C 347.308594 1252.929688 348.785156 1252.894531 350.261719 1252.894531 C 351.742188 1252.894531 353.214844 1252.929688 354.691406 1253.003906 C 356.167969 1253.074219 357.640625 1253.183594 359.109375 1253.328125 C 360.582031 1253.472656 362.046875 1253.65625 363.507812 1253.871094 C 364.96875 1254.089844 366.421875 1254.339844 367.871094 1254.628906 C 369.320312 1254.917969 370.761719 1255.242188 372.195312 1255.597656 C 373.628906 1255.957031 375.050781 1256.351562 376.464844 1256.78125 C 377.878906 1257.210938 379.28125 1257.671875 380.671875 1258.171875 C 382.0625 1258.667969 383.441406 1259.199219 384.804688 1259.765625 C 386.171875 1260.332031 387.519531 1260.929688 388.855469 1261.5625 C 390.191406 1262.191406 391.511719 1262.855469 392.8125 1263.554688 C 394.117188 1264.25 395.402344 1264.976562 396.667969 1265.738281 C 397.933594 1266.496094 399.183594 1267.285156 400.410156 1268.105469 C 401.640625 1268.925781 402.847656 1269.777344 404.03125 1270.65625 C 405.21875 1271.539062 406.382812 1272.445312 407.527344 1273.382812 C 408.667969 1274.320312 409.785156 1275.285156 410.878906 1276.277344 C 411.976562 1277.269531 413.042969 1278.289062 414.089844 1279.332031 C 415.132812 1280.375 416.152344 1281.445312 417.144531 1282.539062 C 418.136719 1283.636719 419.101562 1284.753906 420.039062 1285.894531 C 420.972656 1287.039062 421.882812 1288.203125 422.761719 1289.386719 C 423.644531 1290.574219 424.492188 1291.78125 425.3125 1293.011719 C 426.136719 1294.238281 426.925781 1295.484375 427.683594 1296.753906 C 428.445312 1298.019531 429.171875 1299.304688 429.867188 1300.609375 C 430.5625 1301.910156 431.226562 1303.230469 431.859375 1304.566406 C 432.492188 1305.902344 433.089844 1307.25 433.65625 1308.617188 C 434.21875 1309.980469 434.753906 1311.359375 435.25 1312.75 C 435.746094 1314.140625 436.210938 1315.542969 436.640625 1316.957031 C 437.070312 1318.371094 437.460938 1319.792969 437.820312 1321.226562 C 438.179688 1322.660156 438.503906 1324.097656 438.792969 1325.546875 C 439.078125 1326.996094 439.332031 1328.453125 439.550781 1329.914062 C 439.765625 1331.375 439.945312 1332.839844 440.089844 1334.308594 C 440.238281 1335.78125 440.34375 1337.253906 440.417969 1338.730469 C 440.488281 1340.203125 440.527344 1341.679688 440.527344 1343.15625 C 440.523438 1344.632812 440.488281 1346.109375 440.414062 1347.585938 C 440.339844 1349.058594 440.230469 1350.53125 440.082031 1352 C 439.9375 1353.472656 439.753906 1354.9375 439.535156 1356.398438 C 439.316406 1357.859375 439.066406 1359.3125 438.777344 1360.761719 C 438.484375 1362.207031 438.160156 1363.648438 437.800781 1365.082031 C 437.441406 1366.511719 437.046875 1367.9375 436.617188 1369.347656 C 436.1875 1370.761719 435.722656 1372.164062 435.226562 1373.554688 C 434.726562 1374.941406 434.195312 1376.320312 433.628906 1377.683594 C 433.0625 1379.046875 432.464844 1380.398438 431.832031 1381.734375 C 431.199219 1383.066406 430.535156 1384.386719 429.839844 1385.6875 C 429.140625 1386.988281 428.414062 1388.273438 427.652344 1389.539062 C 426.894531 1390.808594 426.105469 1392.054688 425.285156 1393.28125 C 424.460938 1394.507812 423.613281 1395.714844 422.730469 1396.902344 C 421.851562 1398.089844 420.945312 1399.25 420.007812 1400.394531 C 419.070312 1401.535156 418.105469 1402.652344 417.113281 1403.746094 C 416.121094 1404.839844 415.105469 1405.910156 414.058594 1406.953125 C 413.015625 1408 411.945312 1409.015625 410.851562 1410.007812 C 409.757812 1411 408.640625 1411.964844 407.5 1412.902344 C 406.355469 1413.839844 405.195312 1414.746094 404.007812 1415.628906 C 402.820312 1416.507812 401.613281 1417.355469 400.386719 1418.179688 C 399.160156 1419 397.914062 1419.789062 396.644531 1420.546875 C 395.378906 1421.308594 394.09375 1422.035156 392.792969 1422.734375 C 391.492188 1423.429688 390.171875 1424.09375 388.839844 1424.726562 C 387.503906 1425.359375 386.152344 1425.957031 384.789062 1426.523438 C 383.425781 1427.089844 382.046875 1427.621094 380.660156 1428.121094 C 379.269531 1428.617188 377.867188 1429.082031 376.453125 1429.511719 C 375.042969 1429.941406 373.617188 1430.335938 372.1875 1430.695312 C 370.753906 1431.054688 369.3125 1431.378906 367.867188 1431.671875 C 366.417969 1431.960938 364.964844 1432.210938 363.503906 1432.429688 C 362.042969 1432.648438 360.578125 1432.832031 359.105469 1432.976562 C 357.636719 1433.125 356.164062 1433.234375 354.691406 1433.308594 C 353.214844 1433.382812 351.738281 1433.417969 350.261719 1433.421875 Z M 1123.949219 1433.421875 C 1122.46875 1433.421875 1120.992188 1433.382812 1119.519531 1433.3125 C 1118.042969 1433.238281 1116.570312 1433.132812 1115.101562 1432.984375 C 1113.628906 1432.839844 1112.164062 1432.660156 1110.703125 1432.445312 C 1109.242188 1432.226562 1107.785156 1431.972656 1106.335938 1431.6875 C 1104.890625 1431.398438 1103.449219 1431.074219 1102.015625 1430.714844 C 1100.582031 1430.355469 1099.160156 1429.964844 1097.746094 1429.535156 C 1096.332031 1429.105469 1094.929688 1428.640625 1093.539062 1428.144531 C 1092.148438 1427.648438 1090.769531 1427.117188 1089.40625 1426.550781 C 1088.039062 1425.984375 1086.691406 1425.386719 1085.355469 1424.753906 C 1084.019531 1424.121094 1082.699219 1423.460938 1081.398438 1422.761719 C 1080.09375 1422.066406 1078.808594 1421.339844 1077.542969 1420.578125 C 1076.277344 1419.820312 1075.027344 1419.03125 1073.800781 1418.207031 C 1072.570312 1417.386719 1071.363281 1416.539062 1070.175781 1415.65625 C 1068.992188 1414.777344 1067.828125 1413.867188 1066.683594 1412.933594 C 1065.542969 1411.996094 1064.425781 1411.03125 1063.332031 1410.039062 C 1062.234375 1409.046875 1061.164062 1408.027344 1060.121094 1406.984375 C 1059.078125 1405.9375 1058.058594 1404.871094 1057.066406 1403.773438 C 1056.074219 1402.679688 1055.109375 1401.5625 1054.171875 1400.421875 C 1053.234375 1399.277344 1052.328125 1398.113281 1051.445312 1396.925781 C 1050.566406 1395.742188 1049.714844 1394.535156 1048.894531 1393.304688 C 1048.074219 1392.078125 1047.285156 1390.828125 1046.527344 1389.5625 C 1045.765625 1388.296875 1045.039062 1387.011719 1044.34375 1385.707031 C 1043.644531 1384.40625 1042.980469 1383.085938 1042.351562 1381.75 C 1041.71875 1380.414062 1041.121094 1379.066406 1040.554688 1377.699219 C 1039.988281 1376.335938 1039.457031 1374.957031 1038.960938 1373.566406 C 1038.460938 1372.175781 1038 1370.773438 1037.570312 1369.359375 C 1037.140625 1367.945312 1036.746094 1366.523438 1036.390625 1365.089844 C 1036.03125 1363.65625 1035.707031 1362.214844 1035.417969 1360.765625 C 1035.128906 1359.316406 1034.878906 1357.863281 1034.660156 1356.402344 C 1034.445312 1354.941406 1034.261719 1353.476562 1034.117188 1352.003906 C 1033.972656 1350.535156 1033.867188 1349.0625 1033.792969 1347.585938 C 1033.71875 1346.109375 1033.683594 1344.636719 1033.683594 1343.15625 C 1033.683594 1341.679688 1033.71875 1340.203125 1033.792969 1338.730469 C 1033.867188 1337.253906 1033.972656 1335.78125 1034.117188 1334.308594 C 1034.261719 1332.839844 1034.445312 1331.375 1034.660156 1329.914062 C 1034.878906 1328.453125 1035.128906 1326.996094 1035.417969 1325.546875 C 1035.707031 1324.097656 1036.03125 1322.660156 1036.390625 1321.226562 C 1036.75 1319.792969 1037.140625 1318.371094 1037.570312 1316.957031 C 1038 1315.542969 1038.460938 1314.140625 1038.960938 1312.75 C 1039.457031 1311.359375 1039.988281 1309.980469 1040.554688 1308.617188 C 1041.121094 1307.25 1041.71875 1305.902344 1042.351562 1304.566406 C 1042.980469 1303.230469 1043.644531 1301.910156 1044.34375 1300.609375 C 1045.039062 1299.304688 1045.765625 1298.019531 1046.527344 1296.753906 C 1047.285156 1295.484375 1048.074219 1294.238281 1048.894531 1293.011719 C 1049.714844 1291.78125 1050.566406 1290.574219 1051.445312 1289.386719 C 1052.328125 1288.203125 1053.234375 1287.039062 1054.171875 1285.894531 C 1055.109375 1284.753906 1056.074219 1283.636719 1057.066406 1282.539062 C 1058.058594 1281.445312 1059.078125 1280.375 1060.121094 1279.332031 C 1061.164062 1278.289062 1062.234375 1277.269531 1063.332031 1276.277344 C 1064.425781 1275.285156 1065.542969 1274.320312 1066.683594 1273.382812 C 1067.828125 1272.445312 1068.992188 1271.539062 1070.175781 1270.65625 C 1071.363281 1269.777344 1072.570312 1268.925781 1073.800781 1268.105469 C 1075.027344 1267.285156 1076.277344 1266.496094 1077.542969 1265.738281 C 1078.808594 1264.976562 1080.09375 1264.25 1081.398438 1263.554688 C 1082.699219 1262.855469 1084.019531 1262.191406 1085.355469 1261.5625 C 1086.691406 1260.929688 1088.039062 1260.332031 1089.40625 1259.765625 C 1090.769531 1259.199219 1092.148438 1258.667969 1093.539062 1258.171875 C 1094.929688 1257.671875 1096.332031 1257.210938 1097.746094 1256.78125 C 1099.160156 1256.351562 1100.582031 1255.957031 1102.015625 1255.597656 C 1103.449219 1255.242188 1104.890625 1254.917969 1106.335938 1254.628906 C 1107.785156 1254.339844 1109.242188 1254.089844 1110.703125 1253.871094 C 1112.164062 1253.65625 1113.628906 1253.472656 1115.101562 1253.328125 C 1116.570312 1253.183594 1118.042969 1253.074219 1119.519531 1253.003906 C 1120.992188 1252.929688 1122.46875 1252.894531 1123.949219 1252.894531 C 1125.425781 1252.894531 1126.902344 1252.929688 1128.375 1253.003906 C 1129.851562 1253.074219 1131.324219 1253.183594 1132.792969 1253.328125 C 1134.265625 1253.472656 1135.730469 1253.65625 1137.191406 1253.871094 C 1138.652344 1254.089844 1140.109375 1254.339844 1141.554688 1254.628906 C 1143.003906 1254.917969 1144.445312 1255.242188 1145.878906 1255.597656 C 1147.3125 1255.957031 1148.734375 1256.351562 1150.148438 1256.78125 C 1151.5625 1257.210938 1152.964844 1257.671875 1154.355469 1258.171875 C 1155.746094 1258.667969 1157.125 1259.199219 1158.488281 1259.765625 C 1159.855469 1260.332031 1161.203125 1260.929688 1162.539062 1261.5625 C 1163.875 1262.191406 1165.195312 1262.855469 1166.496094 1263.554688 C 1167.800781 1264.25 1169.085938 1264.976562 1170.351562 1265.738281 C 1171.617188 1266.496094 1172.867188 1267.285156 1174.09375 1268.105469 C 1175.324219 1268.925781 1176.53125 1269.777344 1177.71875 1270.65625 C 1178.902344 1271.539062 1180.066406 1272.445312 1181.210938 1273.382812 C 1182.351562 1274.320312 1183.46875 1275.285156 1184.5625 1276.277344 C 1185.660156 1277.269531 1186.726562 1278.289062 1187.773438 1279.332031 C 1188.816406 1280.375 1189.835938 1281.445312 1190.828125 1282.539062 C 1191.820312 1283.636719 1192.785156 1284.753906 1193.722656 1285.894531 C 1194.660156 1287.039062 1195.566406 1288.203125 1196.449219 1289.386719 C 1197.328125 1290.574219 1198.175781 1291.78125 1199 1293.011719 C 1199.820312 1294.238281 1200.609375 1295.484375 1201.367188 1296.753906 C 1202.128906 1298.019531 1202.855469 1299.304688 1203.550781 1300.609375 C 1204.25 1301.910156 1204.914062 1303.230469 1205.542969 1304.566406 C 1206.175781 1305.902344 1206.773438 1307.25 1207.339844 1308.617188 C 1207.90625 1309.980469 1208.4375 1311.359375 1208.933594 1312.75 C 1209.429688 1314.140625 1209.894531 1315.542969 1210.324219 1316.957031 C 1210.753906 1318.371094 1211.144531 1319.792969 1211.503906 1321.226562 C 1211.863281 1322.660156 1212.1875 1324.097656 1212.476562 1325.546875 C 1212.765625 1326.996094 1213.015625 1328.453125 1213.234375 1329.914062 C 1213.449219 1331.375 1213.632812 1332.839844 1213.777344 1334.308594 C 1213.921875 1335.78125 1214.027344 1337.253906 1214.101562 1338.730469 C 1214.175781 1340.203125 1214.210938 1341.679688 1214.210938 1343.15625 C 1214.207031 1344.632812 1214.171875 1346.109375 1214.097656 1347.585938 C 1214.023438 1349.058594 1213.914062 1350.53125 1213.765625 1352 C 1213.621094 1353.472656 1213.4375 1354.9375 1213.21875 1356.398438 C 1213.003906 1357.859375 1212.75 1359.3125 1212.460938 1360.761719 C 1212.171875 1362.207031 1211.84375 1363.648438 1211.484375 1365.082031 C 1211.125 1366.511719 1210.730469 1367.9375 1210.300781 1369.347656 C 1209.871094 1370.761719 1209.40625 1372.164062 1208.910156 1373.554688 C 1208.410156 1374.941406 1207.878906 1376.320312 1207.3125 1377.683594 C 1206.746094 1379.046875 1206.148438 1380.398438 1205.515625 1381.730469 C 1204.882812 1383.066406 1204.21875 1384.386719 1203.523438 1385.6875 C 1202.824219 1386.988281 1202.097656 1388.273438 1201.339844 1389.539062 C 1200.578125 1390.804688 1199.789062 1392.054688 1198.96875 1393.28125 C 1198.148438 1394.507812 1197.296875 1395.714844 1196.417969 1396.902344 C 1195.535156 1398.085938 1194.628906 1399.25 1193.691406 1400.394531 C 1192.753906 1401.535156 1191.789062 1402.652344 1190.796875 1403.746094 C 1189.804688 1404.839844 1188.789062 1405.910156 1187.742188 1406.953125 C 1186.699219 1408 1185.628906 1409.015625 1184.535156 1410.007812 C 1183.441406 1411 1182.324219 1411.964844 1181.183594 1412.902344 C 1180.042969 1413.839844 1178.878906 1414.746094 1177.691406 1415.625 C 1176.503906 1416.507812 1175.296875 1417.355469 1174.070312 1418.179688 C 1172.84375 1419 1171.597656 1419.789062 1170.328125 1420.546875 C 1169.0625 1421.308594 1167.777344 1422.035156 1166.476562 1422.734375 C 1165.175781 1423.429688 1163.855469 1424.09375 1162.523438 1424.726562 C 1161.1875 1425.359375 1159.839844 1425.957031 1158.472656 1426.523438 C 1157.109375 1427.089844 1155.734375 1427.621094 1154.34375 1428.121094 C 1152.953125 1428.617188 1151.550781 1429.082031 1150.136719 1429.511719 C 1148.726562 1429.941406 1147.300781 1430.335938 1145.871094 1430.695312 C 1144.4375 1431.054688 1142.996094 1431.378906 1141.550781 1431.671875 C 1140.101562 1431.960938 1138.648438 1432.210938 1137.1875 1432.429688 C 1135.726562 1432.648438 1134.261719 1432.832031 1132.792969 1432.976562 C 1131.320312 1433.125 1129.847656 1433.234375 1128.375 1433.308594 C 1126.898438 1433.382812 1125.425781 1433.417969 1123.949219 1433.421875 Z M 1446.316406 1304.472656 L 1260.382812 1304.472656 C 1259.339844 1300.792969 1258.148438 1297.15625 1256.8125 1293.570312 C 1255.476562 1289.984375 1253.996094 1286.460938 1252.371094 1282.992188 C 1250.75 1279.527344 1248.988281 1276.132812 1247.09375 1272.808594 C 1245.195312 1269.484375 1243.164062 1266.242188 1241.007812 1263.085938 C 1238.847656 1259.925781 1236.5625 1256.859375 1234.152344 1253.882812 C 1231.746094 1250.910156 1229.21875 1248.035156 1226.578125 1245.265625 C 1223.9375 1242.496094 1221.191406 1239.839844 1218.332031 1237.289062 C 1215.476562 1234.742188 1212.523438 1232.316406 1209.46875 1230.007812 C 1206.417969 1227.699219 1203.277344 1225.519531 1200.046875 1223.464844 C 1196.816406 1221.410156 1193.511719 1219.492188 1190.125 1217.703125 C 1186.742188 1215.917969 1183.289062 1214.273438 1179.769531 1212.765625 C 1176.253906 1211.257812 1172.679688 1209.898438 1169.050781 1208.679688 C 1165.421875 1207.460938 1161.75 1206.394531 1158.035156 1205.472656 C 1154.320312 1204.554688 1150.574219 1203.785156 1146.796875 1203.167969 C 1143.019531 1202.550781 1139.226562 1202.089844 1135.410156 1201.777344 C 1131.59375 1201.46875 1127.773438 1201.316406 1123.949219 1201.316406 C 1120.121094 1201.316406 1116.300781 1201.46875 1112.484375 1201.777344 C 1108.667969 1202.089844 1104.875 1202.550781 1101.097656 1203.167969 C 1097.320312 1203.785156 1093.574219 1204.554688 1089.859375 1205.472656 C 1086.144531 1206.394531 1082.472656 1207.460938 1078.84375 1208.679688 C 1075.214844 1209.898438 1071.640625 1211.257812 1068.125 1212.765625 C 1064.605469 1214.273438 1061.152344 1215.917969 1057.769531 1217.703125 C 1054.382812 1219.492188 1051.078125 1221.410156 1047.847656 1223.464844 C 1044.617188 1225.519531 1041.476562 1227.699219 1038.425781 1230.007812 C 1035.371094 1232.316406 1032.417969 1234.742188 1029.5625 1237.289062 C 1026.703125 1239.839844 1023.957031 1242.496094 1021.316406 1245.265625 C 1018.675781 1248.035156 1016.148438 1250.910156 1013.742188 1253.882812 C 1011.332031 1256.859375 1009.050781 1259.925781 1006.890625 1263.085938 C 1004.730469 1266.242188 1002.699219 1269.484375 1000.800781 1272.808594 C 998.90625 1276.132812 997.144531 1279.527344 995.523438 1282.992188 C 993.898438 1286.460938 992.417969 1289.984375 991.082031 1293.570312 C 989.746094 1297.15625 988.554688 1300.792969 987.511719 1304.472656 L 486.699219 1304.472656 C 485.65625 1300.792969 484.464844 1297.15625 483.128906 1293.570312 C 481.792969 1289.984375 480.3125 1286.460938 478.6875 1282.992188 C 477.066406 1279.527344 475.304688 1276.132812 473.40625 1272.808594 C 471.511719 1269.484375 469.480469 1266.242188 467.320312 1263.085938 C 465.160156 1259.925781 462.878906 1256.859375 460.46875 1253.882812 C 458.058594 1250.910156 455.535156 1248.035156 452.894531 1245.265625 C 450.253906 1242.496094 447.503906 1239.839844 444.648438 1237.289062 C 441.792969 1234.742188 438.839844 1232.316406 435.785156 1230.007812 C 432.734375 1227.699219 429.59375 1225.519531 426.363281 1223.464844 C 423.132812 1221.410156 419.824219 1219.492188 416.441406 1217.703125 C 413.054688 1215.917969 409.605469 1214.273438 406.085938 1212.765625 C 402.570312 1211.257812 398.996094 1209.898438 395.367188 1208.679688 C 391.738281 1207.460938 388.066406 1206.394531 384.351562 1205.472656 C 380.636719 1204.554688 376.890625 1203.785156 373.113281 1203.167969 C 369.335938 1202.550781 365.539062 1202.089844 361.726562 1201.777344 C 357.910156 1201.46875 354.089844 1201.316406 350.261719 1201.316406 C 346.4375 1201.316406 342.613281 1201.46875 338.800781 1201.777344 C 334.984375 1202.089844 331.191406 1202.550781 327.414062 1203.167969 C 323.636719 1203.785156 319.890625 1204.554688 316.175781 1205.472656 C 312.460938 1206.394531 308.789062 1207.460938 305.160156 1208.679688 C 301.53125 1209.898438 297.957031 1211.257812 294.441406 1212.765625 C 290.921875 1214.273438 287.46875 1215.917969 284.085938 1217.703125 C 280.699219 1219.492188 277.394531 1221.410156 274.164062 1223.464844 C 270.933594 1225.519531 267.792969 1227.699219 264.742188 1230.007812 C 261.6875 1232.316406 258.734375 1234.742188 255.878906 1237.289062 C 253.019531 1239.839844 250.273438 1242.496094 247.632812 1245.265625 C 244.992188 1248.035156 242.464844 1250.910156 240.058594 1253.882812 C 237.648438 1256.859375 235.363281 1259.925781 233.203125 1263.085938 C 231.042969 1266.242188 229.015625 1269.484375 227.117188 1272.808594 C 225.21875 1276.132812 223.460938 1279.527344 221.835938 1282.992188 C 220.214844 1286.460938 218.734375 1289.984375 217.398438 1293.570312 C 216.058594 1297.15625 214.871094 1300.792969 213.828125 1304.472656 L 53.683594 1304.472656 L 53.683594 1098.15625 L 621.050781 1098.15625 C 621.898438 1098.15625 622.738281 1098.117188 623.582031 1098.035156 C 624.421875 1097.949219 625.253906 1097.828125 626.082031 1097.664062 C 626.914062 1097.496094 627.730469 1097.292969 628.539062 1097.046875 C 629.347656 1096.800781 630.140625 1096.519531 630.921875 1096.195312 C 631.703125 1095.871094 632.464844 1095.511719 633.210938 1095.113281 C 633.953125 1094.714844 634.679688 1094.28125 635.378906 1093.8125 C 636.082031 1093.34375 636.761719 1092.839844 637.414062 1092.304688 C 638.066406 1091.769531 638.691406 1091.203125 639.289062 1090.605469 C 639.886719 1090.007812 640.453125 1089.382812 640.988281 1088.730469 C 641.523438 1088.074219 642.027344 1087.398438 642.496094 1086.695312 C 642.964844 1085.992188 643.398438 1085.269531 643.796875 1084.523438 C 644.195312 1083.78125 644.554688 1083.019531 644.878906 1082.238281 C 645.203125 1081.457031 645.484375 1080.664062 645.730469 1079.855469 C 645.976562 1079.046875 646.183594 1078.226562 646.347656 1077.398438 C 646.511719 1076.570312 646.636719 1075.738281 646.71875 1074.894531 C 646.800781 1074.054688 646.84375 1073.210938 646.84375 1072.367188 L 646.84375 840.261719 L 994.46875 840.261719 L 1167.292969 1087.160156 C 1168.480469 1088.855469 1169.855469 1090.390625 1171.414062 1091.757812 C 1172.972656 1093.125 1174.671875 1094.285156 1176.511719 1095.242188 C 1178.351562 1096.199219 1180.277344 1096.925781 1182.289062 1097.417969 C 1184.304688 1097.910156 1186.347656 1098.15625 1188.421875 1098.15625 L 1368.945312 1098.15625 C 1370.214844 1098.160156 1371.476562 1098.191406 1372.742188 1098.253906 C 1374.007812 1098.320312 1375.269531 1098.414062 1376.527344 1098.539062 C 1377.789062 1098.664062 1379.042969 1098.820312 1380.296875 1099.007812 C 1381.546875 1099.191406 1382.792969 1099.410156 1384.035156 1099.660156 C 1385.277344 1099.90625 1386.511719 1100.183594 1387.738281 1100.492188 C 1388.964844 1100.800781 1390.183594 1101.140625 1391.394531 1101.507812 C 1392.605469 1101.878906 1393.808594 1102.273438 1395 1102.703125 C 1396.191406 1103.128906 1397.371094 1103.585938 1398.542969 1104.070312 C 1399.710938 1104.554688 1400.867188 1105.070312 1402.011719 1105.609375 C 1403.15625 1106.152344 1404.285156 1106.722656 1405.402344 1107.320312 C 1406.515625 1107.914062 1407.617188 1108.539062 1408.703125 1109.191406 C 1409.789062 1109.84375 1410.859375 1110.519531 1411.910156 1111.222656 C 1412.960938 1111.925781 1413.996094 1112.65625 1415.011719 1113.410156 C 1416.03125 1114.164062 1417.027344 1114.941406 1418.003906 1115.746094 C 1418.984375 1116.550781 1419.941406 1117.375 1420.878906 1118.226562 C 1421.816406 1119.078125 1422.734375 1119.949219 1423.628906 1120.84375 C 1424.523438 1121.738281 1425.398438 1122.65625 1426.246094 1123.59375 C 1427.097656 1124.53125 1427.925781 1125.488281 1428.726562 1126.46875 C 1429.53125 1127.445312 1430.308594 1128.441406 1431.0625 1129.460938 C 1431.816406 1130.476562 1432.546875 1131.511719 1433.25 1132.5625 C 1433.953125 1133.613281 1434.628906 1134.683594 1435.28125 1135.769531 C 1435.933594 1136.855469 1436.558594 1137.957031 1437.15625 1139.070312 C 1437.75 1140.1875 1438.320312 1141.316406 1438.863281 1142.460938 C 1439.40625 1143.605469 1439.917969 1144.761719 1440.402344 1145.933594 C 1440.886719 1147.101562 1441.34375 1148.28125 1441.769531 1149.472656 C 1442.199219 1150.664062 1442.597656 1151.867188 1442.964844 1153.078125 C 1443.332031 1154.289062 1443.671875 1155.507812 1443.980469 1156.734375 C 1444.289062 1157.960938 1444.566406 1159.195312 1444.816406 1160.4375 C 1445.0625 1161.679688 1445.28125 1162.925781 1445.46875 1164.179688 C 1445.652344 1165.429688 1445.808594 1166.6875 1445.933594 1167.945312 C 1446.058594 1169.203125 1446.15625 1170.46875 1446.21875 1171.730469 C 1446.28125 1172.996094 1446.3125 1174.261719 1446.316406 1175.527344 Z M 1446.316406 1304.472656 " fill-opacity="1" fill-rule="nonzero"/><path fill="#c62828" d="M 737.105469 685.527344 C 739.816406 685.535156 742.519531 685.386719 745.214844 685.078125 C 747.910156 684.769531 750.574219 684.300781 753.214844 683.679688 C 755.855469 683.054688 758.445312 682.277344 760.992188 681.347656 C 763.542969 680.417969 766.023438 679.339844 768.445312 678.117188 C 770.867188 676.894531 773.207031 675.53125 775.464844 674.03125 C 777.722656 672.53125 779.886719 670.90625 781.953125 669.148438 C 784.023438 667.394531 785.980469 665.523438 787.824219 663.539062 C 789.671875 661.550781 791.394531 659.464844 792.996094 657.273438 C 843.488281 588.964844 982.105469 368.351562 982.105469 261.839844 C 982.105469 125.734375 872.195312 15 737.105469 15 C 602.011719 15 492.105469 125.734375 492.105469 261.839844 C 492.105469 368.351562 630.722656 588.964844 681.214844 657.273438 C 682.816406 659.464844 684.539062 661.550781 686.386719 663.539062 C 688.230469 665.523438 690.1875 667.394531 692.253906 669.148438 C 694.324219 670.90625 696.484375 672.53125 698.746094 674.03125 C 701.003906 675.53125 703.34375 676.894531 705.765625 678.117188 C 708.183594 679.339844 710.667969 680.417969 713.214844 681.347656 C 715.765625 682.277344 718.355469 683.054688 720.996094 683.679688 C 723.636719 684.300781 726.300781 684.769531 728.996094 685.078125 C 731.691406 685.386719 734.394531 685.535156 737.105469 685.527344 Z M 737.105469 66.578125 C 843.757812 66.578125 930.527344 154.171875 930.527344 261.839844 C 930.527344 342.332031 813.988281 542.101562 751.515625 626.613281 C 751.101562 627.179688 750.660156 627.71875 750.183594 628.234375 C 749.707031 628.746094 749.203125 629.230469 748.671875 629.683594 C 748.140625 630.136719 747.582031 630.558594 747 630.949219 C 746.417969 631.335938 745.8125 631.6875 745.191406 632.007812 C 744.566406 632.324219 743.925781 632.605469 743.269531 632.847656 C 742.613281 633.085938 741.945312 633.289062 741.261719 633.453125 C 740.582031 633.617188 739.894531 633.738281 739.199219 633.820312 C 738.503906 633.902344 737.808594 633.945312 737.105469 633.945312 C 736.40625 633.945312 735.710938 633.902344 735.015625 633.820312 C 734.320312 633.738281 733.632812 633.617188 732.949219 633.453125 C 732.269531 633.289062 731.601562 633.085938 730.945312 632.847656 C 730.289062 632.605469 729.648438 632.324219 729.023438 632.007812 C 728.398438 631.6875 727.796875 631.335938 727.214844 630.949219 C 726.632812 630.558594 726.074219 630.136719 725.542969 629.683594 C 725.011719 629.230469 724.503906 628.746094 724.03125 628.234375 C 723.554688 627.71875 723.109375 627.179688 722.699219 626.613281 C 660.21875 542.101562 543.683594 342.335938 543.683594 261.839844 C 543.683594 154.171875 630.453125 66.578125 737.105469 66.578125 Z M 737.105469 66.578125 " fill-opacity="1" fill-rule="nonzero"/><path fill="#c62828" d="M 888.15625 260 C 888.15625 257.679688 888.101562 255.359375 887.988281 253.039062 C 887.871094 250.722656 887.703125 248.40625 887.472656 246.097656 C 887.246094 243.785156 886.960938 241.484375 886.621094 239.1875 C 886.28125 236.890625 885.882812 234.605469 885.433594 232.328125 C 884.980469 230.050781 884.46875 227.785156 883.90625 225.535156 C 883.34375 223.285156 882.722656 221.046875 882.050781 218.824219 C 881.375 216.605469 880.648438 214.402344 879.867188 212.214844 C 879.082031 210.027344 878.25 207.863281 877.359375 205.71875 C 876.472656 203.574219 875.53125 201.453125 874.539062 199.355469 C 873.546875 197.257812 872.503906 195.183594 871.410156 193.136719 C 870.316406 191.089844 869.171875 189.070312 867.976562 187.078125 C 866.785156 185.085938 865.542969 183.125 864.253906 181.195312 C 862.964844 179.265625 861.625 177.371094 860.242188 175.503906 C 858.859375 173.640625 857.433594 171.8125 855.960938 170.015625 C 854.488281 168.222656 852.972656 166.464844 851.414062 164.746094 C 849.855469 163.023438 848.253906 161.34375 846.613281 159.703125 C 844.972656 158.0625 843.289062 156.460938 841.570312 154.902344 C 839.851562 153.34375 838.09375 151.828125 836.300781 150.355469 C 834.503906 148.882812 832.675781 147.453125 830.8125 146.070312 C 828.945312 144.6875 827.046875 143.351562 825.117188 142.0625 C 823.1875 140.773438 821.226562 139.53125 819.238281 138.339844 C 817.246094 137.144531 815.226562 136 813.179688 134.90625 C 811.132812 133.8125 809.058594 132.769531 806.960938 131.777344 C 804.863281 130.785156 802.742188 129.84375 800.597656 128.953125 C 798.453125 128.066406 796.285156 127.230469 794.101562 126.449219 C 791.914062 125.667969 789.710938 124.9375 787.488281 124.265625 C 785.269531 123.589844 783.03125 122.972656 780.78125 122.410156 C 778.527344 121.84375 776.265625 121.335938 773.988281 120.882812 C 771.710938 120.429688 769.425781 120.035156 767.128906 119.691406 C 764.832031 119.351562 762.527344 119.070312 760.21875 118.839844 C 757.90625 118.613281 755.59375 118.441406 753.273438 118.328125 C 750.957031 118.214844 748.636719 118.15625 746.316406 118.15625 C 743.992188 118.15625 741.675781 118.214844 739.355469 118.328125 C 737.035156 118.441406 734.722656 118.613281 732.414062 118.839844 C 730.101562 119.070312 727.800781 119.351562 725.503906 119.691406 C 723.207031 120.035156 720.921875 120.429688 718.644531 120.882812 C 716.367188 121.335938 714.101562 121.84375 711.851562 122.410156 C 709.597656 122.972656 707.363281 123.589844 705.140625 124.265625 C 702.917969 124.9375 700.714844 125.667969 698.53125 126.449219 C 696.34375 127.230469 694.179688 128.066406 692.035156 128.953125 C 689.890625 129.84375 687.769531 130.785156 685.667969 131.777344 C 683.570312 132.769531 681.5 133.8125 679.453125 134.90625 C 677.402344 136 675.386719 137.144531 673.394531 138.339844 C 671.402344 139.53125 669.441406 140.773438 667.511719 142.0625 C 665.582031 143.351562 663.683594 144.6875 661.820312 146.070312 C 659.957031 147.453125 658.125 148.882812 656.332031 150.355469 C 654.539062 151.828125 652.78125 153.34375 651.058594 154.902344 C 649.339844 156.460938 647.660156 158.0625 646.019531 159.703125 C 644.375 161.34375 642.777344 163.023438 641.21875 164.746094 C 639.660156 166.464844 638.140625 168.222656 636.667969 170.015625 C 635.195312 171.8125 633.769531 173.640625 632.386719 175.503906 C 631.003906 177.371094 629.667969 179.265625 628.378906 181.195312 C 627.089844 183.125 625.847656 185.085938 624.652344 187.078125 C 623.460938 189.070312 622.316406 191.089844 621.222656 193.136719 C 620.128906 195.183594 619.085938 197.257812 618.089844 199.355469 C 617.097656 201.453125 616.160156 203.574219 615.269531 205.71875 C 614.382812 207.863281 613.546875 210.027344 612.765625 212.214844 C 611.984375 214.402344 611.253906 216.605469 610.582031 218.824219 C 609.90625 221.046875 609.289062 223.285156 608.722656 225.535156 C 608.160156 227.785156 607.652344 230.050781 607.199219 232.328125 C 606.746094 234.605469 606.347656 236.890625 606.007812 239.1875 C 605.667969 241.484375 605.382812 243.785156 605.15625 246.097656 C 604.929688 248.40625 604.757812 250.722656 604.644531 253.039062 C 604.53125 255.359375 604.472656 257.679688 604.472656 260 C 604.472656 262.320312 604.53125 264.640625 604.644531 266.960938 C 604.757812 269.277344 604.929688 271.59375 605.15625 273.902344 C 605.382812 276.214844 605.667969 278.515625 606.007812 280.8125 C 606.347656 283.109375 606.746094 285.394531 607.199219 287.671875 C 607.652344 289.949219 608.160156 292.214844 608.722656 294.464844 C 609.289062 296.714844 609.90625 298.953125 610.582031 301.175781 C 611.253906 303.394531 611.984375 305.597656 612.765625 307.785156 C 613.546875 309.972656 614.382812 312.136719 615.269531 314.28125 C 616.160156 316.425781 617.097656 318.546875 618.089844 320.644531 C 619.085938 322.742188 620.128906 324.816406 621.222656 326.863281 C 622.316406 328.910156 623.460938 330.929688 624.652344 332.921875 C 625.847656 334.914062 627.089844 336.875 628.378906 338.804688 C 629.667969 340.734375 631.003906 342.628906 632.386719 344.496094 C 633.769531 346.359375 635.195312 348.1875 636.667969 349.984375 C 638.140625 351.777344 639.660156 353.535156 641.21875 355.253906 C 642.777344 356.976562 644.375 358.65625 646.019531 360.296875 C 647.660156 361.9375 649.339844 363.539062 651.058594 365.097656 C 652.78125 366.65625 654.539062 368.171875 656.332031 369.644531 C 658.125 371.117188 659.957031 372.546875 661.820312 373.929688 C 663.683594 375.3125 665.582031 376.648438 667.511719 377.9375 C 669.441406 379.226562 671.402344 380.46875 673.394531 381.660156 C 675.386719 382.855469 677.402344 384 679.453125 385.09375 C 681.5 386.1875 683.570312 387.230469 685.667969 388.222656 C 687.769531 389.214844 689.890625 390.15625 692.035156 391.042969 C 694.179688 391.933594 696.34375 392.769531 698.53125 393.550781 C 700.714844 394.332031 702.917969 395.058594 705.140625 395.734375 C 707.363281 396.40625 709.597656 397.027344 711.851562 397.589844 C 714.101562 398.15625 716.367188 398.664062 718.644531 399.117188 C 720.921875 399.570312 723.207031 399.964844 725.503906 400.308594 C 727.800781 400.648438 730.101562 400.929688 732.414062 401.160156 C 734.722656 401.386719 737.035156 401.558594 739.355469 401.671875 C 741.675781 401.785156 743.992188 401.84375 746.316406 401.84375 C 748.636719 401.839844 750.957031 401.78125 753.273438 401.664062 C 755.589844 401.546875 757.902344 401.375 760.214844 401.144531 C 762.523438 400.914062 764.824219 400.628906 767.121094 400.285156 C 769.414062 399.941406 771.699219 399.542969 773.976562 399.089844 C 776.25 398.636719 778.515625 398.125 780.765625 397.558594 C 783.015625 396.992188 785.25 396.375 787.472656 395.699219 C 789.691406 395.023438 791.894531 394.292969 794.078125 393.511719 C 796.261719 392.726562 798.425781 391.890625 800.570312 391 C 802.714844 390.113281 804.835938 389.171875 806.933594 388.179688 C 809.03125 387.183594 811.101562 386.140625 813.148438 385.046875 C 815.195312 383.953125 817.210938 382.808594 819.203125 381.613281 C 821.191406 380.417969 823.152344 379.179688 825.082031 377.886719 C 827.007812 376.597656 828.90625 375.261719 830.769531 373.878906 C 832.632812 372.496094 834.460938 371.070312 836.253906 369.597656 C 838.050781 368.125 839.804688 366.609375 841.523438 365.050781 C 843.246094 363.492188 844.925781 361.890625 846.566406 360.25 C 848.207031 358.609375 849.804688 356.929688 851.363281 355.210938 C 852.921875 353.492188 854.4375 351.734375 855.910156 349.941406 C 857.382812 348.148438 858.8125 346.316406 860.195312 344.453125 C 861.578125 342.589844 862.914062 340.695312 864.203125 338.765625 C 865.492188 336.835938 866.734375 334.875 867.929688 332.886719 C 869.121094 330.894531 870.265625 328.878906 871.359375 326.832031 C 872.457031 324.785156 873.5 322.714844 874.492188 320.617188 C 875.488281 318.519531 876.429688 316.398438 877.316406 314.253906 C 878.207031 312.113281 879.042969 309.949219 879.824219 307.761719 C 880.609375 305.578125 881.339844 303.375 882.011719 301.15625 C 882.6875 298.9375 883.308594 296.699219 883.875 294.449219 C 884.441406 292.199219 884.949219 289.9375 885.40625 287.660156 C 885.859375 285.386719 886.257812 283.101562 886.601562 280.804688 C 886.945312 278.507812 887.230469 276.207031 887.460938 273.898438 C 887.691406 271.589844 887.863281 269.273438 887.980469 266.957031 C 888.09375 264.640625 888.15625 262.320312 888.15625 260 Z M 656.050781 260 C 656.050781 258.523438 656.089844 257.046875 656.160156 255.570312 C 656.234375 254.09375 656.34375 252.621094 656.488281 251.152344 C 656.632812 249.683594 656.8125 248.21875 657.027344 246.753906 C 657.246094 245.292969 657.5 243.839844 657.785156 242.390625 C 658.074219 240.941406 658.398438 239.5 658.757812 238.066406 C 659.117188 236.636719 659.511719 235.210938 659.9375 233.796875 C 660.367188 232.382812 660.832031 230.980469 661.328125 229.589844 C 661.824219 228.199219 662.359375 226.824219 662.921875 225.457031 C 663.488281 224.09375 664.085938 222.742188 664.71875 221.40625 C 665.351562 220.070312 666.015625 218.753906 666.710938 217.449219 C 667.40625 216.148438 668.132812 214.863281 668.894531 213.59375 C 669.652344 212.328125 670.441406 211.082031 671.265625 209.851562 C 672.085938 208.625 672.933594 207.417969 673.816406 206.230469 C 674.695312 205.042969 675.605469 203.878906 676.539062 202.738281 C 677.476562 201.597656 678.441406 200.476562 679.433594 199.382812 C 680.425781 198.289062 681.445312 197.21875 682.488281 196.175781 C 683.535156 195.128906 684.605469 194.113281 685.699219 193.121094 C 686.792969 192.128906 687.910156 191.164062 689.054688 190.226562 C 690.195312 189.289062 691.359375 188.378906 692.546875 187.5 C 693.730469 186.621094 694.9375 185.769531 696.167969 184.949219 C 697.394531 184.128906 698.644531 183.339844 699.910156 182.578125 C 701.175781 181.820312 702.460938 181.089844 703.765625 180.394531 C 705.066406 179.699219 706.386719 179.035156 707.722656 178.402344 C 709.058594 177.769531 710.40625 177.171875 711.773438 176.609375 C 713.136719 176.042969 714.515625 175.511719 715.90625 175.011719 C 717.296875 174.515625 718.699219 174.050781 720.113281 173.625 C 721.527344 173.195312 722.949219 172.800781 724.382812 172.441406 C 725.816406 172.082031 727.257812 171.757812 728.707031 171.472656 C 730.15625 171.183594 731.609375 170.929688 733.070312 170.714844 C 734.53125 170.496094 735.996094 170.316406 737.46875 170.171875 C 738.9375 170.027344 740.410156 169.917969 741.886719 169.84375 C 743.363281 169.773438 744.839844 169.738281 746.316406 169.738281 C 747.792969 169.738281 749.269531 169.773438 750.746094 169.84375 C 752.21875 169.917969 753.691406 170.027344 755.164062 170.171875 C 756.632812 170.316406 758.097656 170.496094 759.558594 170.714844 C 761.019531 170.929688 762.476562 171.183594 763.925781 171.472656 C 765.375 171.757812 766.816406 172.082031 768.246094 172.441406 C 769.679688 172.800781 771.105469 173.195312 772.515625 173.625 C 773.929688 174.050781 775.332031 174.515625 776.722656 175.011719 C 778.113281 175.511719 779.492188 176.042969 780.855469 176.609375 C 782.222656 177.171875 783.574219 177.769531 784.90625 178.402344 C 786.242188 179.035156 787.5625 179.699219 788.863281 180.394531 C 790.167969 181.089844 791.453125 181.820312 792.71875 182.578125 C 793.988281 183.339844 795.234375 184.128906 796.460938 184.949219 C 797.691406 185.769531 798.898438 186.621094 800.085938 187.5 C 801.269531 188.378906 802.4375 189.289062 803.578125 190.226562 C 804.71875 191.164062 805.835938 192.128906 806.933594 193.121094 C 808.027344 194.113281 809.097656 195.128906 810.140625 196.175781 C 811.183594 197.21875 812.203125 198.289062 813.195312 199.382812 C 814.1875 200.476562 815.152344 201.597656 816.089844 202.738281 C 817.027344 203.878906 817.933594 205.042969 818.816406 206.230469 C 819.695312 207.417969 820.546875 208.625 821.367188 209.851562 C 822.1875 211.082031 822.976562 212.328125 823.738281 213.59375 C 824.496094 214.863281 825.222656 216.148438 825.921875 217.449219 C 826.617188 218.753906 827.28125 220.070312 827.910156 221.40625 C 828.542969 222.742188 829.140625 224.09375 829.707031 225.457031 C 830.273438 226.824219 830.804688 228.199219 831.300781 229.589844 C 831.800781 230.980469 832.261719 232.382812 832.691406 233.796875 C 833.121094 235.210938 833.515625 236.636719 833.875 238.066406 C 834.230469 239.5 834.554688 240.941406 834.84375 242.390625 C 835.132812 243.839844 835.382812 245.292969 835.601562 246.753906 C 835.816406 248.21875 836 249.683594 836.144531 251.152344 C 836.289062 252.621094 836.398438 254.09375 836.46875 255.570312 C 836.542969 257.046875 836.578125 258.523438 836.578125 260 C 836.578125 261.476562 836.542969 262.953125 836.46875 264.429688 C 836.398438 265.90625 836.289062 267.378906 836.144531 268.847656 C 836 270.316406 835.816406 271.78125 835.601562 273.246094 C 835.382812 274.707031 835.132812 276.160156 834.84375 277.609375 C 834.554688 279.058594 834.230469 280.5 833.875 281.933594 C 833.515625 283.363281 833.121094 284.789062 832.691406 286.203125 C 832.261719 287.617188 831.800781 289.019531 831.300781 290.410156 C 830.804688 291.800781 830.273438 293.175781 829.707031 294.542969 C 829.140625 295.90625 828.542969 297.257812 827.910156 298.59375 C 827.28125 299.929688 826.617188 301.246094 825.921875 302.550781 C 825.222656 303.851562 824.496094 305.136719 823.738281 306.40625 C 822.976562 307.671875 822.1875 308.917969 821.367188 310.148438 C 820.546875 311.375 819.695312 312.582031 818.816406 313.769531 C 817.933594 314.957031 817.027344 316.121094 816.089844 317.261719 C 815.152344 318.402344 814.1875 319.523438 813.195312 320.617188 C 812.203125 321.710938 811.183594 322.78125 810.140625 323.824219 C 809.097656 324.871094 808.027344 325.886719 806.933594 326.878906 C 805.835938 327.871094 804.71875 328.835938 803.578125 329.773438 C 802.4375 330.710938 801.269531 331.621094 800.085938 332.5 C 798.898438 333.378906 797.691406 334.230469 796.460938 335.050781 C 795.234375 335.871094 793.988281 336.660156 792.71875 337.421875 C 791.453125 338.179688 790.167969 338.910156 788.863281 339.605469 C 787.5625 340.300781 786.242188 340.964844 784.90625 341.597656 C 783.574219 342.226562 782.222656 342.828125 780.855469 343.390625 C 779.492188 343.957031 778.113281 344.488281 776.722656 344.988281 C 775.332031 345.484375 773.929688 345.949219 772.515625 346.375 C 771.105469 346.804688 769.679688 347.199219 768.246094 347.558594 C 766.816406 347.917969 765.375 348.242188 763.925781 348.527344 C 762.476562 348.816406 761.019531 349.070312 759.558594 349.285156 C 758.097656 349.503906 756.632812 349.683594 755.164062 349.828125 C 753.691406 349.972656 752.21875 350.082031 750.746094 350.15625 C 749.269531 350.226562 747.792969 350.261719 746.316406 350.261719 C 744.839844 350.261719 743.363281 350.222656 741.886719 350.148438 C 740.414062 350.074219 738.941406 349.964844 737.472656 349.820312 C 736 349.671875 734.535156 349.492188 733.074219 349.273438 C 731.613281 349.054688 730.160156 348.800781 728.710938 348.511719 C 727.265625 348.222656 725.824219 347.898438 724.390625 347.539062 C 722.960938 347.179688 721.539062 346.785156 720.125 346.355469 C 718.710938 345.925781 717.308594 345.460938 715.917969 344.960938 C 714.53125 344.464844 713.152344 343.929688 711.789062 343.367188 C 710.425781 342.800781 709.074219 342.199219 707.742188 341.570312 C 706.40625 340.9375 705.085938 340.273438 703.785156 339.574219 C 702.484375 338.878906 701.199219 338.152344 699.933594 337.390625 C 698.664062 336.632812 697.417969 335.839844 696.191406 335.019531 C 694.964844 334.199219 693.757812 333.347656 692.570312 332.46875 C 691.382812 331.589844 690.222656 330.679688 689.078125 329.742188 C 687.9375 328.808594 686.820312 327.84375 685.726562 326.851562 C 684.632812 325.859375 683.5625 324.839844 682.519531 323.796875 C 681.472656 322.753906 680.457031 321.683594 679.464844 320.589844 C 678.472656 319.496094 677.507812 318.375 676.570312 317.234375 C 675.632812 316.09375 674.726562 314.929688 673.847656 313.746094 C 672.964844 312.558594 672.117188 311.351562 671.292969 310.125 C 670.472656 308.894531 669.683594 307.648438 668.925781 306.382812 C 668.164062 305.117188 667.4375 303.832031 666.738281 302.53125 C 666.042969 301.226562 665.378906 299.910156 664.746094 298.574219 C 664.113281 297.238281 663.515625 295.890625 662.949219 294.527344 C 662.382812 293.164062 661.851562 291.785156 661.351562 290.394531 C 660.855469 289.003906 660.390625 287.605469 659.960938 286.191406 C 659.53125 284.777344 659.136719 283.355469 658.777344 281.921875 C 658.417969 280.492188 658.09375 279.050781 657.804688 277.601562 C 657.515625 276.15625 657.261719 274.699219 657.042969 273.238281 C 656.824219 271.777344 656.640625 270.3125 656.496094 268.84375 C 656.347656 267.375 656.238281 265.902344 656.164062 264.425781 C 656.089844 262.953125 656.054688 261.476562 656.050781 260 Z M 656.050781 260 " fill-opacity="1" fill-rule="nonzero"/><path fill="#c62828" d="M 977.773438 903.328125 C 976.59375 901.5625 975.222656 899.964844 973.648438 898.539062 C 972.078125 897.109375 970.355469 895.898438 968.484375 894.894531 C 966.613281 893.894531 964.648438 893.132812 962.589844 892.617188 C 960.53125 892.101562 958.4375 891.84375 956.316406 891.84375 L 724.210938 891.84375 C 723.367188 891.84375 722.523438 891.882812 721.683594 891.964844 C 720.84375 892.050781 720.007812 892.171875 719.179688 892.335938 C 718.351562 892.503906 717.53125 892.707031 716.722656 892.953125 C 715.914062 893.199219 715.121094 893.480469 714.339844 893.804688 C 713.5625 894.128906 712.796875 894.488281 712.054688 894.886719 C 711.308594 895.285156 710.585938 895.71875 709.882812 896.1875 C 709.179688 896.65625 708.503906 897.160156 707.851562 897.695312 C 707.195312 898.230469 706.570312 898.796875 705.972656 899.394531 C 705.378906 899.992188 704.8125 900.617188 704.273438 901.269531 C 703.738281 901.921875 703.238281 902.601562 702.765625 903.304688 C 702.296875 904.003906 701.863281 904.730469 701.464844 905.472656 C 701.066406 906.21875 700.707031 906.980469 700.382812 907.761719 C 700.0625 908.542969 699.777344 909.335938 699.53125 910.144531 C 699.285156 910.953125 699.082031 911.773438 698.917969 912.601562 C 698.75 913.429688 698.628906 914.261719 698.546875 915.105469 C 698.460938 915.945312 698.421875 916.785156 698.421875 917.632812 L 698.421875 1072.367188 C 698.421875 1073.210938 698.460938 1074.054688 698.546875 1074.894531 C 698.628906 1075.738281 698.75 1076.570312 698.917969 1077.398438 C 699.082031 1078.226562 699.285156 1079.046875 699.53125 1079.855469 C 699.777344 1080.664062 700.0625 1081.457031 700.382812 1082.238281 C 700.707031 1083.019531 701.066406 1083.78125 701.464844 1084.523438 C 701.863281 1085.269531 702.296875 1085.992188 702.765625 1086.695312 C 703.238281 1087.398438 703.738281 1088.074219 704.273438 1088.730469 C 704.8125 1089.382812 705.378906 1090.007812 705.972656 1090.605469 C 706.570312 1091.203125 707.195312 1091.769531 707.851562 1092.304688 C 708.503906 1092.839844 709.179688 1093.34375 709.882812 1093.8125 C 710.585938 1094.28125 711.308594 1094.714844 712.054688 1095.113281 C 712.796875 1095.511719 713.5625 1095.871094 714.339844 1096.195312 C 715.121094 1096.519531 715.914062 1096.800781 716.722656 1097.046875 C 717.53125 1097.292969 718.351562 1097.496094 719.179688 1097.664062 C 720.007812 1097.828125 720.84375 1097.949219 721.683594 1098.035156 C 722.523438 1098.117188 723.367188 1098.15625 724.210938 1098.15625 L 1059.472656 1098.15625 C 1060.636719 1098.15625 1061.792969 1098.078125 1062.941406 1097.921875 C 1064.09375 1097.765625 1065.230469 1097.535156 1066.347656 1097.222656 C 1067.46875 1096.914062 1068.5625 1096.53125 1069.628906 1096.074219 C 1070.695312 1095.617188 1071.726562 1095.089844 1072.726562 1094.492188 C 1073.722656 1093.894531 1074.671875 1093.234375 1075.578125 1092.507812 C 1076.488281 1091.78125 1077.339844 1091 1078.144531 1090.15625 C 1078.945312 1089.316406 1079.683594 1088.425781 1080.367188 1087.484375 C 1081.046875 1086.542969 1081.660156 1085.5625 1082.210938 1084.539062 C 1082.757812 1083.511719 1083.234375 1082.457031 1083.640625 1081.367188 C 1084.042969 1080.28125 1084.375 1079.167969 1084.628906 1078.035156 C 1084.886719 1076.902344 1085.0625 1075.757812 1085.164062 1074.601562 C 1085.265625 1073.441406 1085.285156 1072.285156 1085.230469 1071.125 C 1085.175781 1069.964844 1085.039062 1068.8125 1084.828125 1067.671875 C 1084.617188 1066.527344 1084.328125 1065.40625 1083.96875 1064.300781 C 1083.605469 1063.199219 1083.167969 1062.125 1082.660156 1061.082031 C 1082.152344 1060.035156 1081.574219 1059.03125 1080.929688 1058.066406 Z M 750 1046.578125 L 750 943.421875 L 942.515625 943.421875 L 1011.285156 1046.578125 Z M 750 1046.578125 " fill-opacity="1" fill-rule="nonzero"/></svg>