<svg xmlns="http://www.w3.org/2000/svg" xmlns:xlink="http://www.w3.org/1999/xlink" width="2000" zoomAndPan="magnify" viewBox="0 0 1500 1499.999933" height="2000" preserveAspectRatio="xMidYMid meet" version="1.0"><defs><clipPath id="ed3cd6ade8"><path d="M 134.0625 0 L 1366 0 L 1366 1500 L 134.0625 1500 Z M 134.0625 0 " clip-rule="nonzero"/></clipPath></defs><g clip-path="url(#ed3cd6ade8)"><path fill="#163c78" d="M 1349.238281 202.308594 C 1338.59375 192.835938 1324.359375 188.425781 1310.273438 189.929688 C 1280.683594 193.308594 1250.359375 195.019531 1220.160156 195.019531 C 1001.847656 195.019531 848.871094 111.488281 810.589844 28.953125 C 802.386719 11.304688 784.6875 0 765.226562 0 L 734.808594 0 C 715.335938 0 697.648438 11.304688 689.445312 28.953125 C 651.164062 111.472656 498.1875 195.019531 279.863281 195.019531 C 249.652344 195.019531 219.339844 193.308594 189.765625 189.929688 C 175.507812 188.304688 161.429688 192.824219 150.8125 202.308594 C 140.179688 211.792969 134.101562 225.367188 134.101562 239.613281 L 134.101562 540.613281 C 134.101562 948.878906 361.640625 1314.527344 727.933594 1494.847656 C 734.894531 1498.292969 742.460938 1500 750.019531 1500 C 757.574219 1500 765.140625 1498.289062 772.101562 1494.847656 C 1138.398438 1314.527344 1365.9375 948.875 1365.9375 540.613281 L 1365.9375 239.613281 C 1365.9375 225.367188 1359.855469 211.792969 1349.238281 202.308594 Z M 1265.9375 540.613281 C 1265.9375 902.222656 1068.890625 1226.929688 750.019531 1393.921875 C 431.144531 1226.902344 234.101562 902.195312 234.101562 540.613281 L 234.101562 293.859375 C 249.320312 294.628906 264.605469 295.019531 279.863281 295.019531 C 486.882812 295.019531 666.425781 226.402344 750.019531 119.8125 C 833.585938 226.402344 1013.128906 295.019531 1220.160156 295.019531 C 1235.417969 295.019531 1250.703125 294.628906 1265.9375 293.859375 Z M 1132.878906 468.421875 C 1152.042969 488.304688 1151.484375 519.957031 1131.585938 539.125 L 697.222656 957.859375 C 687.882812 966.871094 675.445312 971.875 662.519531 971.875 C 661.980469 971.875 661.429688 971.875 660.894531 971.851562 C 647.394531 971.410156 634.648438 965.527344 625.554688 955.542969 L 466.179688 780.542969 C 447.578125 760.121094 449.066406 728.503906 469.476562 709.914062 C 489.910156 691.320312 521.539062 692.824219 540.105469 713.207031 L 664.847656 850.171875 L 1062.199219 467.125 C 1082.074219 447.984375 1113.714844 448.523438 1132.878906 468.421875 Z M 1132.878906 468.421875 " fill-opacity="1" fill-rule="nonzero"/></g></svg>