<svg xmlns="http://www.w3.org/2000/svg" xmlns:xlink="http://www.w3.org/1999/xlink" width="2000" zoomAndPan="magnify" viewBox="0 0 1500 1499.999933" height="2000" preserveAspectRatio="xMidYMid meet" version="1.0"><path fill="#c62828" d="M 887.347656 1430.875 C 852.109375 1430.875 824.097656 1402.863281 822.289062 1368.523438 L 820.480469 1299.847656 C 819.578125 1285.390625 831.324219 1273.644531 845.78125 1272.742188 L 1300.300781 1258.28125 C 1314.757812 1258.28125 1326.507812 1269.125 1327.410156 1283.585938 L 1329.21875 1351.355469 C 1330.121094 1368.523438 1323.796875 1384.789062 1312.046875 1397.441406 C 1300.300781 1410.089844 1284.941406 1417.320312 1267.769531 1417.320312 Z M 873.796875 1324.246094 L 874.699219 1366.714844 C 875.601562 1373.042969 881.023438 1378.464844 887.347656 1378.464844 L 1265.964844 1364.910156 C 1269.578125 1364.910156 1272.289062 1363.101562 1274.097656 1361.296875 C 1275 1360.390625 1277.710938 1356.777344 1276.808594 1353.164062 L 1275.902344 1310.691406 Z M 873.796875 1324.246094 " fill-opacity="1" fill-rule="evenodd"/><path fill="#c62828" d="M 925.300781 1322.441406 C 915.363281 1322.441406 906.324219 1317.019531 901.808594 1307.078125 C 899.097656 1302.558594 846.6875 1180.570312 945.179688 1081.175781 C 951.507812 1073.945312 966.867188 1059.488281 985.84375 1039.609375 C 1054.519531 970.03125 1182.832031 839.910156 1223.492188 802.863281 C 1266.867188 762.199219 1315.664062 773.945312 1343.675781 803.765625 C 1373.492188 834.488281 1384.335938 885.992188 1350.902344 919.425781 L 1198.191406 1072.136719 C 1188.253906 1082.980469 1171.085938 1082.980469 1161.144531 1072.136719 C 1151.203125 1062.199219 1151.203125 1045.933594 1161.144531 1035.089844 L 1313.855469 882.378906 C 1323.796875 872.441406 1317.46875 851.65625 1306.625 839.910156 C 1296.6875 829.96875 1280.421875 821.835938 1258.734375 840.8125 C 1218.976562 877.863281 1091.566406 1007.078125 1022.890625 1076.65625 C 1003.914062 1096.535156 988.554688 1110.992188 982.230469 1118.222656 C 908.132812 1192.320312 948.796875 1285.390625 949.699219 1286.296875 C 955.121094 1298.945312 949.699219 1314.308594 936.144531 1320.632812 C 932.53125 1322.441406 928.914062 1322.441406 925.300781 1322.441406 Z M 925.300781 1322.441406 " fill-opacity="1" fill-rule="evenodd"/><path fill="#c62828" d="M 1227.109375 1312.5 C 1220.78125 1312.5 1214.457031 1310.691406 1209.941406 1306.175781 C 1199.097656 1296.234375 1198.191406 1279.96875 1208.132812 1269.125 L 1410.542969 1042.320312 C 1435.84375 1003.464844 1435.84375 981.777344 1435.84375 942.921875 C 1435.84375 933.886719 1436.746094 924.847656 1436.746094 914.007812 L 1437.652344 883.28125 C 1441.265625 781.175781 1449.398438 541.71875 1431.324219 484.789062 C 1427.710938 470.332031 1399.699219 456.777344 1370.78125 461.296875 C 1345.480469 464.910156 1333.734375 480.269531 1333.734375 504.667969 L 1338.253906 810.992188 C 1338.253906 825.453125 1327.410156 837.199219 1312.953125 837.199219 C 1312.953125 837.199219 1312.046875 837.199219 1312.046875 837.199219 C 1297.589844 837.199219 1285.84375 826.355469 1285.84375 811.898438 L 1281.324219 505.570312 C 1280.421875 454.066406 1312.046875 417.921875 1362.652344 409.789062 C 1409.636719 402.558594 1467.46875 423.34375 1481.925781 469.425781 C 1500 529.96875 1495.480469 716.113281 1490.058594 885.089844 L 1489.15625 915.8125 C 1488.253906 925.753906 1488.253906 934.789062 1488.253906 942.921875 C 1488.253906 985.390625 1487.347656 1019.730469 1453.011719 1073.042969 C 1452.109375 1073.945312 1452.109375 1074.847656 1451.203125 1075.753906 L 1246.988281 1304.367188 C 1241.566406 1309.789062 1234.335938 1312.5 1227.109375 1312.5 Z M 1227.109375 1312.5 " fill-opacity="1" fill-rule="evenodd"/><path fill="#c62828" d="M 613.554688 1430.875 L 611.746094 1429.96875 L 233.132812 1417.320312 C 215.964844 1417.320312 200.601562 1410.089844 187.953125 1397.441406 C 176.203125 1384.789062 170.78125 1368.523438 170.78125 1351.355469 L 173.492188 1283.585938 C 173.492188 1276.355469 176.203125 1270.03125 181.625 1264.609375 C 187.046875 1260.089844 193.375 1257.378906 200.601562 1258.28125 L 655.121094 1272.742188 C 661.445312 1273.644531 668.675781 1276.355469 673.191406 1281.777344 C 677.710938 1286.296875 680.421875 1293.523438 680.421875 1299.847656 L 677.710938 1368.523438 C 676.808594 1402.863281 648.796875 1430.875 613.554688 1430.875 Z M 225 1310.691406 L 223.191406 1353.164062 C 223.191406 1356.777344 225 1360.390625 226.808594 1361.296875 C 227.710938 1363.101562 230.421875 1364.910156 234.941406 1364.910156 L 613.554688 1378.464844 C 619.878906 1378.464844 625.300781 1373.042969 625.300781 1366.714844 L 627.109375 1324.246094 Z M 225 1310.691406 " fill-opacity="1" fill-rule="evenodd"/><path fill="#c62828" d="M 574.699219 1322.441406 C 571.085938 1322.441406 567.46875 1322.441406 564.757812 1320.632812 C 551.203125 1314.308594 545.78125 1298.945312 551.203125 1286.296875 C 553.011719 1281.777344 590.964844 1191.414062 518.675781 1118.222656 C 511.445312 1110.992188 496.988281 1096.535156 478.011719 1076.65625 C 409.335938 1007.078125 281.925781 877.863281 242.167969 840.8125 C 220.480469 821.835938 204.21875 829.96875 194.277344 839.910156 C 182.53125 851.65625 177.109375 872.441406 187.046875 882.378906 L 339.757812 1035.089844 C 349.699219 1045.933594 349.699219 1062.199219 339.757812 1072.136719 C 328.914062 1082.980469 312.652344 1082.980469 302.710938 1072.136719 L 150 919.425781 C 116.566406 885.992188 127.410156 834.488281 156.324219 803.765625 C 185.242188 773.945312 234.035156 762.199219 277.410156 802.863281 C 318.074219 839.910156 446.386719 970.03125 515.058594 1040.511719 C 534.035156 1059.488281 548.492188 1073.945312 555.722656 1081.175781 C 654.21875 1180.570312 600.902344 1302.558594 599.097656 1307.078125 C 594.578125 1317.019531 585.542969 1322.441406 574.699219 1322.441406 Z M 574.699219 1322.441406 " fill-opacity="1" fill-rule="evenodd"/><path fill="#c62828" d="M 272.890625 1312.5 C 265.664062 1312.5 259.335938 1309.789062 253.914062 1304.367188 L 49.699219 1075.753906 C 48.796875 1074.847656 47.890625 1073.945312 46.988281 1073.042969 C 12.652344 1019.730469 12.652344 985.390625 11.746094 942.921875 C 11.746094 934.789062 11.746094 925.753906 11.746094 915.8125 L 10.84375 885.992188 C 4.519531 716.113281 0 529.96875 18.976562 469.425781 C 32.53125 423.34375 91.265625 402.558594 137.347656 409.789062 C 188.855469 417.921875 219.578125 454.066406 218.675781 505.570312 L 214.15625 811.898438 C 214.15625 826.355469 202.410156 838.101562 187.953125 837.199219 C 173.492188 837.199219 161.746094 825.453125 161.746094 810.992188 L 167.167969 504.667969 C 167.167969 480.269531 154.519531 464.910156 130.121094 461.296875 C 101.203125 456.777344 73.191406 470.332031 68.675781 483.886719 C 51.507812 541.71875 59.636719 781.175781 63.253906 884.1875 L 64.15625 914.910156 C 64.15625 924.847656 64.15625 933.886719 64.15625 942.921875 C 65.058594 981.777344 65.058594 1003.464844 90.363281 1042.320312 L 292.769531 1269.125 C 302.710938 1279.96875 301.808594 1296.234375 290.964844 1306.175781 C 285.542969 1310.691406 279.21875 1312.5 272.890625 1312.5 Z M 272.890625 1312.5 " fill-opacity="1" fill-rule="evenodd"/><path fill="#c62828" d="M 750 943.824219 C 745.480469 943.824219 740.964844 942.921875 737.347656 940.210938 C 265.664062 661.898438 351.507812 244.425781 352.410156 240.8125 C 354.21875 233.585938 358.734375 227.257812 365.058594 223.644531 C 371.386719 220.03125 378.613281 219.125 385.84375 220.933594 C 385.84375 220.933594 417.46875 230.875 463.554688 230.875 C 539.457031 230.875 646.988281 204.667969 728.3125 80.875 C 732.832031 73.644531 741.867188 69.125 750 69.125 C 759.035156 69.125 767.167969 73.644531 772.589844 80.875 C 853.011719 204.667969 961.445312 229.96875 1038.253906 229.96875 C 1082.53125 229.96875 1114.15625 220.933594 1115.058594 220.933594 C 1122.289062 219.125 1129.519531 220.03125 1135.84375 223.644531 C 1142.167969 227.257812 1146.6875 233.585938 1148.492188 240.8125 C 1149.398438 244.425781 1234.335938 661.898438 763.554688 940.210938 C 759.941406 942.921875 754.519531 943.824219 750 943.824219 Z M 399.398438 277.863281 C 389.457031 367.320312 387.652344 665.511719 750 886.898438 C 1113.253906 665.511719 1111.445312 367.320312 1101.507812 277.863281 C 1085.242188 280.570312 1063.554688 282.378906 1038.253906 282.378906 C 955.121094 282.378906 841.265625 257.078125 750 140.511719 C 659.636719 257.078125 545.78125 283.28125 463.554688 283.28125 C 437.347656 283.28125 415.664062 280.570312 399.398438 277.863281 Z M 399.398438 277.863281 " fill-opacity="1" fill-rule="evenodd"/><path fill="#c62828" d="M 682.230469 670.03125 C 675 670.03125 668.675781 667.320312 664.15625 661.898438 L 525.902344 523.644531 C 515.058594 513.703125 515.058594 497.441406 525.902344 486.597656 C 535.84375 476.65625 552.109375 476.65625 562.953125 486.597656 L 682.230469 606.777344 L 937.953125 351.054688 C 947.890625 341.113281 965.058594 341.113281 975 351.054688 C 984.941406 360.992188 984.941406 377.257812 975 388.101562 L 701.203125 661.898438 C 695.78125 667.320312 689.457031 670.03125 682.230469 670.03125 Z M 682.230469 670.03125 " fill-opacity="1" fill-rule="evenodd"/></svg>