<svg xmlns="http://www.w3.org/2000/svg" xmlns:xlink="http://www.w3.org/1999/xlink" width="2000" zoomAndPan="magnify" viewBox="0 0 1500 1499.999933" height="2000" preserveAspectRatio="xMidYMid meet" version="1.0"><path fill="#163c78" d="M 472.984375 1334.472656 L 25.816406 1334.472656 C 11.59375 1334.472656 0.0664062 1322.945312 0.0664062 1308.726562 L 0.0664062 130.503906 C 0.0664062 116.28125 11.59375 104.753906 25.816406 104.753906 L 202.613281 104.753906 C 216.835938 104.753906 228.363281 116.28125 228.363281 130.503906 L 228.363281 182.289062 L 691.117188 182.289062 L 691.117188 130.503906 C 691.117188 116.28125 702.644531 104.753906 716.863281 104.753906 L 893.660156 104.753906 C 907.878906 104.753906 919.410156 116.28125 919.410156 130.503906 L 919.410156 813.484375 C 919.410156 827.703125 907.882812 839.230469 893.660156 839.230469 C 879.4375 839.230469 867.910156 827.707031 867.910156 813.484375 L 867.910156 156.257812 L 742.609375 156.257812 L 742.609375 208.042969 C 742.609375 222.265625 731.085938 233.789062 716.863281 233.789062 L 202.613281 233.789062 C 188.390625 233.789062 176.867188 222.265625 176.867188 208.042969 L 176.867188 156.257812 L 51.566406 156.257812 L 51.566406 1282.980469 L 472.980469 1282.980469 C 487.203125 1282.980469 498.726562 1294.503906 498.726562 1308.726562 C 498.726562 1322.949219 487.203125 1334.472656 472.984375 1334.472656 Z M 472.984375 1334.472656 " fill-opacity="1" fill-rule="nonzero"/><path fill="#163c78" d="M 716.863281 233.789062 L 202.613281 233.789062 C 188.390625 233.789062 176.867188 222.265625 176.867188 208.042969 L 176.867188 39.902344 C 176.867188 25.683594 188.390625 14.15625 202.613281 14.15625 L 716.863281 14.15625 C 731.085938 14.15625 742.613281 25.683594 742.613281 39.902344 L 742.613281 208.042969 C 742.613281 222.261719 731.085938 233.789062 716.863281 233.789062 Z M 228.363281 182.289062 L 691.117188 182.289062 L 691.117188 65.648438 L 228.363281 65.648438 Z M 228.363281 182.289062 " fill-opacity="1" fill-rule="nonzero"/><path fill="#163c78" d="M 156.703125 462.308594 C 149.871094 462.308594 143.324219 459.59375 138.492188 454.765625 L 100.136719 416.410156 C 90.082031 406.351562 90.082031 390.050781 100.136719 379.996094 C 110.195312 369.941406 126.496094 369.941406 136.550781 379.996094 L 156.703125 400.144531 L 224.585938 332.261719 C 234.640625 322.207031 250.941406 322.207031 260.996094 332.261719 C 271.054688 342.316406 271.054688 358.621094 260.996094 368.675781 L 174.910156 454.765625 C 170.078125 459.59375 163.53125 462.308594 156.703125 462.308594 Z M 156.703125 462.308594 " fill-opacity="1" fill-rule="nonzero"/><path fill="#163c78" d="M 801.136719 419.261719 L 343.144531 419.261719 C 328.921875 419.261719 317.398438 407.734375 317.398438 393.511719 C 317.398438 379.292969 328.921875 367.765625 343.144531 367.765625 L 801.136719 367.765625 C 815.355469 367.765625 826.882812 379.292969 826.882812 393.511719 C 826.882812 407.734375 815.355469 419.261719 801.136719 419.261719 Z M 801.136719 419.261719 " fill-opacity="1" fill-rule="nonzero"/><path fill="#163c78" d="M 156.703125 701.507812 C 150.113281 701.507812 143.523438 698.996094 138.492188 693.964844 L 100.136719 655.609375 C 90.082031 645.554688 90.082031 629.253906 100.136719 619.199219 C 110.195312 609.144531 126.496094 609.144531 136.550781 619.199219 L 156.703125 639.347656 L 224.585938 571.464844 C 234.640625 561.410156 250.941406 561.410156 260.996094 571.464844 C 271.054688 581.523438 271.054688 597.824219 260.996094 607.878906 L 174.910156 693.964844 C 169.882812 698.996094 163.289062 701.507812 156.703125 701.507812 Z M 156.703125 701.507812 " fill-opacity="1" fill-rule="nonzero"/><path fill="#163c78" d="M 801.136719 658.46875 L 343.144531 658.46875 C 328.921875 658.46875 317.398438 646.941406 317.398438 632.71875 C 317.398438 618.496094 328.921875 606.96875 343.144531 606.96875 L 801.136719 606.96875 C 815.355469 606.96875 826.882812 618.496094 826.882812 632.71875 C 826.882812 646.941406 815.355469 658.46875 801.136719 658.46875 Z M 801.136719 658.46875 " fill-opacity="1" fill-rule="nonzero"/><path fill="#163c78" d="M 156.703125 940.714844 C 149.871094 940.714844 143.324219 938.003906 138.492188 933.175781 L 100.136719 894.820312 C 90.082031 884.765625 90.082031 868.460938 100.136719 858.40625 C 110.195312 848.347656 126.496094 848.347656 136.550781 858.40625 L 156.703125 878.554688 L 224.585938 810.671875 C 234.640625 800.617188 250.941406 800.617188 260.996094 810.671875 C 271.054688 820.730469 271.054688 837.03125 260.996094 847.085938 L 174.910156 933.179688 C 170.078125 938.003906 163.53125 940.714844 156.703125 940.714844 Z M 156.703125 940.714844 " fill-opacity="1" fill-rule="nonzero"/><path fill="#163c78" d="M 472.984375 897.667969 L 343.144531 897.667969 C 328.921875 897.667969 317.398438 886.144531 317.398438 871.921875 C 317.398438 857.699219 328.921875 846.171875 343.144531 846.171875 L 472.984375 846.171875 C 487.203125 846.171875 498.730469 857.699219 498.730469 871.921875 C 498.730469 886.144531 487.203125 897.667969 472.984375 897.667969 Z M 472.984375 897.667969 " fill-opacity="1" fill-rule="nonzero"/><path fill="#163c78" d="M 156.703125 1179.917969 C 149.871094 1179.917969 143.324219 1177.203125 138.492188 1172.375 L 100.136719 1134.023438 C 90.082031 1123.96875 90.082031 1107.664062 100.136719 1097.609375 C 110.195312 1087.550781 126.496094 1087.550781 136.550781 1097.609375 L 156.703125 1117.757812 L 224.585938 1049.875 C 234.640625 1039.816406 250.941406 1039.816406 260.996094 1049.875 C 271.054688 1059.929688 271.054688 1076.234375 260.996094 1086.289062 L 174.910156 1172.378906 C 170.078125 1177.207031 163.53125 1179.917969 156.703125 1179.917969 Z M 156.703125 1179.917969 " fill-opacity="1" fill-rule="nonzero"/><path fill="#163c78" d="M 472.984375 1136.871094 L 343.144531 1136.871094 C 328.921875 1136.871094 317.398438 1125.34375 317.398438 1111.125 C 317.398438 1096.902344 328.921875 1085.375 343.144531 1085.375 L 472.984375 1085.375 C 487.203125 1085.375 498.730469 1096.902344 498.730469 1111.125 C 498.730469 1125.34375 487.203125 1136.871094 472.984375 1136.871094 Z M 472.984375 1136.871094 " fill-opacity="1" fill-rule="nonzero"/><path fill="#163c78" d="M 1445.929688 1394.570312 L 1371.964844 1394.570312 C 1364.292969 1394.570312 1357.015625 1391.148438 1352.125 1385.238281 C 1347.234375 1379.324219 1345.234375 1371.535156 1346.675781 1363.996094 C 1347.703125 1358.605469 1348.226562 1353.101562 1348.226562 1347.636719 C 1348.226562 1300.007812 1309.472656 1261.253906 1261.84375 1261.253906 C 1214.214844 1261.253906 1175.464844 1300.007812 1175.464844 1347.636719 C 1175.464844 1353.113281 1175.984375 1358.613281 1177.015625 1363.984375 C 1178.457031 1371.523438 1176.460938 1379.3125 1171.570312 1385.230469 C 1166.675781 1391.148438 1159.402344 1394.570312 1151.722656 1394.570312 L 1049.511719 1394.570312 C 1035.292969 1394.570312 1023.761719 1383.042969 1023.761719 1368.820312 L 1023.761719 951.214844 C 1023.761719 923.875 1046.003906 901.628906 1073.34375 901.628906 L 1270.234375 901.628906 C 1331.167969 901.628906 1380.738281 951.199219 1380.738281 1012.132812 L 1380.738281 1113.164062 C 1448.421875 1125.347656 1499.929688 1184.679688 1499.929688 1255.8125 L 1499.929688 1340.570312 C 1499.933594 1370.347656 1475.707031 1394.570312 1445.929688 1394.570312 Z M 1399.652344 1343.074219 L 1445.933594 1343.074219 C 1447.246094 1343.074219 1448.4375 1341.882812 1448.4375 1340.570312 L 1448.4375 1255.8125 C 1448.4375 1204.292969 1406.519531 1162.371094 1354.996094 1162.371094 C 1340.777344 1162.371094 1329.246094 1150.847656 1329.246094 1136.625 L 1329.246094 1012.132812 C 1329.246094 979.597656 1302.773438 953.125 1270.234375 953.125 L 1075.261719 953.125 L 1075.261719 1343.074219 L 1124.046875 1343.074219 C 1126.464844 1269.148438 1187.351562 1209.757812 1261.851562 1209.757812 C 1336.347656 1209.757812 1397.234375 1269.152344 1399.652344 1343.074219 Z M 1399.652344 1343.074219 " fill-opacity="1" fill-rule="nonzero"/><path fill="#163c78" d="M 1354.992188 1162.371094 L 1148.390625 1162.371094 C 1134.171875 1162.371094 1122.644531 1150.847656 1122.644531 1136.625 L 1122.644531 984.761719 C 1122.644531 970.542969 1134.167969 959.015625 1148.390625 959.015625 L 1350.429688 959.015625 C 1361.417969 959.015625 1371.203125 965.992188 1374.78125 976.386719 C 1378.734375 987.894531 1380.742188 999.921875 1380.742188 1012.132812 L 1380.742188 1136.625 C 1380.742188 1150.84375 1369.210938 1162.371094 1354.992188 1162.371094 Z M 1174.140625 1110.878906 L 1329.246094 1110.878906 L 1329.246094 1012.136719 C 1329.246094 1011.597656 1329.238281 1011.054688 1329.222656 1010.515625 L 1174.140625 1010.515625 Z M 1174.140625 1110.878906 " fill-opacity="1" fill-rule="nonzero"/><path fill="#163c78" d="M 1049.515625 1394.570312 L 795.175781 1394.570312 C 787.496094 1394.570312 780.222656 1391.148438 775.328125 1385.230469 C 770.4375 1379.3125 768.441406 1371.523438 769.886719 1363.984375 C 770.914062 1358.613281 771.433594 1353.113281 771.433594 1347.636719 C 771.433594 1300.007812 732.683594 1261.253906 685.054688 1261.253906 C 637.421875 1261.253906 598.675781 1300.007812 598.675781 1347.636719 C 598.675781 1353.109375 599.195312 1358.609375 600.222656 1363.992188 C 601.667969 1371.53125 599.667969 1379.316406 594.777344 1385.234375 C 589.886719 1391.152344 582.609375 1394.570312 574.933594 1394.570312 L 472.984375 1394.570312 C 458.761719 1394.570312 447.234375 1383.042969 447.234375 1368.820312 L 447.234375 1235.503906 C 447.234375 1221.285156 458.761719 1209.757812 472.984375 1209.757812 L 1049.515625 1209.757812 C 1063.734375 1209.757812 1075.261719 1221.28125 1075.261719 1235.503906 L 1075.261719 1368.820312 C 1075.261719 1383.039062 1063.734375 1394.570312 1049.515625 1394.570312 Z M 822.855469 1343.074219 L 1023.765625 1343.074219 L 1023.765625 1261.253906 L 792.441406 1261.253906 C 810.613281 1283.804688 821.84375 1312.171875 822.855469 1343.074219 Z M 498.730469 1343.074219 L 547.25 1343.074219 C 548.261719 1312.167969 559.492188 1283.800781 577.664062 1261.253906 L 498.730469 1261.253906 Z M 498.730469 1343.074219 " fill-opacity="1" fill-rule="nonzero"/><path fill="#163c78" d="M 1049.515625 1261.253906 L 472.984375 1261.253906 C 458.761719 1261.253906 447.234375 1249.726562 447.234375 1235.503906 L 447.234375 813.484375 C 447.234375 799.265625 458.761719 787.734375 472.984375 787.734375 L 1049.515625 787.734375 C 1063.734375 787.734375 1075.261719 799.261719 1075.261719 813.484375 L 1075.261719 1235.503906 C 1075.261719 1249.726562 1063.734375 1261.253906 1049.515625 1261.253906 Z M 498.730469 1209.757812 L 1023.769531 1209.757812 L 1023.769531 839.230469 L 498.730469 839.230469 Z M 498.730469 1209.757812 " fill-opacity="1" fill-rule="nonzero"/><path fill="#163c78" d="M 1261.847656 1485.507812 C 1185.820312 1485.507812 1123.972656 1423.660156 1123.972656 1347.632812 C 1123.972656 1271.605469 1185.820312 1209.757812 1261.847656 1209.757812 C 1337.875 1209.757812 1399.722656 1271.605469 1399.722656 1347.632812 C 1399.722656 1423.660156 1337.875 1485.507812 1261.847656 1485.507812 Z M 1261.847656 1261.253906 C 1214.21875 1261.253906 1175.46875 1300.003906 1175.46875 1347.632812 C 1175.46875 1395.261719 1214.21875 1434.015625 1261.847656 1434.015625 C 1309.476562 1434.015625 1348.230469 1395.261719 1348.230469 1347.632812 C 1348.230469 1300.003906 1309.476562 1261.253906 1261.847656 1261.253906 Z M 1261.847656 1261.253906 " fill-opacity="1" fill-rule="nonzero"/><path fill="#163c78" d="M 685.054688 1485.507812 C 609.027344 1485.507812 547.175781 1423.660156 547.175781 1347.632812 C 547.175781 1271.605469 609.027344 1209.757812 685.054688 1209.757812 C 761.082031 1209.757812 822.929688 1271.605469 822.929688 1347.632812 C 822.929688 1423.660156 761.082031 1485.507812 685.054688 1485.507812 Z M 685.054688 1261.253906 C 637.421875 1261.253906 598.675781 1300.003906 598.675781 1347.632812 C 598.675781 1395.261719 637.425781 1434.015625 685.054688 1434.015625 C 732.683594 1434.015625 771.4375 1395.261719 771.4375 1347.632812 C 771.4375 1300.003906 732.683594 1261.253906 685.054688 1261.253906 Z M 685.054688 1261.253906 " fill-opacity="1" fill-rule="nonzero"/><path fill="#163c78" d="M 831.304688 1015.3125 L 668.695312 1015.3125 C 654.476562 1015.3125 642.949219 1003.785156 642.949219 989.5625 L 642.949219 813.484375 C 642.949219 799.265625 654.476562 787.734375 668.695312 787.734375 L 831.304688 787.734375 C 845.523438 787.734375 857.050781 799.261719 857.050781 813.484375 L 857.050781 989.5625 C 857.050781 1003.78125 845.523438 1015.3125 831.304688 1015.3125 Z M 694.445312 963.816406 L 805.554688 963.816406 L 805.554688 839.230469 L 694.445312 839.230469 Z M 694.445312 963.816406 " fill-opacity="1" fill-rule="nonzero"/></svg>