<svg xmlns="http://www.w3.org/2000/svg" xmlns:xlink="http://www.w3.org/1999/xlink" width="2000" zoomAndPan="magnify" viewBox="0 0 1500 1499.999933" height="2000" preserveAspectRatio="xMidYMid meet" version="1.0"><defs><clipPath id="7132f96027"><path d="M 196 93.75 L 791 93.75 L 791 689 L 196 689 Z M 196 93.75 " clip-rule="nonzero"/></clipPath><clipPath id="5d75e24c78"><path d="M 1 932 L 374 932 L 374 1406.25 L 1 1406.25 Z M 1 932 " clip-rule="nonzero"/></clipPath></defs><g clip-path="url(#7132f96027)"><path fill="#c62828" d="M 493.3125 688.285156 C 488.449219 688.285156 483.589844 688.167969 478.730469 687.929688 C 473.871094 687.691406 469.023438 687.332031 464.183594 686.855469 C 459.34375 686.378906 454.515625 685.785156 449.707031 685.070312 C 444.894531 684.355469 440.105469 683.523438 435.335938 682.578125 C 430.5625 681.628906 425.820312 680.5625 421.101562 679.378906 C 416.382812 678.199219 411.699219 676.902344 407.042969 675.488281 C 402.390625 674.078125 397.773438 672.554688 393.191406 670.914062 C 388.613281 669.277344 384.078125 667.527344 379.582031 665.664062 C 375.089844 663.804688 370.644531 661.832031 366.246094 659.753906 C 361.851562 657.675781 357.507812 655.488281 353.21875 653.195312 C 348.929688 650.902344 344.699219 648.503906 340.527344 646.003906 C 336.355469 643.503906 332.246094 640.902344 328.203125 638.203125 C 324.160156 635.5 320.183594 632.699219 316.277344 629.800781 C 312.371094 626.90625 308.539062 623.914062 304.777344 620.828125 C 301.019531 617.742188 297.335938 614.566406 293.734375 611.300781 C 290.128906 608.035156 286.605469 604.679688 283.167969 601.242188 C 279.730469 597.804688 276.375 594.28125 273.109375 590.675781 C 269.84375 587.074219 266.667969 583.390625 263.582031 579.632812 C 260.496094 575.871094 257.503906 572.039062 254.609375 568.132812 C 251.710938 564.226562 248.910156 560.25 246.207031 556.207031 C 243.507812 552.164062 240.90625 548.054688 238.40625 543.882812 C 235.902344 539.710938 233.507812 535.480469 231.214844 531.191406 C 228.921875 526.902344 226.734375 522.558594 224.65625 518.160156 C 222.578125 513.765625 220.605469 509.320312 218.746094 504.828125 C 216.882812 500.332031 215.132812 495.796875 213.496094 491.21875 C 211.855469 486.636719 210.332031 482.019531 208.921875 477.367188 C 207.507812 472.710938 206.210938 468.027344 205.03125 463.308594 C 203.847656 458.589844 202.78125 453.847656 201.832031 449.074219 C 200.882812 444.304688 200.054688 439.515625 199.339844 434.703125 C 198.625 429.894531 198.03125 425.066406 197.554688 420.226562 C 197.078125 415.386719 196.71875 410.539062 196.480469 405.679688 C 196.242188 400.820312 196.125 395.960938 196.125 391.097656 C 196.125 386.234375 196.242188 381.371094 196.480469 376.515625 C 196.71875 371.65625 197.078125 366.808594 197.554688 361.96875 C 198.03125 357.128906 198.625 352.300781 199.339844 347.488281 C 200.054688 342.679688 200.882812 337.886719 201.832031 333.117188 C 202.78125 328.347656 203.847656 323.605469 205.03125 318.886719 C 206.210938 314.167969 207.507812 309.480469 208.921875 304.828125 C 210.332031 300.171875 211.855469 295.554688 213.496094 290.976562 C 215.132812 286.398438 216.882812 281.859375 218.746094 277.367188 C 220.605469 272.875 222.578125 268.429688 224.65625 264.03125 C 226.734375 259.636719 228.921875 255.292969 231.214844 251.003906 C 233.507812 246.714844 235.902344 242.484375 238.40625 238.3125 C 240.90625 234.140625 243.507812 230.03125 246.207031 225.988281 C 248.910156 221.941406 251.710938 217.96875 254.609375 214.0625 C 257.503906 210.15625 260.496094 206.320312 263.582031 202.5625 C 266.667969 198.800781 269.84375 195.121094 273.109375 191.515625 C 276.375 187.914062 279.730469 184.390625 283.167969 180.953125 C 286.605469 177.511719 290.128906 174.160156 293.730469 170.894531 C 297.335938 167.628906 301.019531 164.453125 304.777344 161.367188 C 308.539062 158.28125 312.371094 155.289062 316.277344 152.390625 C 320.183594 149.496094 324.160156 146.695312 328.203125 143.992188 C 332.246094 141.289062 336.355469 138.6875 340.527344 136.1875 C 344.699219 133.6875 348.929688 131.292969 353.21875 129 C 357.507812 126.707031 361.851562 124.519531 366.246094 122.441406 C 370.644531 120.359375 375.089844 118.390625 379.582031 116.527344 C 384.078125 114.667969 388.613281 112.917969 393.191406 111.28125 C 397.773438 109.640625 402.390625 108.117188 407.042969 106.703125 C 411.699219 105.292969 416.382812 103.996094 421.101562 102.8125 C 425.820312 101.632812 430.5625 100.566406 435.335938 99.617188 C 440.105469 98.667969 444.894531 97.835938 449.707031 97.125 C 454.515625 96.410156 459.34375 95.816406 464.183594 95.339844 C 469.023438 94.863281 473.871094 94.503906 478.730469 94.265625 C 483.589844 94.027344 488.449219 93.90625 493.3125 93.90625 C 498.175781 93.90625 503.039062 94.027344 507.894531 94.265625 C 512.753906 94.503906 517.601562 94.863281 522.441406 95.339844 C 527.28125 95.816406 532.109375 96.410156 536.917969 97.125 C 541.730469 97.835938 546.523438 98.667969 551.292969 99.617188 C 556.0625 100.566406 560.804688 101.632812 565.523438 102.8125 C 570.242188 103.996094 574.929688 105.292969 579.582031 106.703125 C 584.238281 108.117188 588.855469 109.640625 593.433594 111.28125 C 598.011719 112.917969 602.550781 114.667969 607.042969 116.527344 C 611.535156 118.390625 615.980469 120.359375 620.378906 122.441406 C 624.773438 124.519531 629.117188 126.707031 633.40625 129 C 637.695312 131.292969 641.925781 133.6875 646.097656 136.1875 C 650.269531 138.6875 654.378906 141.289062 658.421875 143.992188 C 662.46875 146.695312 666.441406 149.496094 670.347656 152.390625 C 674.253906 155.289062 678.089844 158.28125 681.847656 161.367188 C 685.609375 164.453125 689.289062 167.628906 692.894531 170.894531 C 696.496094 174.160156 700.019531 177.511719 703.457031 180.953125 C 706.898438 184.390625 710.25 187.914062 713.515625 191.515625 C 716.78125 195.121094 719.957031 198.800781 723.042969 202.5625 C 726.128906 206.320312 729.121094 210.15625 732.019531 214.0625 C 734.914062 217.96875 737.714844 221.941406 740.417969 225.988281 C 743.121094 230.03125 745.722656 234.140625 748.222656 238.3125 C 750.722656 242.484375 753.117188 246.714844 755.410156 251.003906 C 757.703125 255.292969 759.890625 259.636719 761.96875 264.03125 C 764.050781 268.429688 766.019531 272.875 767.878906 277.367188 C 769.742188 281.859375 771.492188 286.398438 773.128906 290.976562 C 774.769531 295.554688 776.292969 300.171875 777.707031 304.828125 C 779.117188 309.480469 780.414062 314.167969 781.597656 318.886719 C 782.777344 323.605469 783.84375 328.347656 784.792969 333.117188 C 785.742188 337.886719 786.574219 342.679688 787.285156 347.488281 C 788 352.300781 788.59375 357.128906 789.070312 361.96875 C 789.546875 366.808594 789.90625 371.65625 790.144531 376.515625 C 790.382812 381.371094 790.503906 386.234375 790.503906 391.097656 C 790.496094 395.960938 790.371094 400.816406 790.128906 405.675781 C 789.886719 410.53125 789.523438 415.378906 789.039062 420.214844 C 788.558594 425.054688 787.960938 429.878906 787.242188 434.6875 C 786.523438 439.496094 785.6875 444.285156 784.734375 449.050781 C 783.78125 453.820312 782.714844 458.5625 781.527344 463.277344 C 780.34375 467.992188 779.042969 472.675781 777.628906 477.328125 C 776.214844 481.980469 774.6875 486.59375 773.042969 491.171875 C 771.402344 495.75 769.652344 500.28125 767.789062 504.773438 C 765.925781 509.265625 763.953125 513.707031 761.871094 518.101562 C 759.789062 522.496094 757.601562 526.835938 755.308594 531.125 C 753.015625 535.410156 750.617188 539.636719 748.117188 543.808594 C 745.617188 547.976562 743.015625 552.082031 740.3125 556.125 C 737.609375 560.167969 734.808594 564.140625 731.910156 568.046875 C 729.015625 571.949219 726.023438 575.78125 722.9375 579.539062 C 719.851562 583.296875 716.679688 586.976562 713.414062 590.582031 C 710.148438 594.183594 706.796875 597.703125 703.355469 601.140625 C 699.917969 604.578125 696.398438 607.929688 692.796875 611.195312 C 689.195312 614.460938 685.511719 617.636719 681.753906 620.722656 C 677.996094 623.808594 674.167969 626.796875 670.261719 629.695312 C 666.355469 632.59375 662.382812 635.394531 658.339844 638.09375 C 654.300781 640.796875 650.195312 643.398438 646.023438 645.902344 C 641.855469 648.402344 637.625 650.800781 633.339844 653.09375 C 629.050781 655.386719 624.710938 657.574219 620.316406 659.65625 C 615.921875 661.738281 611.480469 663.710938 606.988281 665.574219 C 602.496094 667.4375 597.964844 669.1875 593.386719 670.828125 C 588.808594 672.46875 584.195312 673.996094 579.542969 675.414062 C 574.890625 676.828125 570.207031 678.128906 565.492188 679.3125 C 560.777344 680.496094 556.035156 681.566406 551.269531 682.519531 C 546.5 683.472656 541.710938 684.308594 536.902344 685.023438 C 532.09375 685.742188 527.269531 686.34375 522.433594 686.824219 C 517.59375 687.304688 512.746094 687.667969 507.890625 687.914062 C 503.035156 688.15625 498.175781 688.28125 493.3125 688.285156 Z M 493.3125 144.183594 C 489.273438 144.183594 485.234375 144.28125 481.199219 144.480469 C 477.160156 144.679688 473.132812 144.976562 469.109375 145.371094 C 465.089844 145.765625 461.082031 146.261719 457.082031 146.855469 C 453.085938 147.449219 449.105469 148.136719 445.140625 148.925781 C 441.179688 149.714844 437.238281 150.601562 433.316406 151.582031 C 429.398438 152.5625 425.503906 153.640625 421.636719 154.8125 C 417.769531 155.988281 413.933594 157.253906 410.128906 158.617188 C 406.324219 159.976562 402.554688 161.429688 398.824219 162.976562 C 395.089844 164.523438 391.394531 166.160156 387.742188 167.890625 C 384.089844 169.617188 380.480469 171.433594 376.917969 173.335938 C 373.355469 175.242188 369.839844 177.234375 366.375 179.3125 C 362.90625 181.386719 359.496094 183.550781 356.132812 185.796875 C 352.773438 188.039062 349.472656 190.367188 346.226562 192.773438 C 342.980469 195.179688 339.796875 197.664062 336.671875 200.230469 C 333.546875 202.792969 330.488281 205.429688 327.496094 208.144531 C 324.5 210.859375 321.574219 213.644531 318.71875 216.503906 C 315.859375 219.359375 313.074219 222.285156 310.363281 225.277344 C 307.648438 228.273438 305.007812 231.332031 302.445312 234.457031 C 299.882812 237.578125 297.398438 240.765625 294.988281 244.011719 C 292.582031 247.253906 290.257812 250.558594 288.011719 253.917969 C 285.765625 257.277344 283.605469 260.691406 281.527344 264.15625 C 279.449219 267.625 277.457031 271.136719 275.554688 274.703125 C 273.648438 278.265625 271.832031 281.875 270.105469 285.527344 C 268.378906 289.179688 266.738281 292.875 265.195312 296.605469 C 263.648438 300.339844 262.195312 304.109375 260.832031 307.914062 C 259.46875 311.71875 258.203125 315.554688 257.03125 319.421875 C 255.859375 323.289062 254.78125 327.183594 253.796875 331.101562 C 252.816406 335.019531 251.929688 338.964844 251.144531 342.925781 C 250.355469 346.890625 249.664062 350.871094 249.070312 354.867188 C 248.476562 358.863281 247.984375 362.875 247.585938 366.894531 C 247.191406 370.917969 246.894531 374.945312 246.695312 378.980469 C 246.496094 383.015625 246.398438 387.054688 246.398438 391.097656 C 246.398438 395.136719 246.496094 399.175781 246.695312 403.210938 C 246.894531 407.25 247.191406 411.277344 247.585938 415.296875 C 247.984375 419.320312 248.476562 423.328125 249.070312 427.328125 C 249.664062 431.324219 250.355469 435.304688 251.144531 439.265625 C 251.929688 443.230469 252.816406 447.171875 253.796875 451.09375 C 254.78125 455.011719 255.859375 458.90625 257.03125 462.773438 C 258.203125 466.640625 259.46875 470.476562 260.832031 474.28125 C 262.195312 478.085938 263.648438 481.855469 265.195312 485.585938 C 266.738281 489.320312 268.378906 493.011719 270.105469 496.667969 C 271.832031 500.320312 273.648438 503.929688 275.554688 507.492188 C 277.457031 511.054688 279.449219 514.570312 281.527344 518.035156 C 283.605469 521.503906 285.765625 524.914062 288.011719 528.273438 C 290.257812 531.636719 292.582031 534.9375 294.988281 538.183594 C 297.398438 541.429688 299.882812 544.613281 302.445312 547.738281 C 305.007812 550.863281 307.648438 553.921875 310.363281 556.914062 C 313.074219 559.910156 315.859375 562.835938 318.71875 565.691406 C 321.574219 568.550781 324.5 571.335938 327.496094 574.046875 C 330.488281 576.761719 333.546875 579.402344 336.671875 581.964844 C 339.796875 584.527344 342.980469 587.011719 346.226562 589.421875 C 349.472656 591.828125 352.773438 594.152344 356.132812 596.398438 C 359.496094 598.644531 362.90625 600.804688 366.375 602.882812 C 369.839844 604.960938 373.355469 606.953125 376.917969 608.855469 C 380.480469 610.761719 384.089844 612.578125 387.742188 614.304688 C 391.394531 616.03125 395.089844 617.667969 398.824219 619.214844 C 402.554688 620.761719 406.324219 622.214844 410.128906 623.578125 C 413.933594 624.9375 417.769531 626.207031 421.636719 627.378906 C 425.503906 628.550781 429.398438 629.628906 433.316406 630.613281 C 437.238281 631.59375 441.179688 632.480469 445.140625 633.265625 C 449.105469 634.054688 453.085938 634.746094 457.082031 635.339844 C 461.082031 635.933594 465.089844 636.425781 469.109375 636.824219 C 473.132812 637.21875 477.160156 637.515625 481.199219 637.714844 C 485.234375 637.914062 489.273438 638.011719 493.3125 638.011719 C 497.355469 638.011719 501.390625 637.914062 505.429688 637.714844 C 509.464844 637.515625 513.492188 637.21875 517.515625 636.824219 C 521.535156 636.425781 525.546875 635.933594 529.542969 635.339844 C 533.539062 634.746094 537.519531 634.054688 541.484375 633.265625 C 545.445312 632.480469 549.386719 631.59375 553.308594 630.613281 C 557.226562 629.628906 561.121094 628.550781 564.988281 627.378906 C 568.855469 626.207031 572.691406 624.9375 576.496094 623.578125 C 580.300781 622.214844 584.070312 620.761719 587.804688 619.214844 C 591.535156 617.667969 595.230469 616.03125 598.882812 614.304688 C 602.535156 612.578125 606.144531 610.761719 609.707031 608.855469 C 613.273438 606.953125 616.785156 604.960938 620.253906 602.882812 C 623.71875 600.804688 627.132812 598.644531 630.492188 596.398438 C 633.851562 594.152344 637.152344 591.828125 640.398438 589.421875 C 643.644531 587.011719 646.832031 584.527344 649.953125 581.964844 C 653.078125 579.402344 656.136719 576.761719 659.128906 574.046875 C 662.125 571.335938 665.050781 568.550781 667.90625 565.691406 C 670.765625 562.835938 673.550781 559.910156 676.265625 556.914062 C 678.976562 553.921875 681.617188 550.863281 684.179688 547.738281 C 686.746094 544.613281 689.230469 541.429688 691.636719 538.183594 C 694.042969 534.9375 696.371094 531.636719 698.613281 528.273438 C 700.859375 524.914062 703.019531 521.503906 705.097656 518.035156 C 707.175781 514.570312 709.167969 511.054688 711.070312 507.492188 C 712.976562 503.929688 714.792969 500.320312 716.519531 496.667969 C 718.25 493.011719 719.886719 489.320312 721.433594 485.585938 C 722.980469 481.855469 724.433594 478.085938 725.792969 474.28125 C 727.15625 470.476562 728.421875 466.640625 729.59375 462.773438 C 730.769531 458.90625 731.847656 455.011719 732.828125 451.09375 C 733.808594 447.171875 734.695312 443.230469 735.484375 439.265625 C 736.273438 435.304688 736.960938 431.324219 737.554688 427.328125 C 738.148438 423.328125 738.644531 419.320312 739.039062 415.296875 C 739.433594 411.277344 739.730469 407.25 739.929688 403.210938 C 740.128906 399.175781 740.226562 395.136719 740.226562 391.097656 C 740.222656 387.058594 740.121094 383.019531 739.917969 378.984375 C 739.714844 374.949219 739.414062 370.921875 739.011719 366.902344 C 738.613281 362.882812 738.113281 358.875 737.519531 354.882812 C 736.921875 350.886719 736.226562 346.90625 735.4375 342.945312 C 734.644531 338.984375 733.757812 335.042969 732.773438 331.128906 C 731.789062 327.210938 730.707031 323.316406 729.53125 319.453125 C 728.355469 315.589844 727.085938 311.753906 725.722656 307.953125 C 724.359375 304.148438 722.90625 300.382812 721.355469 296.652344 C 719.808594 292.917969 718.171875 289.226562 716.441406 285.578125 C 714.710938 281.925781 712.894531 278.320312 710.988281 274.757812 C 709.082031 271.195312 707.089844 267.683594 705.011719 264.21875 C 702.933594 260.753906 700.773438 257.34375 698.527344 253.984375 C 696.28125 250.628906 693.957031 247.324219 691.550781 244.082031 C 689.140625 240.835938 686.65625 237.652344 684.09375 234.53125 C 681.53125 231.410156 678.894531 228.351562 676.179688 225.359375 C 673.464844 222.367188 670.683594 219.441406 667.824219 216.585938 C 664.96875 213.726562 662.042969 210.945312 659.050781 208.230469 C 656.058594 205.515625 653 202.878906 649.878906 200.316406 C 646.753906 197.753906 643.574219 195.265625 640.328125 192.859375 C 637.085938 190.453125 633.78125 188.128906 630.425781 185.882812 C 627.066406 183.636719 623.65625 181.476562 620.191406 179.398438 C 616.726562 177.320312 613.214844 175.328125 609.652344 173.421875 C 606.089844 171.515625 602.484375 169.699219 598.832031 167.96875 C 595.183594 166.238281 591.492188 164.601562 587.757812 163.054688 C 584.027344 161.503906 580.261719 160.050781 576.457031 158.6875 C 572.65625 157.324219 568.820312 156.054688 564.957031 154.878906 C 561.09375 153.703125 557.199219 152.621094 553.28125 151.636719 C 549.363281 150.652344 545.425781 149.765625 541.464844 148.972656 C 537.503906 148.183594 533.523438 147.488281 529.527344 146.890625 C 525.535156 146.296875 521.527344 145.796875 517.507812 145.398438 C 513.484375 144.996094 509.460938 144.695312 505.425781 144.492188 C 501.390625 144.289062 497.351562 144.1875 493.3125 144.183594 Z M 493.3125 144.183594 " fill-opacity="1" fill-rule="nonzero"/></g><path fill="#c62828" d="M 451.425781 528.128906 C 446.757812 528.144531 442.132812 527.703125 437.550781 526.804688 C 432.964844 525.902344 428.519531 524.558594 424.203125 522.773438 C 419.886719 520.988281 415.789062 518.792969 411.910156 516.195312 C 408.03125 513.59375 404.445312 510.640625 401.152344 507.328125 L 352.886719 459.09375 C 352.074219 458.28125 351.28125 457.453125 350.507812 456.601562 C 349.734375 455.753906 348.984375 454.886719 348.25 454 C 347.519531 453.113281 346.8125 452.210938 346.125 451.289062 C 345.4375 450.367188 344.773438 449.429688 344.132812 448.476562 C 343.488281 447.523438 342.871094 446.558594 342.277344 445.574219 C 341.683594 444.589844 341.109375 443.59375 340.566406 442.585938 C 340.019531 441.574219 339.496094 440.550781 339 439.515625 C 338.503906 438.476562 338.03125 437.429688 337.585938 436.371094 C 337.140625 435.3125 336.722656 434.246094 336.328125 433.164062 C 335.933594 432.085938 335.566406 430.996094 335.222656 429.902344 C 334.882812 428.804688 334.570312 427.699219 334.28125 426.585938 C 333.992188 425.476562 333.734375 424.355469 333.5 423.230469 C 333.265625 422.105469 333.0625 420.976562 332.882812 419.839844 C 332.703125 418.707031 332.554688 417.566406 332.429688 416.425781 C 332.308594 415.285156 332.210938 414.140625 332.144531 412.992188 C 332.074219 411.84375 332.035156 410.699219 332.023438 409.550781 C 332.011719 408.398438 332.027344 407.25 332.070312 406.105469 C 332.117188 404.957031 332.1875 403.808594 332.285156 402.664062 C 332.386719 401.519531 332.511719 400.378906 332.667969 399.242188 C 332.824219 398.101562 333.003906 396.96875 333.214844 395.839844 C 333.425781 394.710938 333.664062 393.585938 333.925781 392.46875 C 334.191406 391.351562 334.484375 390.238281 334.800781 389.136719 C 335.121094 388.03125 335.464844 386.9375 335.835938 385.847656 C 336.207031 384.761719 336.605469 383.683594 337.027344 382.617188 C 337.453125 381.546875 337.902344 380.492188 338.378906 379.445312 C 338.851562 378.398438 339.351562 377.367188 339.878906 376.34375 C 340.402344 375.320312 340.953125 374.3125 341.527344 373.320312 C 342.101562 372.324219 342.699219 371.34375 343.320312 370.378906 C 343.941406 369.410156 344.585938 368.460938 345.253906 367.527344 C 345.921875 366.589844 346.613281 365.671875 347.324219 364.773438 C 348.039062 363.871094 348.773438 362.988281 349.527344 362.121094 C 350.28125 361.257812 351.058594 360.410156 351.855469 359.582031 C 352.652344 358.753906 353.46875 357.945312 354.304688 357.15625 C 355.140625 356.367188 355.992188 355.601562 356.867188 354.855469 C 357.738281 354.105469 358.628906 353.382812 359.539062 352.679688 C 360.445312 351.972656 361.371094 351.292969 362.3125 350.632812 C 363.253906 349.976562 364.210938 349.339844 365.179688 348.726562 C 366.152344 348.117188 367.140625 347.527344 368.140625 346.960938 C 369.140625 346.398438 370.15625 345.859375 371.179688 345.34375 C 372.207031 344.828125 373.246094 344.335938 374.296875 343.871094 C 375.347656 343.40625 376.410156 342.96875 377.480469 342.554688 C 378.554688 342.140625 379.632812 341.753906 380.726562 341.394531 C 381.816406 341.03125 382.914062 340.699219 384.019531 340.390625 C 385.128906 340.082031 386.242188 339.800781 387.363281 339.550781 C 388.484375 339.296875 389.609375 339.070312 390.742188 338.871094 C 391.871094 338.671875 393.007812 338.5 394.148438 338.355469 C 395.285156 338.210938 396.429688 338.097656 397.574219 338.007812 C 398.71875 337.921875 399.867188 337.859375 401.015625 337.828125 C 402.164062 337.792969 403.3125 337.789062 404.460938 337.8125 C 405.609375 337.835938 406.757812 337.886719 407.902344 337.964844 C 409.050781 338.042969 410.191406 338.152344 411.335938 338.285156 C 412.476562 338.417969 413.613281 338.582031 414.746094 338.769531 C 415.878906 338.960938 417.007812 339.175781 418.128906 339.421875 C 419.25 339.664062 420.367188 339.9375 421.476562 340.234375 C 422.585938 340.53125 423.6875 340.859375 424.78125 341.210938 C 425.875 341.5625 426.960938 341.941406 428.035156 342.34375 C 429.109375 342.75 430.175781 343.179688 431.230469 343.636719 C 432.285156 344.089844 433.328125 344.574219 434.355469 345.078125 C 435.386719 345.585938 436.40625 346.117188 437.410156 346.675781 C 438.417969 347.230469 439.40625 347.808594 440.386719 348.414062 C 441.363281 349.019531 442.324219 349.644531 443.269531 350.296875 C 444.21875 350.949219 445.148438 351.621094 446.0625 352.316406 C 446.976562 353.015625 447.871094 353.730469 448.75 354.472656 C 449.628906 355.210938 450.492188 355.972656 451.332031 356.753906 L 533.21875 274.867188 C 534.042969 274.042969 534.882812 273.242188 535.746094 272.460938 C 536.609375 271.679688 537.488281 270.921875 538.390625 270.183594 C 539.289062 269.449219 540.207031 268.730469 541.140625 268.039062 C 542.074219 267.347656 543.027344 266.679688 543.992188 266.03125 C 544.960938 265.386719 545.945312 264.765625 546.941406 264.167969 C 547.941406 263.570312 548.953125 262.996094 549.976562 262.449219 C 551.003906 261.902344 552.042969 261.378906 553.09375 260.882812 C 554.148438 260.382812 555.210938 259.914062 556.285156 259.46875 C 557.359375 259.023438 558.445312 258.605469 559.539062 258.214844 C 560.636719 257.824219 561.738281 257.457031 562.851562 257.121094 C 563.964844 256.785156 565.085938 256.472656 566.214844 256.191406 C 567.34375 255.910156 568.480469 255.65625 569.621094 255.429688 C 570.761719 255.203125 571.90625 255.003906 573.058594 254.832031 C 574.207031 254.664062 575.363281 254.519531 576.519531 254.40625 C 577.679688 254.292969 578.835938 254.207031 580 254.152344 C 581.160156 254.09375 582.324219 254.066406 583.488281 254.066406 C 584.648438 254.066406 585.8125 254.09375 586.976562 254.152344 C 588.136719 254.210938 589.296875 254.296875 590.453125 254.410156 C 591.613281 254.523438 592.765625 254.667969 593.917969 254.839844 C 595.066406 255.007812 596.210938 255.207031 597.351562 255.433594 C 598.496094 255.664062 599.628906 255.917969 600.757812 256.199219 C 601.886719 256.484375 603.007812 256.792969 604.121094 257.132812 C 605.234375 257.46875 606.335938 257.835938 607.433594 258.226562 C 608.527344 258.617188 609.613281 259.035156 610.6875 259.480469 C 611.761719 259.925781 612.824219 260.398438 613.875 260.894531 C 614.925781 261.394531 615.964844 261.917969 616.992188 262.464844 C 618.019531 263.011719 619.03125 263.585938 620.027344 264.183594 C 621.023438 264.78125 622.007812 265.40625 622.972656 266.050781 C 623.941406 266.699219 624.890625 267.367188 625.828125 268.058594 C 626.761719 268.753906 627.675781 269.46875 628.578125 270.207031 C 629.476562 270.945312 630.355469 271.703125 631.21875 272.484375 C 632.082031 273.265625 632.921875 274.070312 633.746094 274.890625 C 634.566406 275.714844 635.371094 276.554688 636.152344 277.417969 C 636.933594 278.28125 637.691406 279.160156 638.429688 280.058594 C 639.167969 280.957031 639.882812 281.875 640.574219 282.808594 C 641.269531 283.742188 641.9375 284.695312 642.585938 285.660156 C 643.230469 286.628906 643.851562 287.613281 644.453125 288.609375 C 645.050781 289.605469 645.621094 290.617188 646.171875 291.644531 C 646.71875 292.671875 647.242188 293.710938 647.742188 294.761719 C 648.238281 295.8125 648.710938 296.875 649.15625 297.949219 C 649.601562 299.023438 650.019531 300.109375 650.410156 301.203125 C 650.800781 302.300781 651.167969 303.402344 651.503906 304.515625 C 651.84375 305.628906 652.152344 306.75 652.4375 307.878906 C 652.71875 309.007812 652.972656 310.140625 653.199219 311.28125 C 653.429688 312.421875 653.628906 313.570312 653.796875 314.71875 C 653.96875 315.871094 654.113281 317.023438 654.226562 318.183594 C 654.339844 319.339844 654.425781 320.5 654.484375 321.660156 C 654.539062 322.824219 654.570312 323.984375 654.570312 325.148438 C 654.570312 326.3125 654.542969 327.476562 654.484375 328.636719 C 654.429688 329.796875 654.34375 330.957031 654.230469 332.117188 C 654.117188 333.273438 653.972656 334.429688 653.804688 335.578125 C 653.632812 336.730469 653.433594 337.875 653.207031 339.015625 C 652.980469 340.15625 652.726562 341.292969 652.445312 342.421875 C 652.164062 343.550781 651.851562 344.667969 651.515625 345.78125 C 651.179688 346.894531 650.8125 348 650.421875 349.097656 C 650.03125 350.191406 649.613281 351.277344 649.167969 352.351562 C 648.722656 353.425781 648.253906 354.488281 647.753906 355.542969 C 647.257812 356.59375 646.734375 357.632812 646.1875 358.65625 C 645.640625 359.683594 645.066406 360.695312 644.46875 361.695312 C 643.871094 362.691406 643.25 363.675781 642.605469 364.640625 C 641.957031 365.609375 641.289062 366.5625 640.597656 367.496094 C 639.902344 368.429688 639.1875 369.347656 638.453125 370.246094 C 637.714844 371.144531 636.953125 372.027344 636.175781 372.890625 C 635.394531 373.75 634.59375 374.59375 633.769531 375.417969 L 501.796875 507.390625 C 498.496094 510.699219 494.898438 513.652344 491.011719 516.25 C 487.125 518.847656 483.015625 521.035156 478.695312 522.816406 C 474.371094 524.59375 469.914062 525.933594 465.324219 526.828125 C 460.734375 527.722656 456.101562 528.15625 451.425781 528.128906 Z M 403.164062 388.144531 C 402.144531 388.140625 401.128906 388.214844 400.121094 388.363281 C 399.109375 388.511719 398.117188 388.734375 397.140625 389.027344 C 396.164062 389.324219 395.214844 389.6875 394.292969 390.125 C 393.371094 390.558594 392.484375 391.058594 391.636719 391.625 C 390.789062 392.191406 389.988281 392.816406 389.230469 393.5 C 388.476562 394.1875 387.773438 394.921875 387.125 395.710938 C 386.480469 396.5 385.894531 397.332031 385.367188 398.207031 C 384.84375 399.082031 384.386719 399.988281 383.996094 400.933594 C 383.605469 401.875 383.289062 402.839844 383.042969 403.828125 C 382.792969 404.820312 382.621094 405.820312 382.523438 406.835938 C 382.421875 407.851562 382.398438 408.867188 382.449219 409.886719 C 382.5 410.90625 382.625 411.914062 382.828125 412.914062 C 383.027344 413.914062 383.300781 414.894531 383.644531 415.855469 C 383.988281 416.816406 384.402344 417.746094 384.886719 418.644531 C 385.367188 419.542969 385.914062 420.398438 386.523438 421.21875 C 387.132812 422.035156 387.796875 422.804688 388.519531 423.523438 L 436.753906 471.789062 C 437.234375 472.269531 437.738281 472.722656 438.261719 473.152344 C 438.789062 473.582031 439.332031 473.984375 439.898438 474.359375 C 440.460938 474.738281 441.042969 475.085938 441.644531 475.402344 C 442.242188 475.722656 442.855469 476.011719 443.480469 476.269531 C 444.109375 476.53125 444.746094 476.757812 445.398438 476.953125 C 446.046875 477.152344 446.703125 477.316406 447.371094 477.445312 C 448.035156 477.578125 448.707031 477.679688 449.378906 477.746094 C 450.054688 477.8125 450.734375 477.84375 451.410156 477.84375 C 452.089844 477.84375 452.765625 477.8125 453.441406 477.746094 C 454.117188 477.679688 454.789062 477.578125 455.453125 477.445312 C 456.121094 477.316406 456.777344 477.152344 457.425781 476.953125 C 458.074219 476.757812 458.714844 476.53125 459.339844 476.269531 C 459.96875 476.011719 460.582031 475.722656 461.179688 475.402344 C 461.78125 475.085938 462.359375 474.738281 462.925781 474.359375 C 463.492188 473.984375 464.035156 473.582031 464.5625 473.152344 C 465.085938 472.722656 465.589844 472.269531 466.070312 471.789062 L 598.042969 339.816406 C 598.523438 339.335938 598.976562 338.832031 599.410156 338.308594 C 599.839844 337.785156 600.242188 337.238281 600.621094 336.675781 C 600.996094 336.109375 601.34375 335.527344 601.664062 334.929688 C 601.984375 334.332031 602.273438 333.71875 602.535156 333.089844 C 602.792969 332.464844 603.023438 331.824219 603.21875 331.175781 C 603.414062 330.523438 603.582031 329.867188 603.714844 329.203125 C 603.84375 328.535156 603.945312 327.863281 604.011719 327.191406 C 604.078125 326.515625 604.109375 325.835938 604.109375 325.15625 C 604.109375 324.480469 604.078125 323.800781 604.011719 323.125 C 603.945312 322.449219 603.84375 321.78125 603.710938 321.113281 C 603.582031 320.449219 603.414062 319.789062 603.21875 319.140625 C 603.023438 318.492188 602.792969 317.851562 602.535156 317.226562 C 602.273438 316.597656 601.984375 315.984375 601.664062 315.386719 C 601.34375 314.789062 600.996094 314.207031 600.621094 313.640625 C 600.242188 313.078125 599.839844 312.53125 599.410156 312.007812 C 598.976562 311.480469 598.523438 310.980469 598.042969 310.5 C 597.5625 310.019531 597.058594 309.566406 596.535156 309.136719 C 596.007812 308.707031 595.464844 308.304688 594.898438 307.929688 C 594.332031 307.550781 593.753906 307.203125 593.152344 306.886719 C 592.554688 306.566406 591.941406 306.277344 591.3125 306.015625 C 590.6875 305.757812 590.046875 305.53125 589.398438 305.335938 C 588.75 305.136719 588.09375 304.972656 587.425781 304.839844 C 586.761719 304.710938 586.089844 304.609375 585.414062 304.542969 C 584.738281 304.476562 584.0625 304.445312 583.382812 304.445312 C 582.707031 304.445312 582.027344 304.476562 581.355469 304.542969 C 580.679688 304.609375 580.007812 304.710938 579.34375 304.839844 C 578.675781 304.972656 578.019531 305.136719 577.371094 305.335938 C 576.71875 305.53125 576.082031 305.757812 575.453125 306.015625 C 574.828125 306.277344 574.214844 306.566406 573.617188 306.886719 C 573.015625 307.203125 572.433594 307.550781 571.871094 307.929688 C 571.304688 308.304688 570.761719 308.707031 570.234375 309.136719 C 569.710938 309.566406 569.207031 310.019531 568.726562 310.5 L 469.085938 410.140625 C 468.503906 410.71875 467.894531 411.273438 467.257812 411.792969 C 466.621094 412.316406 465.960938 412.804688 465.277344 413.261719 C 464.59375 413.71875 463.886719 414.140625 463.164062 414.53125 C 462.4375 414.917969 461.695312 415.269531 460.933594 415.582031 C 460.171875 415.898438 459.398438 416.175781 458.613281 416.414062 C 457.824219 416.652344 457.027344 416.851562 456.21875 417.011719 C 455.414062 417.171875 454.597656 417.292969 453.78125 417.375 C 452.960938 417.457031 452.140625 417.496094 451.316406 417.496094 C 450.496094 417.496094 449.671875 417.457031 448.855469 417.375 C 448.035156 417.292969 447.222656 417.171875 446.414062 417.011719 C 445.609375 416.851562 444.8125 416.652344 444.023438 416.414062 C 443.234375 416.175781 442.460938 415.898438 441.703125 415.582031 C 440.941406 415.269531 440.199219 414.917969 439.472656 414.53125 C 438.746094 414.140625 438.042969 413.71875 437.355469 413.261719 C 436.671875 412.804688 436.011719 412.316406 435.375 411.792969 C 434.738281 411.273438 434.128906 410.71875 433.546875 410.140625 L 417.835938 394.425781 C 416.882812 393.441406 415.84375 392.5625 414.714844 391.78125 C 413.585938 391.003906 412.394531 390.347656 411.132812 389.808594 C 409.875 389.269531 408.574219 388.859375 407.230469 388.578125 C 405.890625 388.296875 404.535156 388.152344 403.164062 388.144531 Z M 403.164062 388.144531 " fill-opacity="1" fill-rule="nonzero"/><path fill="#c62828" d="M 1174.953125 933.628906 C 1174.128906 933.628906 1173.308594 933.589844 1172.488281 933.507812 C 1171.667969 933.429688 1170.855469 933.308594 1170.046875 933.148438 C 1169.242188 932.988281 1168.441406 932.785156 1167.65625 932.546875 C 1166.867188 932.308594 1166.09375 932.03125 1165.332031 931.71875 C 1164.570312 931.402344 1163.828125 931.050781 1163.101562 930.664062 C 1162.375 930.273438 1161.671875 929.851562 1160.984375 929.394531 C 1160.300781 928.9375 1159.640625 928.445312 1159.003906 927.925781 C 1158.367188 927.402344 1157.757812 926.851562 1157.175781 926.269531 C 1156.59375 925.6875 1156.042969 925.078125 1155.519531 924.441406 C 1154.996094 923.804688 1154.507812 923.144531 1154.050781 922.457031 C 1153.59375 921.773438 1153.171875 921.070312 1152.78125 920.34375 C 1152.394531 919.617188 1152.042969 918.875 1151.726562 918.113281 C 1151.414062 917.351562 1151.136719 916.578125 1150.898438 915.789062 C 1150.65625 915.003906 1150.457031 914.203125 1150.296875 913.398438 C 1150.136719 912.589844 1150.015625 911.777344 1149.933594 910.957031 C 1149.855469 910.136719 1149.8125 909.316406 1149.8125 908.492188 L 1149.8125 496.863281 C 1149.8125 496.328125 1149.761719 495.800781 1149.65625 495.277344 C 1149.554688 494.75 1149.398438 494.242188 1149.195312 493.75 C 1148.988281 493.253906 1148.738281 492.785156 1148.441406 492.34375 C 1148.144531 491.898438 1147.808594 491.488281 1147.429688 491.109375 C 1147.050781 490.730469 1146.640625 490.394531 1146.199219 490.097656 C 1145.753906 489.800781 1145.285156 489.550781 1144.789062 489.34375 C 1144.296875 489.140625 1143.789062 488.984375 1143.261719 488.882812 C 1142.738281 488.777344 1142.210938 488.726562 1141.675781 488.726562 L 755.5625 488.726562 C 754.738281 488.726562 753.917969 488.683594 753.097656 488.605469 C 752.277344 488.523438 751.464844 488.402344 750.65625 488.242188 C 749.851562 488.082031 749.050781 487.882812 748.265625 487.644531 C 747.476562 487.402344 746.703125 487.128906 745.941406 486.8125 C 745.179688 486.496094 744.4375 486.144531 743.710938 485.757812 C 742.984375 485.367188 742.28125 484.945312 741.597656 484.488281 C 740.910156 484.03125 740.25 483.542969 739.613281 483.019531 C 738.976562 482.496094 738.367188 481.945312 737.785156 481.363281 C 737.203125 480.78125 736.652344 480.171875 736.128906 479.535156 C 735.609375 478.898438 735.117188 478.238281 734.660156 477.554688 C 734.203125 476.867188 733.78125 476.164062 733.390625 475.4375 C 733.003906 474.710938 732.652344 473.96875 732.335938 473.207031 C 732.023438 472.445312 731.746094 471.671875 731.507812 470.886719 C 731.265625 470.097656 731.066406 469.300781 730.90625 468.492188 C 730.746094 467.683594 730.625 466.871094 730.546875 466.050781 C 730.464844 465.230469 730.425781 464.410156 730.425781 463.585938 C 730.425781 462.765625 730.464844 461.941406 730.546875 461.125 C 730.625 460.304688 730.746094 459.492188 730.90625 458.683594 C 731.066406 457.875 731.265625 457.078125 731.507812 456.289062 C 731.746094 455.503906 732.023438 454.730469 732.335938 453.96875 C 732.652344 453.207031 733.003906 452.464844 733.390625 451.738281 C 733.78125 451.011719 734.203125 450.304688 734.660156 449.621094 C 735.117188 448.9375 735.609375 448.277344 736.128906 447.640625 C 736.652344 447.003906 737.203125 446.394531 737.785156 445.8125 C 738.367188 445.230469 738.976562 444.679688 739.613281 444.15625 C 740.25 443.632812 740.910156 443.144531 741.597656 442.6875 C 742.28125 442.230469 742.984375 441.804688 743.710938 441.417969 C 744.4375 441.03125 745.179688 440.679688 745.941406 440.363281 C 746.703125 440.046875 747.476562 439.773438 748.265625 439.53125 C 749.050781 439.292969 749.851562 439.09375 750.65625 438.933594 C 751.464844 438.773438 752.277344 438.652344 753.097656 438.570312 C 753.917969 438.492188 754.738281 438.449219 755.5625 438.449219 L 1141.832031 438.449219 C 1143.746094 438.453125 1145.652344 438.546875 1147.558594 438.738281 C 1149.460938 438.925781 1151.347656 439.207031 1153.226562 439.582031 C 1155.101562 439.957031 1156.953125 440.421875 1158.78125 440.980469 C 1160.613281 441.535156 1162.410156 442.179688 1164.175781 442.914062 C 1165.945312 443.644531 1167.671875 444.464844 1169.355469 445.367188 C 1171.042969 446.269531 1172.679688 447.25 1174.269531 448.3125 C 1175.859375 449.375 1177.394531 450.515625 1178.875 451.730469 C 1180.351562 452.941406 1181.765625 454.226562 1183.121094 455.578125 C 1184.472656 456.929688 1185.753906 458.34375 1186.96875 459.824219 C 1188.183594 461.300781 1189.320312 462.835938 1190.382812 464.425781 C 1191.445312 466.015625 1192.429688 467.652344 1193.332031 469.339844 C 1194.234375 471.027344 1195.050781 472.753906 1195.785156 474.519531 C 1196.515625 476.285156 1197.160156 478.085938 1197.71875 479.914062 C 1198.273438 481.742188 1198.738281 483.597656 1199.113281 485.472656 C 1199.488281 487.347656 1199.769531 489.238281 1199.960938 491.140625 C 1200.148438 493.042969 1200.246094 494.953125 1200.246094 496.863281 L 1200.246094 908.492188 C 1200.246094 909.320312 1200.207031 910.144531 1200.125 910.964844 C 1200.042969 911.789062 1199.921875 912.605469 1199.761719 913.417969 C 1199.597656 914.226562 1199.398438 915.027344 1199.15625 915.816406 C 1198.914062 916.609375 1198.636719 917.386719 1198.316406 918.148438 C 1198 918.910156 1197.648438 919.65625 1197.253906 920.386719 C 1196.863281 921.113281 1196.4375 921.820312 1195.976562 922.507812 C 1195.515625 923.195312 1195.023438 923.855469 1194.496094 924.492188 C 1193.972656 925.128906 1193.414062 925.742188 1192.828125 926.324219 C 1192.242188 926.90625 1191.628906 927.457031 1190.988281 927.980469 C 1190.347656 928.503906 1189.683594 928.992188 1188.992188 929.449219 C 1188.304688 929.90625 1187.59375 930.328125 1186.863281 930.714844 C 1186.132812 931.101562 1185.386719 931.449219 1184.621094 931.761719 C 1183.855469 932.074219 1183.078125 932.347656 1182.285156 932.585938 C 1181.492188 932.820312 1180.691406 933.015625 1179.878906 933.175781 C 1179.066406 933.332031 1178.25 933.449219 1177.425781 933.523438 C 1176.601562 933.601562 1175.777344 933.636719 1174.953125 933.628906 Z M 1174.953125 933.628906 " fill-opacity="1" fill-rule="nonzero"/><path fill="#c62828" d="M 627.265625 911.980469 C 626.441406 911.980469 625.621094 911.941406 624.800781 911.859375 C 623.980469 911.777344 623.167969 911.65625 622.359375 911.496094 C 621.554688 911.335938 620.757812 911.136719 619.96875 910.898438 C 619.179688 910.660156 618.40625 910.382812 617.644531 910.066406 C 616.886719 909.753906 616.140625 909.402344 615.414062 909.011719 C 614.6875 908.625 613.984375 908.203125 613.300781 907.742188 C 612.613281 907.285156 611.953125 906.796875 611.316406 906.273438 C 610.683594 905.753906 610.074219 905.199219 609.492188 904.617188 C 608.90625 904.035156 608.355469 903.425781 607.832031 902.789062 C 607.3125 902.152344 606.820312 901.492188 606.363281 900.808594 C 605.90625 900.125 605.484375 899.417969 605.097656 898.691406 C 604.707031 897.964844 604.355469 897.222656 604.039062 896.460938 C 603.726562 895.703125 603.449219 894.929688 603.210938 894.140625 C 602.972656 893.351562 602.769531 892.554688 602.609375 891.746094 C 602.449219 890.941406 602.328125 890.125 602.25 889.308594 C 602.167969 888.488281 602.128906 887.667969 602.128906 886.84375 L 602.128906 627.925781 C 602.128906 627.101562 602.167969 626.28125 602.25 625.460938 C 602.328125 624.640625 602.449219 623.828125 602.609375 623.019531 C 602.769531 622.214844 602.972656 621.414062 603.210938 620.628906 C 603.449219 619.839844 603.726562 619.066406 604.039062 618.304688 C 604.355469 617.542969 604.707031 616.800781 605.097656 616.074219 C 605.484375 615.347656 605.90625 614.644531 606.363281 613.960938 C 606.820312 613.273438 607.3125 612.613281 607.832031 611.976562 C 608.355469 611.339844 608.90625 610.730469 609.492188 610.148438 C 610.074219 609.566406 610.683594 609.015625 611.316406 608.492188 C 611.953125 607.972656 612.613281 607.480469 613.300781 607.023438 C 613.984375 606.566406 614.6875 606.144531 615.414062 605.753906 C 616.140625 605.367188 616.886719 605.015625 617.644531 604.699219 C 618.40625 604.386719 619.179688 604.109375 619.96875 603.871094 C 620.757812 603.632812 621.554688 603.429688 622.359375 603.269531 C 623.167969 603.109375 623.980469 602.988281 624.800781 602.910156 C 625.621094 602.828125 626.441406 602.789062 627.265625 602.789062 C 628.089844 602.789062 628.910156 602.828125 629.730469 602.910156 C 630.546875 602.988281 631.363281 603.109375 632.167969 603.269531 C 632.976562 603.429688 633.773438 603.632812 634.5625 603.871094 C 635.351562 604.109375 636.125 604.386719 636.886719 604.699219 C 637.644531 605.015625 638.390625 605.367188 639.113281 605.753906 C 639.839844 606.144531 640.546875 606.566406 641.230469 607.023438 C 641.914062 607.480469 642.574219 607.972656 643.210938 608.492188 C 643.847656 609.015625 644.457031 609.566406 645.039062 610.148438 C 645.621094 610.730469 646.175781 611.339844 646.695312 611.976562 C 647.21875 612.613281 647.710938 613.273438 648.167969 613.960938 C 648.625 614.644531 649.046875 615.347656 649.433594 616.074219 C 649.824219 616.800781 650.175781 617.542969 650.488281 618.304688 C 650.804688 619.066406 651.082031 619.839844 651.320312 620.628906 C 651.558594 621.414062 651.757812 622.214844 651.917969 623.019531 C 652.082031 623.828125 652.203125 624.640625 652.28125 625.460938 C 652.363281 626.28125 652.402344 627.101562 652.402344 627.925781 L 652.402344 886.8125 C 652.402344 887.636719 652.363281 888.457031 652.285156 889.277344 C 652.203125 890.097656 652.085938 890.910156 651.925781 891.71875 C 651.765625 892.527344 651.566406 893.328125 651.328125 894.117188 C 651.089844 894.902344 650.8125 895.679688 650.5 896.441406 C 650.183594 897.203125 649.832031 897.945312 649.445312 898.671875 C 649.058594 899.402344 648.632812 900.105469 648.175781 900.792969 C 647.71875 901.476562 647.230469 902.140625 646.707031 902.777344 C 646.1875 903.414062 645.632812 904.023438 645.050781 904.605469 C 644.46875 905.191406 643.859375 905.742188 643.222656 906.265625 C 642.585938 906.789062 641.925781 907.277344 641.242188 907.738281 C 640.554688 908.195312 639.851562 908.617188 639.125 909.007812 C 638.398438 909.394531 637.652344 909.75 636.890625 910.0625 C 636.132812 910.378906 635.355469 910.65625 634.566406 910.894531 C 633.78125 911.136719 632.980469 911.335938 632.171875 911.496094 C 631.363281 911.65625 630.550781 911.777344 629.730469 911.859375 C 628.910156 911.941406 628.089844 911.980469 627.265625 911.980469 Z M 627.265625 911.980469 " fill-opacity="1" fill-rule="nonzero"/><path fill="#c62828" d="M 911.917969 702.207031 L 890.457031 702.207031 C 888.804688 702.207031 887.167969 702.042969 885.546875 701.722656 C 883.929688 701.398438 882.355469 700.917969 880.828125 700.285156 C 879.304688 699.652344 877.855469 698.875 876.480469 697.957031 C 875.109375 697.035156 873.839844 695.992188 872.671875 694.824219 L 806.496094 628.648438 C 805.328125 627.480469 804.289062 626.210938 803.371094 624.835938 C 802.457031 623.460938 801.683594 622.011719 801.050781 620.488281 C 800.421875 618.960938 799.945312 617.386719 799.625 615.769531 C 799.300781 614.148438 799.144531 612.515625 799.144531 610.863281 L 799.144531 463.714844 C 799.144531 462.890625 799.183594 462.070312 799.265625 461.25 C 799.347656 460.429688 799.464844 459.617188 799.628906 458.808594 C 799.789062 458 799.988281 457.203125 800.226562 456.417969 C 800.464844 455.628906 800.742188 454.855469 801.058594 454.09375 C 801.371094 453.332031 801.722656 452.589844 802.113281 451.863281 C 802.5 451.136719 802.921875 450.433594 803.378906 449.746094 C 803.839844 449.0625 804.328125 448.402344 804.851562 447.765625 C 805.371094 447.128906 805.925781 446.519531 806.507812 445.9375 C 807.089844 445.355469 807.699219 444.804688 808.335938 444.28125 C 808.972656 443.757812 809.632812 443.269531 810.316406 442.8125 C 811 442.355469 811.707031 441.933594 812.433594 441.542969 C 813.15625 441.15625 813.902344 440.804688 814.660156 440.488281 C 815.421875 440.175781 816.195312 439.898438 816.984375 439.65625 C 817.773438 439.417969 818.570312 439.21875 819.378906 439.058594 C 820.183594 438.898438 821 438.777344 821.816406 438.695312 C 822.636719 438.617188 823.457031 438.574219 824.28125 438.574219 L 978.25 438.574219 C 979.074219 438.574219 979.894531 438.617188 980.714844 438.695312 C 981.53125 438.777344 982.347656 438.898438 983.152344 439.058594 C 983.960938 439.21875 984.757812 439.417969 985.546875 439.65625 C 986.335938 439.898438 987.109375 440.175781 987.871094 440.488281 C 988.628906 440.804688 989.375 441.15625 990.097656 441.542969 C 990.824219 441.933594 991.53125 442.355469 992.214844 442.8125 C 992.898438 443.269531 993.558594 443.757812 994.195312 444.28125 C 994.832031 444.804688 995.441406 445.355469 996.023438 445.9375 C 996.605469 446.519531 997.160156 447.128906 997.679688 447.765625 C 998.203125 448.402344 998.695312 449.0625 999.152344 449.746094 C 999.609375 450.433594 1000.03125 451.136719 1000.417969 451.863281 C 1000.808594 452.589844 1001.160156 453.332031 1001.472656 454.09375 C 1001.789062 454.855469 1002.066406 455.628906 1002.304688 456.417969 C 1002.542969 457.203125 1002.742188 458 1002.90625 458.808594 C 1003.066406 459.617188 1003.1875 460.429688 1003.265625 461.25 C 1003.347656 462.070312 1003.386719 462.890625 1003.386719 463.714844 L 1003.386719 610.863281 C 1003.390625 612.515625 1003.230469 614.148438 1002.90625 615.769531 C 1002.585938 617.386719 1002.113281 618.960938 1001.480469 620.488281 C 1000.851562 622.011719 1000.078125 623.460938 999.160156 624.835938 C 998.242188 626.210938 997.203125 627.480469 996.035156 628.648438 L 929.828125 694.824219 C 928.652344 696 927.375 697.050781 925.992188 697.972656 C 924.609375 698.898438 923.148438 699.675781 921.613281 700.308594 C 920.074219 700.941406 918.492188 701.417969 916.859375 701.738281 C 915.226562 702.058594 913.582031 702.214844 911.917969 702.207031 Z M 900.730469 651.929688 L 901.484375 651.929688 L 952.953125 600.460938 L 952.953125 488.851562 L 849.261719 488.851562 L 849.261719 600.460938 Z M 900.730469 651.929688 " fill-opacity="1" fill-rule="nonzero"/><path fill="#c62828" d="M 329.382812 1314.589844 C 328.5625 1314.59375 327.738281 1314.558594 326.917969 1314.480469 C 326.101562 1314.402344 325.285156 1314.285156 324.476562 1314.125 C 323.671875 1313.96875 322.871094 1313.773438 322.082031 1313.535156 C 321.292969 1313.300781 320.519531 1313.027344 319.757812 1312.714844 C 318.996094 1312.402344 318.25 1312.054688 317.523438 1311.667969 C 316.796875 1311.28125 316.089844 1310.863281 315.402344 1310.40625 C 314.714844 1309.953125 314.054688 1309.464844 313.414062 1308.945312 C 312.777344 1308.425781 312.164062 1307.875 311.582031 1307.296875 C 310.996094 1306.714844 310.441406 1306.109375 309.917969 1305.472656 C 309.394531 1304.839844 308.902344 1304.179688 308.441406 1303.496094 C 307.980469 1302.816406 307.554688 1302.113281 307.164062 1301.386719 C 306.773438 1300.664062 306.417969 1299.921875 306.101562 1299.160156 C 305.785156 1298.402344 305.503906 1297.628906 305.261719 1296.839844 C 305.019531 1296.054688 304.816406 1295.257812 304.652344 1294.449219 C 304.488281 1293.644531 304.367188 1292.832031 304.28125 1292.011719 C 304.199219 1291.191406 304.15625 1290.371094 304.152344 1289.546875 C 304.148438 1288.726562 304.1875 1287.902344 304.265625 1287.082031 C 304.339844 1286.265625 304.460938 1285.449219 304.617188 1284.640625 C 304.773438 1283.835938 304.972656 1283.035156 305.207031 1282.246094 C 305.441406 1281.457031 305.71875 1280.683594 306.03125 1279.921875 C 306.339844 1279.160156 306.691406 1278.414062 307.074219 1277.6875 C 307.460938 1276.960938 307.882812 1276.253906 308.335938 1275.566406 C 308.792969 1274.878906 309.277344 1274.21875 309.796875 1273.578125 C 310.316406 1272.941406 310.867188 1272.328125 311.449219 1271.746094 C 312.027344 1271.160156 312.636719 1270.605469 313.269531 1270.082031 C 313.902344 1269.558594 314.5625 1269.066406 315.246094 1268.605469 C 315.929688 1268.144531 316.632812 1267.71875 317.355469 1267.328125 C 318.082031 1266.9375 318.824219 1266.582031 319.582031 1266.265625 C 320.34375 1265.949219 321.117188 1265.667969 321.902344 1265.425781 C 322.691406 1265.183594 323.488281 1264.980469 324.292969 1264.816406 C 325.101562 1264.652344 325.914062 1264.53125 326.730469 1264.445312 C 327.550781 1264.363281 328.371094 1264.320312 329.195312 1264.316406 L 822.867188 1260.578125 C 832.734375 1260.601562 842.585938 1260.246094 852.421875 1259.507812 C 862.257812 1258.769531 872.050781 1257.648438 881.804688 1256.152344 C 891.554688 1254.652344 901.230469 1252.777344 910.835938 1250.527344 C 920.441406 1248.277344 929.945312 1245.660156 939.347656 1242.671875 C 948.75 1239.6875 958.023438 1236.339844 967.164062 1232.632812 C 976.304688 1228.925781 985.292969 1224.871094 994.117188 1220.46875 C 1002.945312 1216.0625 1011.589844 1211.324219 1020.050781 1206.25 C 1028.511719 1201.175781 1036.761719 1195.78125 1044.800781 1190.066406 L 1420.136719 923.605469 C 1421.839844 922.460938 1423.480469 921.234375 1425.0625 919.929688 C 1426.644531 918.621094 1428.160156 917.242188 1429.605469 915.789062 C 1431.050781 914.332031 1432.421875 912.8125 1433.71875 911.222656 C 1435.015625 909.632812 1436.234375 907.984375 1437.371094 906.277344 C 1438.507812 904.570312 1439.554688 902.8125 1440.519531 901 C 1441.484375 899.1875 1442.355469 897.335938 1443.136719 895.441406 C 1443.921875 893.542969 1444.609375 891.613281 1445.199219 889.648438 C 1445.792969 887.6875 1446.289062 885.699219 1446.6875 883.6875 C 1447.085938 881.675781 1447.386719 879.648438 1447.585938 877.605469 C 1447.785156 875.566406 1447.886719 873.519531 1447.886719 871.46875 C 1447.886719 869.417969 1447.785156 867.371094 1447.585938 865.328125 C 1447.382812 863.289062 1447.085938 861.261719 1446.6875 859.25 C 1446.285156 857.238281 1445.789062 855.25 1445.195312 853.285156 C 1444.601562 851.320312 1443.914062 849.390625 1443.132812 847.496094 C 1442.347656 845.601562 1441.476562 843.746094 1440.511719 841.9375 C 1439.546875 840.125 1438.496094 838.367188 1437.359375 836.660156 C 1436.222656 834.953125 1435.007812 833.304688 1433.710938 831.714844 C 1432.410156 830.125 1431.039062 828.605469 1429.59375 827.152344 C 1428.144531 825.699219 1426.632812 824.316406 1425.050781 823.011719 C 1423.46875 821.707031 1421.828125 820.480469 1420.125 819.335938 C 1418.421875 818.191406 1416.667969 817.132812 1414.863281 816.15625 C 1413.058594 815.183594 1411.210938 814.300781 1409.316406 813.507812 C 1407.425781 812.71875 1405.5 812.019531 1403.539062 811.414062 C 1401.578125 810.8125 1399.59375 810.304688 1397.582031 809.894531 C 1395.574219 809.488281 1393.546875 809.175781 1391.507812 808.964844 C 1389.46875 808.753906 1387.421875 808.644531 1385.371094 808.632812 C 1383.320312 808.621094 1381.273438 808.710938 1379.230469 808.902344 C 1377.1875 809.089844 1375.160156 809.378906 1373.144531 809.769531 C 1371.132812 810.15625 1369.140625 810.640625 1367.175781 811.226562 C 1365.207031 811.808594 1363.273438 812.484375 1361.375 813.257812 C 1359.472656 814.03125 1357.617188 814.894531 1355.800781 815.847656 C 1353.984375 816.804688 1352.222656 817.84375 1350.507812 818.972656 L 1041.722656 1029.8125 C 1041.042969 1030.320312 1040.34375 1030.792969 1039.617188 1031.226562 C 1038.890625 1031.664062 1038.144531 1032.0625 1037.378906 1032.421875 C 1036.613281 1032.785156 1035.832031 1033.105469 1035.035156 1033.386719 C 1034.238281 1033.667969 1033.425781 1033.910156 1032.605469 1034.109375 C 1031.78125 1034.308594 1030.949219 1034.464844 1030.113281 1034.582031 C 1029.273438 1034.699219 1028.433594 1034.773438 1027.585938 1034.804688 C 1026.742188 1034.832031 1025.894531 1034.820312 1025.050781 1034.765625 C 1024.207031 1034.714844 1023.367188 1034.617188 1022.53125 1034.476562 C 1021.695312 1034.335938 1020.871094 1034.15625 1020.054688 1033.933594 C 1019.238281 1033.710938 1018.433594 1033.449219 1017.644531 1033.144531 C 1016.855469 1032.839844 1016.082031 1032.496094 1015.324219 1032.117188 C 1014.570312 1031.734375 1013.835938 1031.316406 1013.125 1030.859375 C 1012.410156 1030.402344 1011.722656 1029.910156 1011.058594 1029.386719 C 1010.394531 1028.859375 1009.761719 1028.304688 1009.152344 1027.714844 C 1008.546875 1027.125 1007.96875 1026.503906 1007.425781 1025.855469 C 1006.878906 1025.207031 1006.371094 1024.535156 1005.894531 1023.835938 C 1005.417969 1023.136719 1004.976562 1022.414062 1004.574219 1021.671875 C 1004.167969 1020.925781 1003.804688 1020.164062 1003.476562 1019.382812 C 1003.152344 1018.601562 1002.863281 1017.808594 1002.617188 1016.996094 C 1002.371094 1016.1875 1002.167969 1015.367188 1002.003906 1014.539062 C 1001.839844 1013.707031 1001.71875 1012.871094 1001.640625 1012.027344 C 1001.5625 1011.183594 1001.523438 1010.339844 1001.53125 1009.492188 C 1001.539062 1008.648438 1001.585938 1007.804688 1001.675781 1006.960938 C 1001.769531 1006.121094 1001.902344 1005.285156 1002.078125 1004.457031 C 1002.253906 1003.628906 1002.472656 1002.8125 1002.730469 1002.007812 C 1002.988281 1001.199219 1003.289062 1000.410156 1003.625 999.632812 C 1003.964844 998.859375 1004.339844 998.101562 1004.753906 997.363281 C 1005.167969 996.625 1005.621094 995.910156 1006.109375 995.21875 C 1006.59375 994.527344 1007.117188 993.859375 1007.667969 993.222656 C 1008.222656 992.582031 1008.808594 991.972656 1009.425781 991.390625 C 1010.039062 990.808594 1010.683594 990.261719 1011.355469 989.746094 C 1012.027344 989.230469 1012.722656 988.75 1013.441406 988.304688 L 1322.636719 777.054688 L 1323.390625 776.550781 C 1324.929688 775.539062 1326.488281 774.566406 1328.074219 773.628906 C 1329.660156 772.691406 1331.269531 771.796875 1332.898438 770.9375 C 1334.527344 770.082031 1336.179688 769.261719 1337.847656 768.488281 C 1339.515625 767.710938 1341.203125 766.972656 1342.910156 766.277344 C 1344.617188 765.585938 1346.335938 764.929688 1348.074219 764.320312 C 1349.8125 763.710938 1351.5625 763.144531 1353.328125 762.617188 C 1355.09375 762.09375 1356.871094 761.609375 1358.660156 761.171875 C 1360.445312 760.734375 1362.246094 760.339844 1364.054688 759.988281 C 1365.859375 759.640625 1367.675781 759.332031 1369.5 759.070312 C 1371.320312 758.808594 1373.148438 758.59375 1374.984375 758.417969 C 1376.816406 758.246094 1378.652344 758.121094 1380.492188 758.035156 C 1382.332031 757.953125 1384.171875 757.917969 1386.015625 757.921875 C 1387.855469 757.929688 1389.695312 757.980469 1391.535156 758.078125 C 1393.375 758.175781 1395.210938 758.316406 1397.042969 758.503906 C 1398.875 758.691406 1400.699219 758.921875 1402.519531 759.199219 C 1404.339844 759.472656 1406.15625 759.792969 1407.960938 760.160156 C 1409.765625 760.523438 1411.558594 760.929688 1413.34375 761.382812 C 1415.128906 761.835938 1416.902344 762.332031 1418.664062 762.867188 C 1420.425781 763.40625 1422.171875 763.988281 1423.90625 764.613281 C 1425.636719 765.238281 1427.351562 765.902344 1429.054688 766.609375 C 1430.753906 767.316406 1432.433594 768.066406 1434.097656 768.855469 C 1435.761719 769.644531 1437.40625 770.476562 1439.027344 771.347656 C 1440.652344 772.214844 1442.253906 773.125 1443.832031 774.074219 C 1445.410156 775.023438 1446.964844 776.007812 1448.496094 777.03125 C 1450.023438 778.058594 1451.53125 779.117188 1453.007812 780.214844 C 1454.488281 781.3125 1455.9375 782.445312 1457.359375 783.613281 C 1458.785156 784.785156 1460.179688 785.984375 1461.542969 787.222656 C 1462.90625 788.460938 1464.242188 789.726562 1465.542969 791.03125 C 1466.84375 792.332031 1468.117188 793.664062 1469.351562 795.027344 C 1470.589844 796.390625 1471.792969 797.785156 1472.964844 799.207031 C 1474.132812 800.628906 1475.265625 802.082031 1476.363281 803.558594 C 1477.464844 805.035156 1478.527344 806.539062 1479.550781 808.070312 C 1480.574219 809.601562 1481.5625 811.152344 1482.511719 812.730469 C 1483.460938 814.308594 1484.371094 815.910156 1485.242188 817.53125 C 1486.113281 819.15625 1486.945312 820.796875 1487.734375 822.460938 C 1488.527344 824.125 1489.277344 825.804688 1489.984375 827.503906 C 1490.695312 829.203125 1491.359375 830.921875 1491.984375 832.652344 C 1492.609375 834.382812 1493.191406 836.128906 1493.734375 837.890625 C 1494.273438 839.652344 1494.769531 841.425781 1495.222656 843.210938 C 1495.675781 844.996094 1496.082031 846.789062 1496.449219 848.59375 C 1496.816406 850.398438 1497.136719 852.210938 1497.414062 854.03125 C 1497.691406 855.851562 1497.921875 857.679688 1498.109375 859.511719 C 1498.296875 861.34375 1498.441406 863.179688 1498.539062 865.015625 C 1498.636719 866.855469 1498.691406 868.695312 1498.699219 870.539062 C 1498.707031 872.378906 1498.667969 874.21875 1498.585938 876.058594 C 1498.507812 877.898438 1498.378906 879.734375 1498.207031 881.570312 C 1498.035156 883.402344 1497.820312 885.230469 1497.558594 887.054688 C 1497.300781 888.878906 1496.996094 890.691406 1496.644531 892.5 C 1496.296875 894.308594 1495.902344 896.105469 1495.464844 897.894531 C 1495.027344 899.683594 1494.546875 901.460938 1494.023438 903.226562 C 1493.5 904.992188 1492.933594 906.746094 1492.324219 908.480469 C 1491.714844 910.21875 1491.0625 911.941406 1490.367188 913.648438 C 1489.675781 915.351562 1488.941406 917.042969 1488.164062 918.710938 C 1487.386719 920.382812 1486.570312 922.03125 1485.714844 923.660156 C 1484.859375 925.292969 1483.964844 926.898438 1483.027344 928.484375 C 1482.09375 930.074219 1481.121094 931.636719 1480.109375 933.175781 C 1479.097656 934.714844 1478.046875 936.226562 1476.960938 937.714844 C 1475.878906 939.203125 1474.757812 940.660156 1473.597656 942.09375 C 1472.441406 943.527344 1471.253906 944.929688 1470.027344 946.304688 C 1468.800781 947.679688 1467.542969 949.023438 1466.253906 950.339844 C 1464.960938 951.652344 1463.640625 952.933594 1462.285156 954.179688 C 1460.933594 955.429688 1459.550781 956.644531 1458.136719 957.824219 C 1456.722656 959.007812 1455.28125 960.152344 1453.8125 961.265625 C 1452.34375 962.375 1450.851562 963.449219 1449.328125 964.488281 L 1073.898438 1230.914062 C 1064.8125 1237.382812 1055.488281 1243.488281 1045.929688 1249.234375 C 1036.371094 1254.980469 1026.601562 1260.347656 1016.628906 1265.335938 C 1006.652344 1270.320312 996.496094 1274.914062 986.164062 1279.113281 C 975.832031 1283.3125 965.351562 1287.109375 954.726562 1290.492188 C 944.101562 1293.878906 933.359375 1296.851562 922.5 1299.402344 C 911.644531 1301.957031 900.703125 1304.085938 889.683594 1305.789062 C 878.660156 1307.492188 867.589844 1308.769531 856.46875 1309.613281 C 845.347656 1310.457031 834.210938 1310.871094 823.054688 1310.851562 L 329.730469 1314.589844 Z M 329.382812 1314.589844 " fill-opacity="1" fill-rule="nonzero"/><path fill="#c62828" d="M 752.515625 1119.742188 C 751.691406 1119.765625 750.867188 1119.75 750.046875 1119.691406 C 749.226562 1119.632812 748.40625 1119.535156 747.597656 1119.394531 C 746.785156 1119.257812 745.980469 1119.078125 745.1875 1118.863281 C 744.390625 1118.644531 743.609375 1118.386719 742.839844 1118.09375 C 742.070312 1117.800781 741.320312 1117.46875 740.582031 1117.101562 C 739.84375 1116.734375 739.128906 1116.328125 738.429688 1115.890625 C 737.734375 1115.453125 737.058594 1114.980469 736.410156 1114.476562 C 735.757812 1113.972656 735.132812 1113.433594 734.535156 1112.871094 C 733.9375 1112.304688 733.367188 1111.710938 732.828125 1111.085938 C 732.289062 1110.464844 731.78125 1109.816406 731.304688 1109.144531 C 730.828125 1108.472656 730.386719 1107.78125 729.980469 1107.066406 C 729.570312 1106.347656 729.199219 1105.617188 728.863281 1104.863281 C 728.527344 1104.113281 728.226562 1103.34375 727.96875 1102.5625 C 727.707031 1101.78125 727.484375 1100.992188 727.300781 1100.1875 C 727.121094 1099.382812 726.976562 1098.574219 726.875 1097.757812 C 726.769531 1096.941406 726.707031 1096.121094 726.683594 1095.296875 C 726.660156 1094.472656 726.679688 1093.652344 726.738281 1092.828125 C 726.796875 1092.007812 726.894531 1091.191406 727.03125 1090.378906 C 727.171875 1089.566406 727.347656 1088.765625 727.566406 1087.96875 C 727.785156 1087.175781 728.039062 1086.394531 728.332031 1085.625 C 728.628906 1084.855469 728.957031 1084.101562 729.328125 1083.367188 C 729.695312 1082.628906 730.097656 1081.910156 730.535156 1081.214844 C 730.976562 1080.515625 731.449219 1079.84375 731.953125 1079.191406 C 732.457031 1078.542969 732.992188 1077.917969 733.558594 1077.320312 C 734.125 1076.722656 734.71875 1076.152344 735.339844 1075.613281 C 735.964844 1075.074219 736.609375 1074.566406 737.28125 1074.089844 C 737.953125 1073.613281 738.648438 1073.171875 739.363281 1072.761719 C 740.078125 1072.355469 740.8125 1071.980469 741.5625 1071.644531 C 742.316406 1071.308594 743.082031 1071.011719 743.863281 1070.75 C 744.644531 1070.492188 745.4375 1070.269531 746.238281 1070.085938 C 747.042969 1069.902344 747.851562 1069.761719 748.671875 1069.65625 C 749.488281 1069.554688 750.308594 1069.492188 751.132812 1069.46875 L 1011.496094 1054.949219 C 1010.820312 1042.121094 1008.261719 1029.679688 1003.828125 1017.621094 C 990.160156 981.296875 959.585938 958.894531 912.953125 951.007812 L 739.316406 951.007812 C 732.496094 950.992188 725.707031 950.53125 718.949219 949.625 C 712.1875 948.722656 705.515625 947.378906 698.933594 945.597656 C 692.351562 943.820312 685.910156 941.617188 679.617188 938.992188 C 673.320312 936.371094 667.226562 933.347656 661.328125 929.921875 C 611.050781 900.761719 507.140625 864.910156 376.988281 952.199219 C 362.691406 961.785156 347.230469 971.367188 326.714844 983.277344 L 233.957031 1037.417969 C 233.242188 1037.832031 232.515625 1038.214844 231.765625 1038.558594 C 231.015625 1038.902344 230.253906 1039.207031 229.476562 1039.476562 C 228.695312 1039.746094 227.90625 1039.976562 227.105469 1040.167969 C 226.304688 1040.359375 225.496094 1040.511719 224.679688 1040.625 C 223.863281 1040.734375 223.042969 1040.808594 222.21875 1040.839844 C 221.398438 1040.871094 220.574219 1040.859375 219.75 1040.8125 C 218.929688 1040.761719 218.109375 1040.671875 217.296875 1040.542969 C 216.484375 1040.414062 215.679688 1040.242188 214.882812 1040.035156 C 214.085938 1039.824219 213.300781 1039.578125 212.527344 1039.292969 C 211.753906 1039.003906 211 1038.683594 210.257812 1038.320312 C 209.515625 1037.960938 208.796875 1037.566406 208.09375 1037.132812 C 207.390625 1036.703125 206.714844 1036.238281 206.058594 1035.738281 C 205.402344 1035.242188 204.769531 1034.710938 204.167969 1034.152344 C 203.5625 1033.589844 202.988281 1033.003906 202.441406 1032.386719 C 201.894531 1031.769531 201.378906 1031.128906 200.898438 1030.460938 C 200.414062 1029.792969 199.964844 1029.105469 199.550781 1028.390625 C 199.132812 1027.679688 198.753906 1026.949219 198.410156 1026.203125 C 198.066406 1025.453125 197.761719 1024.691406 197.492188 1023.910156 C 197.222656 1023.132812 196.992188 1022.339844 196.800781 1021.539062 C 196.613281 1020.738281 196.460938 1019.929688 196.347656 1019.113281 C 196.238281 1018.296875 196.167969 1017.476562 196.136719 1016.65625 C 196.105469 1015.832031 196.113281 1015.007812 196.164062 1014.1875 C 196.214844 1013.363281 196.304688 1012.546875 196.433594 1011.734375 C 196.566406 1010.917969 196.734375 1010.113281 196.945312 1009.316406 C 197.15625 1008.519531 197.402344 1007.734375 197.691406 1006.964844 C 197.976562 1006.191406 198.300781 1005.433594 198.660156 1004.695312 C 199.023438 1003.953125 199.417969 1003.234375 199.851562 1002.53125 C 200.28125 1001.828125 200.746094 1001.152344 201.246094 1000.496094 C 201.746094 999.839844 202.273438 999.210938 202.835938 998.605469 C 203.394531 998.003906 203.984375 997.425781 204.601562 996.882812 C 205.21875 996.335938 205.859375 995.820312 206.527344 995.339844 C 207.195312 994.855469 207.886719 994.40625 208.597656 993.992188 L 301.480469 939.789062 C 320.929688 928.445312 335.605469 919.363281 348.992188 910.378906 C 507.484375 804.046875 637.855469 858.15625 686.527344 886.339844 C 690.519531 888.664062 694.644531 890.714844 698.902344 892.496094 C 703.164062 894.277344 707.523438 895.769531 711.976562 896.980469 C 716.433594 898.191406 720.949219 899.101562 725.527344 899.722656 C 730.101562 900.339844 734.699219 900.652344 739.316406 900.667969 L 914.996094 900.667969 C 916.316406 900.664062 917.625 900.765625 918.925781 900.984375 C 1003.449219 914.429688 1037.792969 963.386719 1051.714844 1002.097656 C 1056.222656 1014.957031 1059.253906 1028.15625 1060.800781 1041.695312 C 1062.347656 1055.234375 1062.378906 1068.773438 1060.890625 1082.320312 C 1060.683594 1083.742188 1060.355469 1085.136719 1059.90625 1086.503906 C 1059.460938 1087.871094 1058.898438 1089.191406 1058.222656 1090.460938 C 1057.550781 1091.730469 1056.773438 1092.9375 1055.890625 1094.074219 C 1055.011719 1095.210938 1054.039062 1096.265625 1052.980469 1097.234375 C 1051.917969 1098.203125 1050.78125 1099.078125 1049.570312 1099.851562 C 1048.359375 1100.628906 1047.089844 1101.296875 1045.765625 1101.851562 C 1044.4375 1102.410156 1043.074219 1102.851562 1041.675781 1103.175781 C 1040.273438 1103.5 1038.855469 1103.699219 1037.417969 1103.78125 L 753.960938 1119.710938 Z M 752.515625 1119.742188 " fill-opacity="1" fill-rule="nonzero"/><g clip-path="url(#5d75e24c78)"><path fill="#c62828" d="M 184.527344 1406.40625 C 183.320312 1406.40625 182.121094 1406.320312 180.929688 1406.148438 C 179.734375 1405.972656 178.558594 1405.71875 177.402344 1405.375 C 176.246094 1405.03125 175.121094 1404.609375 174.023438 1404.105469 C 172.929688 1403.601562 171.875 1403.019531 170.863281 1402.367188 C 169.851562 1401.710938 168.890625 1400.984375 167.984375 1400.191406 C 167.074219 1399.398438 166.226562 1398.542969 165.445312 1397.625 C 164.660156 1396.710938 163.945312 1395.742188 163.296875 1394.722656 C 162.652344 1393.703125 162.082031 1392.644531 161.589844 1391.542969 L 3.410156 1037.984375 C 3.070312 1037.214844 2.765625 1036.429688 2.503906 1035.632812 C 2.238281 1034.835938 2.015625 1034.023438 1.832031 1033.203125 C 1.652344 1032.382812 1.507812 1031.554688 1.410156 1030.71875 C 1.3125 1029.882812 1.253906 1029.046875 1.238281 1028.203125 C 1.222656 1027.363281 1.25 1026.523438 1.320312 1025.6875 C 1.386719 1024.847656 1.5 1024.015625 1.652344 1023.1875 C 1.804688 1022.359375 2 1021.542969 2.234375 1020.734375 C 2.46875 1019.929688 2.742188 1019.132812 3.054688 1018.355469 C 3.371094 1017.574219 3.722656 1016.8125 4.113281 1016.066406 C 4.503906 1015.320312 4.933594 1014.597656 5.394531 1013.898438 C 5.859375 1013.195312 6.355469 1012.519531 6.886719 1011.867188 C 7.421875 1011.214844 7.984375 1010.589844 8.578125 1009.996094 C 9.171875 1009.398438 9.792969 1008.835938 10.445312 1008.300781 C 11.09375 1007.769531 11.769531 1007.269531 12.472656 1006.804688 C 13.171875 1006.339844 13.894531 1005.910156 14.636719 1005.519531 C 15.382812 1005.125 16.144531 1004.773438 16.921875 1004.457031 L 188.925781 934.382812 C 189.695312 934.070312 190.476562 933.796875 191.269531 933.5625 C 192.066406 933.328125 192.871094 933.128906 193.683594 932.972656 C 194.5 932.820312 195.320312 932.703125 196.144531 932.628906 C 196.96875 932.554688 197.796875 932.519531 198.625 932.527344 C 199.457031 932.535156 200.28125 932.582031 201.105469 932.671875 C 201.929688 932.757812 202.75 932.886719 203.558594 933.058594 C 204.371094 933.226562 205.171875 933.4375 205.964844 933.6875 C 206.753906 933.933594 207.53125 934.222656 208.292969 934.546875 C 209.054688 934.875 209.800781 935.234375 210.527344 935.636719 C 211.253906 936.035156 211.957031 936.46875 212.640625 936.9375 C 213.324219 937.40625 213.984375 937.910156 214.617188 938.445312 C 215.25 938.976562 215.855469 939.542969 216.433594 940.136719 C 217.011719 940.730469 217.558594 941.351562 218.074219 942 C 218.59375 942.648438 219.074219 943.320312 219.527344 944.015625 C 219.976562 944.714844 220.390625 945.429688 220.769531 946.167969 C 221.148438 946.90625 221.492188 947.660156 221.796875 948.429688 L 371.488281 1327.441406 C 371.8125 1328.261719 372.09375 1329.097656 372.328125 1329.945312 C 372.566406 1330.796875 372.757812 1331.65625 372.902344 1332.523438 C 373.050781 1333.394531 373.148438 1334.269531 373.203125 1335.148438 C 373.257812 1336.027344 373.265625 1336.90625 373.226562 1337.789062 C 373.1875 1338.667969 373.101562 1339.546875 372.96875 1340.417969 C 372.839844 1341.289062 372.664062 1342.152344 372.441406 1343.003906 C 372.21875 1343.855469 371.953125 1344.695312 371.644531 1345.523438 C 371.335938 1346.347656 370.980469 1347.152344 370.585938 1347.941406 C 370.191406 1348.730469 369.757812 1349.496094 369.28125 1350.238281 C 368.808594 1350.980469 368.292969 1351.695312 367.742188 1352.382812 C 367.191406 1353.070312 366.609375 1353.730469 365.988281 1354.355469 C 365.367188 1354.984375 364.71875 1355.574219 364.035156 1356.132812 C 363.351562 1356.691406 362.644531 1357.214844 361.90625 1357.695312 C 361.167969 1358.179688 360.410156 1358.625 359.625 1359.027344 C 358.84375 1359.433594 358.039062 1359.792969 357.21875 1360.113281 C 356.398438 1360.433594 355.5625 1360.707031 354.710938 1360.9375 L 191.316406 1405.527344 C 189.09375 1406.128906 186.832031 1406.421875 184.527344 1406.40625 Z M 59.910156 1041.1875 L 198.699219 1351.355469 L 314.363281 1319.933594 L 184.308594 990.535156 Z M 59.910156 1041.1875 " fill-opacity="1" fill-rule="nonzero"/></g></svg>