<svg xmlns="http://www.w3.org/2000/svg" xmlns:xlink="http://www.w3.org/1999/xlink" width="2000" zoomAndPan="magnify" viewBox="0 0 1500 1499.999933" height="2000" preserveAspectRatio="xMidYMid meet" version="1.0"><defs><clipPath id="970ecbb53b"><path d="M 2 94 L 1499 94 L 1499 1406.25 L 2 1406.25 Z M 2 94 " clip-rule="nonzero"/></clipPath></defs><path fill="#c62828" d="M 677.824219 650.996094 L 642.429688 657.796875 L 641.296875 658.050781 L 641.421875 658.300781 C 634.621094 660.570312 627.820312 662.710938 621.269531 665.984375 C 550.226562 701.503906 521.507812 788.039062 557.03125 859.082031 C 592.550781 930.121094 679.085938 958.839844 750.125 923.320312 C 756.675781 920.046875 762.46875 915.890625 768.390625 911.730469 L 768.515625 911.984375 L 769.398438 911.226562 L 796.101562 887.042969 L 1157.480469 558.667969 Z M 736.648438 848.5 C 717.125 866.890625 689.035156 874.953125 661.828125 866.007812 C 622.402344 852.910156 600.988281 810.207031 614.214844 770.785156 C 623.285156 743.574219 646.585938 725.941406 673.039062 721.40625 C 684.878906 719.265625 697.222656 719.015625 709.441406 723.171875 C 748.867188 736.269531 770.28125 778.972656 757.054688 818.394531 C 753.023438 830.613281 745.464844 840.1875 736.648438 848.5 Z M 736.648438 848.5 " fill-opacity="1" fill-rule="nonzero"/><g clip-path="url(#970ecbb53b)"><path fill="#c62828" d="M 1497.320312 1037.691406 L 1418.71875 1002.296875 C 1415.824219 990.078125 1411.917969 978.113281 1407.382812 966.273438 L 1451.21875 892.082031 L 1443.28125 879.992188 C 1427.914062 856.308594 1409.652344 834.644531 1389.121094 815.5 L 1378.160156 805.296875 L 1370.601562 808.195312 C 1370.980469 798.367188 1372.242188 788.796875 1372.242188 778.972656 C 1372.242188 535.113281 1243.636719 321.105469 1051.167969 199.683594 L 1052.429688 197.414062 L 989.574219 163.40625 L 988.820312 164.917969 C 897.75 119.949219 795.597656 94 687.273438 94 C 578.191406 94 475.28125 120.328125 383.582031 165.925781 L 382.324219 163.785156 L 320.476562 199.554688 L 321.234375 200.941406 C 129.898438 322.617188 2.304688 535.867188 2.304688 778.972656 C 2.304688 959.722656 72.335938 1128.382812 200.4375 1257.742188 C 214.796875 1272.230469 238.476562 1271.726562 252.332031 1256.609375 C 265.179688 1242.503906 264.550781 1220.964844 251.199219 1207.359375 C 141.488281 1096.261719 80.019531 953.046875 74.855469 799.125 L 197.414062 799.125 L 197.414062 727.703125 L 76.492188 727.703125 C 92.742188 532.46875 200.691406 363.304688 357.132812 262.789062 L 411.546875 357.132812 L 473.390625 321.359375 L 419.480469 227.898438 C 500.601562 188.34375 591.289062 165.421875 687.398438 165.421875 C 783.378906 165.421875 873.945312 188.21875 954.9375 227.644531 L 903.167969 323.25 L 966.019531 357.257812 L 1017.285156 262.410156 C 1173.980469 362.800781 1282.054688 532.089844 1298.300781 727.453125 L 1218.949219 730.726562 C 1198.667969 727.074219 1178.011719 724.304688 1157.351562 724.304688 L 1129.640625 725.1875 L 1094.246094 803.785156 C 1082.03125 806.683594 1069.9375 810.585938 1058.222656 815.246094 L 984.03125 771.285156 L 971.816406 779.222656 C 948.261719 794.589844 926.59375 812.855469 907.324219 833.386719 L 897.246094 844.21875 L 927.855469 924.707031 C 921.304688 935.539062 915.511719 946.75 910.472656 958.335938 L 826.835938 979.75 L 823.6875 994.363281 C 818.773438 1017.664062 816.253906 1041.46875 816.253906 1065.023438 L 817.136719 1092.734375 L 895.734375 1128.003906 C 898.632812 1140.222656 902.535156 1152.1875 907.199219 1164.03125 L 863.363281 1238.722656 L 871.425781 1251.195312 C 886.792969 1274.75 904.929688 1296.289062 925.460938 1315.308594 L 936.292969 1325.382812 L 1016.78125 1294.777344 C 1027.488281 1301.324219 1038.699219 1307.246094 1050.414062 1312.160156 L 1071.828125 1395.796875 L 1086.4375 1398.820312 C 1109.613281 1403.730469 1133.421875 1406.25 1157.226562 1406.25 L 1184.9375 1405.367188 L 1220.332031 1326.769531 C 1232.550781 1323.871094 1244.515625 1319.96875 1256.230469 1315.308594 L 1330.421875 1359.265625 L 1342.890625 1351.078125 C 1366.445312 1335.710938 1387.984375 1317.699219 1407.003906 1297.167969 L 1417.207031 1286.210938 L 1386.601562 1205.597656 C 1393.148438 1194.765625 1399.070312 1183.679688 1403.984375 1172.089844 L 1487.621094 1150.679688 L 1490.644531 1136.066406 C 1495.554688 1112.765625 1498.074219 1088.957031 1498.074219 1065.277344 Z M 1299.5625 799.125 C 1299.183594 811.46875 1298.679688 823.8125 1297.546875 836.03125 C 1286.839844 829.480469 1275.628906 823.558594 1264.042969 818.648438 L 1259.507812 800.886719 Z M 1430.9375 1109.238281 L 1357 1128.132812 L 1352.84375 1139.214844 C 1347.050781 1154.582031 1339.492188 1169.195312 1330.296875 1182.671875 L 1323.621094 1192.496094 L 1350.703125 1263.789062 C 1341.003906 1273.238281 1330.546875 1281.929688 1319.589844 1289.988281 L 1253.964844 1251.066406 L 1243.257812 1255.980469 C 1228.269531 1262.78125 1212.648438 1267.695312 1196.652344 1270.71875 L 1185.066406 1272.984375 L 1153.699219 1342.640625 C 1140.222656 1342.515625 1126.621094 1341.253906 1113.269531 1339.113281 L 1094.375 1265.175781 L 1083.289062 1261.019531 C 1067.921875 1255.222656 1053.3125 1247.667969 1039.832031 1238.472656 L 1030.007812 1231.796875 L 958.714844 1258.878906 C 949.269531 1249.179688 940.578125 1238.851562 932.640625 1227.765625 L 971.4375 1162.140625 L 966.523438 1151.308594 C 959.722656 1136.316406 954.808594 1120.574219 951.789062 1104.703125 L 949.519531 1093.113281 L 879.863281 1061.875 C 880.117188 1048.398438 881.25 1034.921875 883.390625 1021.441406 L 957.328125 1002.550781 L 961.484375 991.464844 C 967.28125 976.097656 974.839844 961.488281 984.03125 948.007812 L 990.582031 938.183594 L 963.5 867.015625 C 973.199219 857.570312 983.65625 848.753906 994.613281 840.816406 L 1060.238281 879.613281 L 1070.945312 874.699219 C 1085.808594 868.023438 1101.554688 862.984375 1117.550781 859.964844 L 1129.136719 857.695312 L 1160.375 788.039062 C 1173.855469 788.292969 1187.457031 789.425781 1200.808594 791.566406 L 1219.703125 865.378906 L 1230.789062 869.535156 C 1246.15625 875.332031 1260.765625 882.886719 1274.242188 892.082031 L 1283.941406 898.757812 L 1355.234375 871.675781 C 1364.683594 881.375 1373.375 891.832031 1381.308594 902.664062 L 1342.515625 968.289062 L 1347.425781 979.121094 C 1354.230469 994.109375 1359.140625 1009.855469 1362.164062 1025.726562 L 1364.429688 1037.3125 L 1434.085938 1068.550781 C 1434.214844 1082.40625 1433.078125 1095.886719 1430.9375 1109.238281 Z M 1430.9375 1109.238281 " fill-opacity="1" fill-rule="nonzero"/></g><path fill="#c62828" d="M 1157.226562 925.714844 C 1080.140625 925.714844 1017.539062 988.441406 1017.539062 1065.402344 C 1017.539062 1142.492188 1080.265625 1205.09375 1157.226562 1205.09375 C 1234.316406 1205.09375 1297.042969 1142.363281 1297.042969 1065.402344 C 1297.042969 988.316406 1234.316406 925.714844 1157.226562 925.714844 Z M 1157.226562 1155.714844 C 1107.472656 1155.714844 1066.914062 1115.28125 1066.914062 1065.402344 C 1066.914062 1015.648438 1107.347656 975.089844 1157.226562 975.089844 C 1206.980469 975.089844 1247.539062 1015.523438 1247.539062 1065.402344 C 1247.539062 1115.28125 1207.109375 1155.714844 1157.226562 1155.714844 Z M 1157.226562 1155.714844 " fill-opacity="1" fill-rule="nonzero"/></svg>