<svg xmlns="http://www.w3.org/2000/svg" xmlns:xlink="http://www.w3.org/1999/xlink" width="2000" zoomAndPan="magnify" viewBox="0 0 1500 1499.999933" height="2000" preserveAspectRatio="xMidYMid meet" version="1.0"><defs><clipPath id="dd137af356"><path d="M 1 180 L 1499 180 L 1499 1320 L 1 1320 Z M 1 180 " clip-rule="nonzero"/></clipPath></defs><g clip-path="url(#dd137af356)"><path fill="#c62828" d="M 1477.980469 780.058594 L 1323.589844 592.125 C 1306.570312 571.417969 1281.449219 559.546875 1254.675781 559.546875 L 1009.835938 559.546875 L 1009.835938 492.011719 C 1009.835938 453.28125 978.328125 421.769531 939.59375 421.769531 L 848.09375 421.769531 L 848.09375 402.773438 C 848.09375 381.621094 836.714844 361.910156 818.398438 351.335938 L 535.5 188.003906 C 517.1875 177.425781 494.425781 177.425781 476.105469 188.003906 L 193.210938 351.335938 C 174.894531 361.910156 163.515625 381.621094 163.515625 402.773438 L 163.515625 421.769531 L 72.003906 421.769531 C 33.269531 421.769531 1.761719 453.28125 1.761719 492.011719 L 1.761719 1124.777344 C 1.761719 1163.507812 33.269531 1195.019531 72.003906 1195.019531 L 156.078125 1195.019531 C 163.703125 1265.242188 223.253906 1320.082031 295.378906 1320.082031 C 367.503906 1320.082031 427.054688 1265.238281 434.675781 1195.019531 L 1079.25 1195.023438 C 1086.871094 1265.242188 1146.425781 1320.082031 1218.546875 1320.082031 C 1290.667969 1320.082031 1350.21875 1265.242188 1357.84375 1195.023438 L 1427.992188 1195.023438 C 1466.726562 1195.023438 1498.238281 1163.511719 1498.238281 1124.777344 L 1498.238281 836.6875 C 1498.238281 816.070312 1491.042969 795.960938 1477.980469 780.058594 Z M 194.054688 403.746094 L 286.003906 456.832031 L 286.003906 613.75 C 286.003906 627.15625 293.21875 639.652344 304.820312 646.355469 L 358.21875 677.199219 C 362.4375 679.636719 367.058594 680.851562 371.683594 680.851562 C 376.304688 680.851562 380.925781 679.636719 385.136719 677.203125 C 393.566406 672.339844 398.601562 663.625 398.601562 653.894531 L 398.601562 521.839844 L 490.539062 574.921875 L 490.539062 917.269531 L 208.480469 754.421875 C 199.582031 749.285156 194.054688 739.710938 194.054688 729.433594 Z M 505.804688 548.472656 L 413.855469 495.382812 L 710.351562 324.222656 L 802.285156 377.296875 Z M 316.542969 474.46875 L 368.058594 504.207031 L 368.058594 647.613281 L 320.097656 619.910156 C 317.902344 618.640625 316.542969 616.285156 316.542969 613.75 Z M 383.316406 477.75 L 331.804688 448.011719 L 628.300781 276.847656 L 679.8125 306.585938 Z M 521.074219 574.921875 L 817.554688 403.746094 L 817.554688 729.433594 C 817.554688 739.707031 812.027344 749.285156 803.128906 754.421875 L 521.074219 917.265625 Z M 491.375 214.457031 C 495.824219 211.886719 500.816406 210.601562 505.804688 210.601562 C 510.792969 210.601562 515.78125 211.886719 520.230469 214.457031 L 597.757812 259.214844 L 301.261719 430.378906 L 209.324219 377.296875 Z M 295.378906 1289.542969 C 234.945312 1289.542969 185.777344 1240.292969 185.777344 1179.757812 C 185.777344 1119.21875 234.945312 1069.96875 295.378906 1069.96875 C 355.8125 1069.96875 404.980469 1119.21875 404.980469 1179.757812 C 404.980469 1240.292969 355.8125 1289.542969 295.378906 1289.542969 Z M 434.675781 1164.480469 C 427.046875 1094.265625 367.496094 1039.429688 295.378906 1039.429688 C 223.257812 1039.429688 163.710938 1094.265625 156.082031 1164.480469 L 72.003906 1164.480469 C 50.113281 1164.480469 32.300781 1146.671875 32.300781 1124.777344 L 32.300781 1096.363281 L 125.660156 1096.363281 C 134.09375 1096.363281 140.929688 1089.523438 140.929688 1081.089844 C 140.929688 1072.660156 134.09375 1065.820312 125.660156 1065.820312 L 32.300781 1065.820312 L 32.300781 492.011719 C 32.300781 470.121094 50.113281 452.308594 72.003906 452.308594 L 163.515625 452.308594 L 163.515625 729.433594 C 163.515625 750.585938 174.894531 770.296875 193.210938 780.871094 L 476.105469 944.203125 C 485.265625 949.488281 495.539062 952.132812 505.804688 952.132812 C 516.074219 952.132812 526.34375 949.488281 535.503906 944.203125 L 818.398438 780.871094 C 836.71875 770.292969 848.097656 750.585938 848.097656 729.433594 L 848.097656 452.308594 L 939.59375 452.308594 C 961.488281 452.308594 979.296875 470.121094 979.296875 492.011719 L 979.296875 1065.820312 L 465.117188 1065.820312 C 456.683594 1065.820312 449.847656 1072.65625 449.847656 1081.089844 C 449.847656 1089.523438 456.683594 1096.363281 465.117188 1096.363281 L 979.296875 1096.363281 L 979.296875 1164.480469 Z M 1218.546875 1289.542969 C 1158.113281 1289.542969 1108.945312 1240.292969 1108.945312 1179.757812 C 1108.945312 1119.21875 1158.113281 1069.96875 1218.546875 1069.96875 C 1278.980469 1069.96875 1328.148438 1119.21875 1328.148438 1179.757812 C 1328.148438 1240.292969 1278.980469 1289.542969 1218.546875 1289.542969 Z M 1427.992188 1164.484375 L 1357.84375 1164.484375 C 1350.214844 1094.269531 1290.664062 1039.429688 1218.546875 1039.429688 C 1146.425781 1039.429688 1086.878906 1094.269531 1079.25 1164.484375 L 1009.835938 1164.484375 L 1009.835938 590.085938 L 1254.671875 590.085938 C 1272.277344 590.085938 1288.800781 597.898438 1299.996094 611.515625 L 1454.382812 799.445312 C 1462.96875 809.898438 1467.699219 823.125 1467.699219 836.6875 L 1467.699219 991.828125 L 1430.171875 991.828125 C 1399.375 991.828125 1374.320312 1016.882812 1374.320312 1047.679688 L 1374.320312 1069.113281 C 1374.320312 1099.910156 1399.375 1124.964844 1430.171875 1124.964844 L 1467.6875 1124.964844 C 1467.589844 1146.769531 1449.824219 1164.484375 1427.992188 1164.484375 Z M 1430.171875 1094.417969 C 1416.21875 1094.417969 1404.863281 1083.066406 1404.863281 1069.109375 L 1404.863281 1047.675781 C 1404.863281 1033.722656 1416.21875 1022.367188 1430.171875 1022.367188 L 1467.699219 1022.367188 L 1467.699219 1094.417969 Z M 1416.367188 898.964844 L 1416.367188 854.941406 C 1416.367188 841.476562 1411.65625 828.324219 1403.105469 817.917969 L 1275.636719 662.738281 C 1264.515625 649.199219 1248.082031 641.433594 1230.5625 641.433594 L 1107.652344 641.433594 C 1083.824219 641.433594 1064.433594 660.824219 1064.433594 684.652344 L 1064.433594 898.964844 C 1064.433594 922.796875 1083.824219 942.183594 1107.652344 942.183594 L 1373.144531 942.183594 C 1396.976562 942.183594 1416.367188 922.796875 1416.367188 898.964844 Z M 1385.824219 898.964844 C 1385.824219 905.957031 1380.136719 911.644531 1373.144531 911.644531 L 1107.652344 911.644531 C 1100.664062 911.644531 1094.972656 905.957031 1094.972656 898.964844 L 1094.972656 684.65625 C 1094.972656 677.664062 1100.664062 671.976562 1107.652344 671.976562 L 1230.5625 671.976562 C 1238.910156 671.976562 1246.738281 675.675781 1252.035156 682.125 L 1379.507812 837.304688 C 1383.582031 842.265625 1385.824219 848.53125 1385.824219 854.945312 Z M 295.378906 1116.628906 C 260.609375 1116.628906 232.320312 1144.949219 232.320312 1179.757812 C 232.320312 1214.566406 260.609375 1242.886719 295.378906 1242.886719 C 330.148438 1242.886719 358.4375 1214.566406 358.4375 1179.757812 C 358.4375 1144.949219 330.148438 1116.628906 295.378906 1116.628906 Z M 295.378906 1212.34375 C 277.449219 1212.34375 262.859375 1197.726562 262.859375 1179.757812 C 262.859375 1161.785156 277.449219 1147.167969 295.378906 1147.167969 C 313.308594 1147.167969 327.894531 1161.785156 327.894531 1179.757812 C 327.894531 1197.726562 313.308594 1212.34375 295.378906 1212.34375 Z M 1218.546875 1116.628906 C 1183.777344 1116.628906 1155.488281 1144.949219 1155.488281 1179.757812 C 1155.488281 1214.566406 1183.777344 1242.886719 1218.546875 1242.886719 C 1253.316406 1242.886719 1281.605469 1214.566406 1281.605469 1179.757812 C 1281.605469 1144.949219 1253.316406 1116.628906 1218.546875 1116.628906 Z M 1218.546875 1212.34375 C 1200.617188 1212.34375 1186.027344 1197.726562 1186.027344 1179.757812 C 1186.027344 1161.785156 1200.617188 1147.167969 1218.546875 1147.167969 C 1236.476562 1147.167969 1251.0625 1161.785156 1251.0625 1179.757812 C 1251.0625 1197.726562 1236.476562 1212.34375 1218.546875 1212.34375 Z M 1218.546875 1212.34375 " fill-opacity="1" fill-rule="nonzero"/></g></svg>