<svg xmlns="http://www.w3.org/2000/svg" xmlns:xlink="http://www.w3.org/1999/xlink" width="2000" zoomAndPan="magnify" viewBox="0 0 1500 1499.999933" height="2000" preserveAspectRatio="xMidYMid meet" version="1.0"><path fill="#c62828" d="M 1463.5625 1369.90625 L 1450.34375 1369.90625 L 1450.34375 737.660156 C 1450.34375 716.097656 1430.269531 701.609375 1411.519531 701.609375 L 1389.613281 701.609375 L 1389.613281 36.4375 C 1389.613281 16.34375 1374.8125 0 1356.625 0 L 1243.195312 0 C 1225.007812 0 1210.207031 16.34375 1210.207031 36.4375 L 1210.207031 701.609375 L 1130.910156 701.609375 L 1130.910156 157.894531 C 1130.910156 137.804688 1116.113281 121.457031 1097.921875 121.457031 L 984.496094 121.457031 C 966.304688 121.457031 951.503906 137.800781 951.503906 157.894531 L 951.503906 701.609375 L 827.433594 701.609375 L 827.433594 437.054688 L 886.292969 426.71875 C 903.757812 423.65625 916.429688 408.5625 916.429688 390.832031 L 916.429688 335.402344 C 916.429688 324.585938 911.695312 314.40625 903.445312 307.476562 C 895.191406 300.542969 884.339844 297.644531 873.691406 299.515625 L 97.742188 435.785156 C 80.285156 438.851562 67.609375 453.945312 67.609375 471.671875 L 67.609375 527.101562 C 67.609375 537.921875 72.34375 548.101562 80.59375 555.027344 C 87.203125 560.578125 95.472656 563.542969 103.980469 563.542969 C 106.09375 563.542969 108.222656 563.359375 110.347656 562.988281 L 156.601562 554.867188 L 156.601562 992.421875 L 74.839844 992.421875 C 63.101562 992.421875 53.585938 1001.9375 53.585938 1013.679688 L 53.585938 1369.90625 L 36.4375 1369.90625 C 16.34375 1369.90625 0 1386.25 0 1406.34375 L 0 1463.5625 C 0 1483.65625 16.34375 1500 36.4375 1500 L 1463.5625 1500 C 1483.65625 1500 1500 1483.65625 1500 1463.5625 L 1500 1406.34375 C 1500 1386.253906 1483.65625 1369.90625 1463.5625 1369.90625 Z M 1407.832031 1369.90625 L 613.183594 1369.90625 L 613.1875 744.121094 L 1407.828125 744.121094 L 1407.828125 1369.90625 Z M 1347.101562 42.511719 L 1347.101562 82.316406 L 1252.714844 82.316406 L 1252.714844 42.511719 Z M 1252.714844 124.828125 L 1347.101562 124.828125 L 1347.101562 701.609375 L 1252.714844 701.609375 Z M 1088.394531 163.96875 L 1088.394531 203.773438 L 994.003906 203.773438 L 994.003906 163.96875 Z M 994.003906 246.289062 L 1088.394531 246.289062 L 1088.394531 701.609375 L 994.003906 701.609375 Z M 110.121094 519.867188 L 110.121094 476.773438 L 873.910156 342.632812 L 873.910156 385.730469 Z M 199.113281 547.402344 L 784.914062 444.523438 L 784.914062 701.613281 L 604.726562 701.613281 C 584.996094 701.613281 570.675781 716.773438 570.675781 737.664062 L 570.675781 992.425781 L 199.113281 992.425781 Z M 96.097656 1034.933594 L 570.675781 1034.933594 L 570.675781 1369.910156 L 510.171875 1369.910156 L 510.171875 1140.464844 C 510.171875 1120.371094 493.824219 1104.027344 473.734375 1104.027344 L 193.039062 1104.027344 C 172.949219 1104.027344 156.605469 1120.371094 156.605469 1140.464844 L 156.605469 1369.910156 L 96.097656 1369.910156 Z M 199.113281 1369.90625 L 199.113281 1146.539062 L 312.132812 1146.539062 L 312.132812 1369.90625 Z M 354.644531 1146.539062 L 467.664062 1146.539062 L 467.664062 1369.90625 L 354.644531 1369.90625 Z M 1457.488281 1457.488281 L 42.511719 1457.488281 L 42.511719 1412.417969 L 1457.488281 1412.417969 Z M 1209.972656 1269.734375 L 1302.804688 1269.734375 C 1322.898438 1269.734375 1339.242188 1253.390625 1339.242188 1233.296875 L 1339.242188 1140.464844 C 1339.242188 1120.375 1322.898438 1104.027344 1302.804688 1104.027344 L 1209.972656 1104.027344 C 1189.882812 1104.027344 1173.539062 1120.371094 1173.539062 1140.464844 L 1173.539062 1233.296875 C 1173.539062 1253.386719 1189.882812 1269.734375 1209.972656 1269.734375 Z M 1216.046875 1146.539062 L 1296.730469 1146.539062 L 1296.730469 1227.222656 L 1216.046875 1227.222656 Z M 718.210938 1269.734375 L 811.042969 1269.734375 C 831.132812 1269.734375 847.480469 1253.390625 847.480469 1233.296875 L 847.480469 1140.464844 C 847.480469 1120.375 831.132812 1104.027344 811.042969 1104.027344 L 718.210938 1104.027344 C 698.121094 1104.027344 681.773438 1120.371094 681.773438 1140.464844 L 681.773438 1233.296875 C 681.773438 1253.386719 698.121094 1269.734375 718.210938 1269.734375 Z M 724.285156 1146.539062 L 804.96875 1146.539062 L 804.96875 1227.222656 L 724.285156 1227.222656 Z M 964.09375 1269.734375 L 1056.925781 1269.734375 C 1077.019531 1269.734375 1093.363281 1253.390625 1093.363281 1233.296875 L 1093.363281 1140.464844 C 1093.363281 1120.375 1077.019531 1104.027344 1056.925781 1104.027344 L 964.09375 1104.027344 C 944 1104.027344 927.65625 1120.371094 927.65625 1140.464844 L 927.65625 1233.296875 C 927.65625 1253.386719 944 1269.734375 964.09375 1269.734375 Z M 970.164062 1146.539062 L 1050.851562 1146.539062 L 1050.851562 1227.222656 L 970.164062 1227.222656 Z M 718.210938 1003.851562 L 811.042969 1003.851562 C 831.132812 1003.851562 847.480469 987.507812 847.480469 967.414062 L 847.480469 874.582031 C 847.480469 854.488281 831.132812 838.144531 811.042969 838.144531 L 718.210938 838.144531 C 698.121094 838.144531 681.773438 854.488281 681.773438 874.582031 L 681.773438 967.414062 C 681.773438 987.503906 698.121094 1003.851562 718.210938 1003.851562 Z M 724.285156 880.65625 L 804.96875 880.65625 L 804.96875 961.34375 L 724.285156 961.34375 Z M 1209.972656 1003.851562 L 1302.804688 1003.851562 C 1322.898438 1003.851562 1339.242188 987.507812 1339.242188 967.414062 L 1339.242188 874.582031 C 1339.242188 854.492188 1322.898438 838.144531 1302.804688 838.144531 L 1209.972656 838.144531 C 1189.882812 838.144531 1173.539062 854.488281 1173.539062 874.582031 L 1173.539062 967.414062 C 1173.539062 987.503906 1189.882812 1003.851562 1209.972656 1003.851562 Z M 1216.046875 880.65625 L 1296.730469 880.65625 L 1296.730469 961.34375 L 1216.046875 961.34375 Z M 964.09375 1003.851562 L 1056.925781 1003.851562 C 1077.019531 1003.851562 1093.363281 987.507812 1093.363281 967.414062 L 1093.363281 874.582031 C 1093.363281 854.492188 1077.019531 838.144531 1056.925781 838.144531 L 964.09375 838.144531 C 944 838.144531 927.65625 854.488281 927.65625 874.582031 L 927.65625 967.414062 C 927.65625 987.503906 944 1003.851562 964.09375 1003.851562 Z M 970.164062 880.65625 L 1050.851562 880.65625 L 1050.851562 961.34375 L 970.164062 961.34375 Z M 379.804688 567.460938 L 286.96875 567.460938 C 266.882812 567.460938 250.535156 583.804688 250.535156 603.898438 L 250.535156 696.730469 C 250.535156 716.824219 266.882812 733.167969 286.96875 733.167969 L 379.804688 733.167969 C 399.894531 733.167969 416.242188 716.824219 416.242188 696.730469 L 416.242188 603.898438 C 416.242188 583.808594 399.894531 567.460938 379.804688 567.460938 Z M 373.730469 690.660156 L 293.046875 690.660156 L 293.046875 609.972656 L 373.730469 609.972656 Z M 379.804688 778.347656 L 286.96875 778.347656 C 266.882812 778.347656 250.535156 794.691406 250.535156 814.785156 L 250.535156 907.621094 C 250.535156 927.714844 266.882812 944.058594 286.96875 944.058594 L 379.804688 944.058594 C 399.894531 944.058594 416.242188 927.714844 416.242188 907.621094 L 416.242188 814.785156 C 416.242188 794.691406 399.894531 778.347656 379.804688 778.347656 Z M 373.730469 901.546875 L 293.046875 901.546875 L 293.046875 820.859375 L 373.730469 820.859375 Z M 373.730469 901.546875 " fill-opacity="1" fill-rule="nonzero"/></svg>