<svg xmlns="http://www.w3.org/2000/svg" xmlns:xlink="http://www.w3.org/1999/xlink" width="2000" zoomAndPan="magnify" viewBox="0 0 1500 1499.999933" height="2000" preserveAspectRatio="xMidYMid meet" version="1.0"><defs><clipPath id="a620c2bf96"><path d="M 1 57 L 1500 57 L 1500 1443.75 L 1 1443.75 Z M 1 57 " clip-rule="nonzero"/></clipPath></defs><g clip-path="url(#a620c2bf96)"><path fill="#c62828" d="M 1328.277344 976.097656 L 1328.277344 1253.597656 C 1328.277344 1262.625 1322.367188 1270.585938 1313.734375 1273.203125 L 756.320312 1442.066406 C 756.253906 1442.085938 756.191406 1442.109375 756.125 1442.125 L 756.085938 1442.136719 C 756.066406 1442.144531 756.046875 1442.144531 756.03125 1442.148438 C 755.195312 1442.398438 754.332031 1442.582031 753.457031 1442.722656 C 753.253906 1442.753906 753.054688 1442.789062 752.851562 1442.8125 C 751.964844 1442.929688 751.0625 1443.011719 750.144531 1443.011719 C 749.222656 1443.011719 748.324219 1442.929688 747.433594 1442.8125 C 747.234375 1442.789062 747.03125 1442.753906 746.828125 1442.71875 C 745.953125 1442.578125 745.09375 1442.394531 744.257812 1442.144531 C 744.238281 1442.140625 744.21875 1442.140625 744.203125 1442.132812 L 744.160156 1442.121094 C 744.097656 1442.101562 744.03125 1442.082031 743.96875 1442.0625 L 186.640625 1273.203125 C 178.007812 1270.585938 172.097656 1262.625 172.097656 1253.597656 L 172.097656 976.097656 C 172.097656 964.785156 181.269531 955.613281 192.582031 955.613281 C 203.894531 955.613281 213.066406 964.785156 213.066406 976.097656 L 213.066406 1238.398438 L 729.660156 1394.921875 L 729.660156 895.902344 C 729.660156 884.585938 738.832031 875.417969 750.144531 875.417969 C 761.457031 875.417969 770.628906 884.589844 770.628906 895.902344 L 770.628906 1394.921875 L 1287.304688 1238.402344 L 1287.304688 976.097656 C 1287.304688 964.785156 1296.476562 955.613281 1307.789062 955.613281 C 1319.101562 955.613281 1328.277344 964.785156 1328.277344 976.097656 Z M 1498.007812 870.800781 C 1495.855469 877.054688 1490.820312 881.882812 1484.484375 883.773438 L 925.34375 1050.386719 C 923.414062 1050.964844 921.445312 1051.238281 919.496094 1051.238281 C 912.992188 1051.238281 906.722656 1048.132812 902.8125 1042.640625 L 750.152344 828.371094 L 597.5625 1042.636719 C 593.652344 1048.125 587.382812 1051.238281 580.875 1051.238281 C 578.929688 1051.238281 576.964844 1050.960938 575.03125 1050.386719 L 15.808594 883.773438 C 9.472656 881.882812 4.433594 877.054688 2.285156 870.800781 C 0.136719 864.542969 1.136719 857.640625 4.976562 852.253906 L 175.902344 612.328125 C 175.957031 612.246094 176.035156 612.179688 176.09375 612.101562 C 177.238281 610.53125 178.609375 609.128906 180.183594 607.933594 C 180.324219 607.824219 180.464844 607.714844 180.605469 607.613281 C 181.363281 607.066406 182.15625 606.558594 182.996094 606.113281 C 183.105469 606.058594 183.210938 606.011719 183.320312 605.960938 C 184.050781 605.589844 184.808594 605.269531 185.589844 604.984375 C 185.800781 604.90625 186.007812 604.828125 186.21875 604.757812 C 186.363281 604.710938 186.5 604.648438 186.640625 604.605469 L 459.578125 521.917969 C 470.398438 518.640625 481.839844 524.757812 485.125 535.585938 C 488.40625 546.414062 482.285156 557.851562 471.457031 561.132812 L 263.25 624.210938 L 750.148438 771.664062 L 1237.113281 624.210938 L 1028.839844 561.132812 C 1018.007812 557.851562 1011.886719 546.417969 1015.167969 535.589844 C 1018.453125 524.757812 1029.894531 518.640625 1040.714844 521.917969 L 1313.730469 604.605469 C 1313.875 604.648438 1314.011719 604.710938 1314.15625 604.761719 C 1314.367188 604.828125 1314.574219 604.90625 1314.78125 604.984375 C 1315.566406 605.269531 1316.328125 605.59375 1317.058594 605.960938 C 1317.164062 606.019531 1317.273438 606.058594 1317.378906 606.113281 C 1318.21875 606.558594 1319.011719 607.066406 1319.769531 607.613281 C 1319.914062 607.71875 1320.054688 607.828125 1320.199219 607.9375 C 1321.765625 609.132812 1323.136719 610.535156 1324.28125 612.101562 C 1324.339844 612.183594 1324.417969 612.25 1324.476562 612.332031 L 1495.320312 852.257812 C 1499.160156 857.640625 1500.15625 864.546875 1498.007812 870.800781 Z M 716.921875 804.40625 L 200.730469 648.082031 L 54.96875 852.6875 L 572.691406 1006.9375 Z M 1445.332031 852.6875 L 1299.644531 648.082031 L 783.375 804.402344 L 927.679688 1006.9375 Z M 477.726562 465.476562 C 477.222656 463.667969 476.960938 461.796875 476.960938 459.917969 L 476.960938 174.460938 C 476.960938 165.972656 482.199219 158.367188 490.125 155.332031 L 742.824219 58.632812 C 747.539062 56.824219 752.75 56.824219 757.464844 58.632812 L 1010.160156 155.332031 C 1018.089844 158.367188 1023.324219 165.976562 1023.324219 174.460938 L 1023.324219 459.917969 C 1023.324219 461.792969 1023.066406 463.660156 1022.558594 465.464844 C 987.046875 591.785156 900.09375 676.886719 756.738281 725.628906 C 754.597656 726.355469 752.371094 726.71875 750.140625 726.71875 C 747.914062 726.71875 745.683594 726.351562 743.542969 725.625 C 600.273438 676.875 513.320312 591.78125 477.726562 465.476562 Z M 517.933594 457.050781 C 549.527344 566.019531 625.550781 640.507812 750.148438 684.554688 C 874.808594 640.519531 950.835938 566.023438 982.359375 457.054688 L 982.359375 188.558594 L 750.148438 99.695312 L 517.933594 188.558594 Z M 551.605469 458.273438 C 550.941406 456.234375 550.605469 454.105469 550.605469 451.957031 L 550.605469 220.574219 C 550.605469 212.085938 555.839844 204.480469 563.761719 201.445312 L 742.816406 132.859375 C 747.539062 131.054688 752.757812 131.046875 757.476562 132.859375 L 936.523438 201.445312 C 944.449219 204.480469 949.679688 212.089844 949.679688 220.574219 L 949.679688 451.957031 C 949.679688 454.105469 949.34375 456.234375 948.683594 458.273438 C 919.445312 548.429688 858.824219 609.632812 757.898438 650.886719 C 755.410156 651.902344 752.777344 652.410156 750.148438 652.410156 C 747.511719 652.410156 744.875 651.902344 742.390625 650.886719 C 641.445312 609.589844 580.824219 548.382812 551.605469 458.273438 Z M 591.578125 448.667969 C 616.421875 522.527344 666.992188 573.917969 750.148438 609.710938 C 833.289062 573.953125 883.855469 522.5625 908.710938 448.667969 L 908.710938 234.660156 L 750.148438 173.921875 L 591.578125 234.660156 Z M 723.191406 470.371094 C 723.390625 470.371094 723.589844 470.367188 723.792969 470.363281 C 729.800781 470.1875 735.429688 467.378906 739.183594 462.691406 L 874.863281 293.257812 C 881.933594 284.425781 880.507812 271.535156 871.679688 264.460938 C 862.839844 257.390625 849.957031 258.816406 842.882812 267.644531 L 722.265625 418.269531 L 678.28125 369.492188 C 670.703125 361.089844 657.75 360.417969 649.351562 367.992188 C 640.945312 375.570312 640.277344 388.527344 647.851562 396.925781 L 707.976562 463.601562 C 711.867188 467.917969 717.398438 470.371094 723.191406 470.371094 Z M 723.191406 470.371094 " fill-opacity="1" fill-rule="nonzero"/></g></svg>