<svg xmlns="http://www.w3.org/2000/svg" xmlns:xlink="http://www.w3.org/1999/xlink" width="2000" zoomAndPan="magnify" viewBox="0 0 1500 1499.999933" height="2000" preserveAspectRatio="xMidYMid meet" version="1.0"><path fill="#c62828" d="M 302.199219 495.550781 L 141.550781 495.550781 C 127.75 495.550781 116.550781 506.75 116.550781 520.550781 L 116.550781 681.25 C 116.550781 695.050781 127.75 706.25 141.550781 706.25 L 302.25 706.25 C 316.050781 706.25 327.25 695.050781 327.25 681.25 L 327.25 520.550781 C 327.199219 506.699219 316.050781 495.550781 302.199219 495.550781 Z M 277.199219 656.25 L 166.550781 656.25 L 166.550781 545.550781 L 277.25 545.550781 L 277.25 656.25 Z M 277.199219 656.25 " fill-opacity="1" fill-rule="nonzero"/><path fill="#c62828" d="M 554.050781 495.550781 L 393.300781 495.550781 C 379.5 495.550781 368.300781 506.75 368.300781 520.550781 L 368.300781 681.25 C 368.300781 695.050781 379.5 706.25 393.300781 706.25 L 554 706.25 C 567.800781 706.25 579 695.050781 579 681.25 L 579 520.550781 C 579.050781 506.699219 567.851562 495.550781 554.050781 495.550781 Z M 529.050781 656.25 L 418.300781 656.25 L 418.300781 545.550781 L 529 545.550781 L 529 656.25 Z M 529.050781 656.25 " fill-opacity="1" fill-rule="nonzero"/><path fill="#c62828" d="M 805.800781 495.550781 L 645.101562 495.550781 C 631.300781 495.550781 620.101562 506.75 620.101562 520.550781 L 620.101562 681.25 C 620.101562 695.050781 631.300781 706.25 645.101562 706.25 L 805.800781 706.25 C 819.601562 706.25 830.800781 695.050781 830.800781 681.25 L 830.800781 520.550781 C 830.800781 506.699219 819.648438 495.550781 805.800781 495.550781 Z M 780.800781 656.25 L 670.101562 656.25 L 670.101562 545.550781 L 780.800781 545.550781 Z M 780.800781 656.25 " fill-opacity="1" fill-rule="nonzero"/><path fill="#c62828" d="M 896.898438 706.25 L 1057.601562 706.25 C 1071.398438 706.25 1082.601562 695.050781 1082.601562 681.25 L 1082.601562 520.550781 C 1082.601562 506.75 1071.398438 495.550781 1057.601562 495.550781 L 896.898438 495.550781 C 883.101562 495.550781 871.898438 506.75 871.898438 520.550781 L 871.898438 681.25 C 871.898438 695.050781 883.050781 706.25 896.898438 706.25 Z M 921.898438 545.550781 L 1032.601562 545.550781 L 1032.601562 656.25 L 921.898438 656.25 Z M 921.898438 545.550781 " fill-opacity="1" fill-rule="nonzero"/><path fill="#c62828" d="M 302.199219 763.398438 L 141.550781 763.398438 C 127.75 763.398438 116.550781 774.601562 116.550781 788.398438 L 116.550781 949.101562 C 116.550781 962.898438 127.75 974.101562 141.550781 974.101562 L 302.25 974.101562 C 316.050781 974.101562 327.25 962.898438 327.25 949.101562 L 327.25 788.398438 C 327.199219 774.601562 316.050781 763.398438 302.199219 763.398438 Z M 277.199219 924.101562 L 166.550781 924.101562 L 166.550781 813.398438 L 277.25 813.398438 L 277.25 924.101562 Z M 277.199219 924.101562 " fill-opacity="1" fill-rule="nonzero"/><path fill="#c62828" d="M 554.050781 763.398438 L 393.300781 763.398438 C 379.5 763.398438 368.300781 774.601562 368.300781 788.398438 L 368.300781 949.101562 C 368.300781 962.898438 379.5 974.101562 393.300781 974.101562 L 554 974.101562 C 567.800781 974.101562 579 962.898438 579 949.101562 L 579 788.398438 C 579.050781 774.601562 567.851562 763.398438 554.050781 763.398438 Z M 529.050781 924.101562 L 418.300781 924.101562 L 418.300781 813.398438 L 529 813.398438 L 529 924.101562 Z M 529.050781 924.101562 " fill-opacity="1" fill-rule="nonzero"/><path fill="#c62828" d="M 805.800781 763.398438 L 645.101562 763.398438 C 631.300781 763.398438 620.101562 774.601562 620.101562 788.398438 L 620.101562 949.101562 C 620.101562 962.898438 631.300781 974.101562 645.101562 974.101562 L 805.800781 974.101562 C 819.601562 974.101562 830.800781 962.898438 830.800781 949.101562 L 830.800781 788.398438 C 830.800781 774.601562 819.648438 763.398438 805.800781 763.398438 Z M 780.800781 924.101562 L 670.101562 924.101562 L 670.101562 813.398438 L 780.800781 813.398438 Z M 780.800781 924.101562 " fill-opacity="1" fill-rule="nonzero"/><path fill="#c62828" d="M 1199 853.25 L 1199 413.898438 C 1199 413.75 1199.101562 413.601562 1199.101562 413.398438 C 1199.101562 413.199219 1199 413.101562 1199 412.898438 L 1199 225.5 C 1199 172.851562 1156.148438 130 1103.5 130 L 1049.550781 130 L 1049.550781 83.949219 C 1049.550781 37.648438 1011.898438 0 965.601562 0 C 919.300781 0 881.648438 37.648438 881.648438 83.949219 L 881.648438 130 L 317.398438 130 L 317.398438 83.949219 C 317.398438 37.648438 279.75 0 233.449219 0 C 187.199219 0 149.550781 37.648438 149.550781 83.949219 L 149.550781 130 L 95.5 130 C 42.851562 130 0 172.851562 0 225.5 L 0 1265.5 C 0 1318.148438 42.851562 1361 95.5 1361 L 913.398438 1361 C 973.949219 1446.800781 1071.199219 1498 1177 1498 C 1355.101562 1498 1500 1353.101562 1500 1175 C 1500 1005.300781 1368.351562 866.050781 1199 853.25 Z M 1004.300781 902.199219 C 993.800781 908.851562 983.5 916.050781 973.550781 924 L 922 924 L 922 813.5 L 1032.5 813.5 L 1032.5 886.101562 C 1025.050781 889.851562 1017.800781 894.25 1010.550781 898.601562 C 1008.5 899.851562 1006.351562 900.898438 1004.300781 902.199219 Z M 931.699219 83.949219 C 931.699219 65.25 946.898438 50 965.601562 50 C 984.300781 50 999.550781 65.25 999.550781 83.949219 L 999.550781 130 L 931.699219 130 Z M 931.699219 180 L 999.550781 180 L 999.550781 220.550781 C 999.550781 239.25 984.300781 254.5 965.601562 254.5 C 946.898438 254.5 931.648438 239.25 931.648438 220.550781 L 931.648438 180 Z M 199.550781 83.949219 C 199.550781 65.25 214.75 50 233.449219 50 C 252.148438 50 267.398438 65.25 267.398438 83.949219 L 267.398438 130 L 199.550781 130 Z M 199.550781 180 L 267.398438 180 L 267.398438 220.550781 C 267.398438 239.25 252.148438 254.5 233.449219 254.5 C 214.75 254.5 199.550781 239.25 199.550781 220.550781 Z M 95.5 180 L 149.550781 180 L 149.550781 220.550781 C 149.550781 266.851562 187.199219 304.5 233.449219 304.5 C 279.75 304.5 317.398438 266.851562 317.398438 220.550781 L 317.398438 180 L 881.699219 180 L 881.699219 220.550781 C 881.699219 266.851562 919.351562 304.5 965.648438 304.5 C 1011.949219 304.5 1049.601562 266.851562 1049.601562 220.550781 L 1049.601562 180 L 1103.550781 180 C 1128.648438 180 1149.050781 200.398438 1149.050781 225.5 L 1149.050781 388.398438 L 50 388.398438 L 50 225.5 C 50 200.398438 70.398438 180 95.5 180 Z M 95.5 1311 C 70.398438 1311 50 1290.601562 50 1265.5 L 50 438.398438 L 1149 438.398438 L 1149 853.199219 C 1148.101562 853.300781 1147.199219 853.550781 1146.300781 853.648438 C 1131.050781 855.101562 1116 857.699219 1101.148438 861.300781 C 1098.101562 862.050781 1095.148438 862.898438 1092.148438 863.699219 C 1088.949219 864.601562 1085.699219 865.300781 1082.5 866.300781 L 1082.5 788.5 C 1082.5 774.699219 1071.300781 763.5 1057.5 763.5 L 897 763.5 C 883.199219 763.5 872 774.699219 872 788.5 L 872 949 C 872 962.800781 883.199219 974 897 974 L 924.25 974 C 878.949219 1030.75 853.5 1101.25 853.5 1175 C 853.5 1189 854.699219 1202.851562 856.5 1216.601562 C 857.050781 1220.75 857.851562 1224.800781 858.550781 1228.949219 C 860.25 1238.851562 862.351562 1248.648438 865 1258.351562 C 866.148438 1262.550781 867.199219 1266.699219 868.5 1270.851562 C 872.050781 1282.25 876.25 1293.449219 881.050781 1304.398438 C 881.851562 1306.148438 882.398438 1308 883.199219 1309.75 C 883.398438 1310.148438 883.5 1310.550781 883.699219 1310.949219 L 95.5 1310.949219 Z M 1177 1448 C 1083.5 1448 997.5 1401.101562 947 1322.449219 C 918.550781 1278.351562 903.5 1227.351562 903.5 1175 C 903.5 1095.398438 938.25 1019.949219 998.601562 968.101562 C 1020 950.050781 1043.199219 935.5 1067.449219 924.898438 C 1067.449219 924.898438 1067.449219 924.898438 1067.5 924.851562 C 1101.300781 910.101562 1137.25 902.398438 1177 901.949219 C 1327.550781 901.949219 1450 1024.398438 1450 1174.949219 C 1450 1325.5 1327.550781 1448 1177 1448 Z M 1177 1448 " fill-opacity="1" fill-rule="nonzero"/><path fill="#c62828" d="M 302.199219 1031.25 L 141.550781 1031.25 C 127.75 1031.25 116.550781 1042.449219 116.550781 1056.25 L 116.550781 1216.949219 C 116.550781 1230.75 127.75 1241.949219 141.550781 1241.949219 L 302.25 1241.949219 C 316.050781 1241.949219 327.25 1230.75 327.25 1216.949219 L 327.25 1056.25 C 327.199219 1042.449219 316.050781 1031.25 302.199219 1031.25 Z M 277.199219 1191.949219 L 166.550781 1191.949219 L 166.550781 1081.25 L 277.25 1081.25 L 277.25 1191.949219 Z M 277.199219 1191.949219 " fill-opacity="1" fill-rule="nonzero"/><path fill="#c62828" d="M 554.050781 1031.25 L 393.300781 1031.25 C 379.5 1031.25 368.300781 1042.449219 368.300781 1056.25 L 368.300781 1216.949219 C 368.300781 1230.75 379.5 1241.949219 393.300781 1241.949219 L 554 1241.949219 C 567.800781 1241.949219 579 1230.75 579 1216.949219 L 579 1056.25 C 579.050781 1042.449219 567.851562 1031.25 554.050781 1031.25 Z M 529.050781 1191.949219 L 418.300781 1191.949219 L 418.300781 1081.25 L 529 1081.25 L 529 1191.949219 Z M 529.050781 1191.949219 " fill-opacity="1" fill-rule="nonzero"/><path fill="#c62828" d="M 805.800781 1031.25 L 645.101562 1031.25 C 631.300781 1031.25 620.101562 1042.449219 620.101562 1056.25 L 620.101562 1216.949219 C 620.101562 1230.75 631.300781 1241.949219 645.101562 1241.949219 L 805.800781 1241.949219 C 819.601562 1241.949219 830.800781 1230.75 830.800781 1216.949219 L 830.800781 1056.25 C 830.800781 1042.449219 819.648438 1031.25 805.800781 1031.25 Z M 780.800781 1191.949219 L 670.101562 1191.949219 L 670.101562 1081.25 L 780.800781 1081.25 Z M 780.800781 1191.949219 " fill-opacity="1" fill-rule="nonzero"/><path fill="#c62828" d="M 1174 1002.199219 C 1187.800781 1002.199219 1199 991 1199 977.199219 L 1199 949 C 1199 935.199219 1187.800781 924 1174 924 C 1160.199219 924 1149 935.199219 1149 949 L 1149 977.199219 C 1149 991.050781 1160.199219 1002.199219 1174 1002.199219 Z M 1174 1002.199219 " fill-opacity="1" fill-rule="nonzero"/><path fill="#c62828" d="M 1174 1353.898438 C 1160.199219 1353.898438 1149 1365.101562 1149 1378.898438 L 1149 1407.148438 C 1149 1420.949219 1160.199219 1432.148438 1174 1432.148438 C 1187.800781 1432.148438 1199 1420.949219 1199 1407.148438 L 1199 1378.898438 C 1199 1365.101562 1187.800781 1353.898438 1174 1353.898438 Z M 1174 1353.898438 " fill-opacity="1" fill-rule="nonzero"/><path fill="#c62828" d="M 1403.101562 1153.101562 L 1374.851562 1153.101562 C 1361.050781 1153.101562 1349.851562 1164.300781 1349.851562 1178.101562 C 1349.851562 1191.898438 1361.050781 1203.101562 1374.851562 1203.101562 L 1403.101562 1203.101562 C 1416.898438 1203.101562 1428.101562 1191.898438 1428.101562 1178.101562 C 1428.101562 1164.300781 1416.898438 1153.101562 1403.101562 1153.101562 Z M 1403.101562 1153.101562 " fill-opacity="1" fill-rule="nonzero"/><path fill="#c62828" d="M 973.148438 1153.101562 L 944.898438 1153.101562 C 931.101562 1153.101562 919.898438 1164.300781 919.898438 1178.101562 C 919.898438 1191.898438 931.101562 1203.101562 944.898438 1203.101562 L 973.148438 1203.101562 C 986.949219 1203.101562 998.148438 1191.898438 998.148438 1178.101562 C 998.148438 1164.300781 987 1153.101562 973.148438 1153.101562 Z M 973.148438 1153.101562 " fill-opacity="1" fill-rule="nonzero"/><path fill="#c62828" d="M 1199 1164.550781 L 1199 1062.949219 C 1199 1049.148438 1187.800781 1037.949219 1174 1037.949219 C 1160.199219 1037.949219 1149 1049.148438 1149 1062.949219 L 1149 1175 C 1149 1181.699219 1151.699219 1188.101562 1156.449219 1192.800781 L 1226.199219 1261.550781 C 1231.101562 1266.351562 1237.398438 1268.75 1243.75 1268.75 C 1250.199219 1268.75 1256.648438 1266.25 1261.550781 1261.300781 C 1271.25 1251.449219 1271.148438 1235.648438 1261.300781 1225.949219 Z M 1199 1164.550781 " fill-opacity="1" fill-rule="nonzero"/></svg>