<svg xmlns="http://www.w3.org/2000/svg" xmlns:xlink="http://www.w3.org/1999/xlink" width="2000" zoomAndPan="magnify" viewBox="0 0 1500 1499.999933" height="2000" preserveAspectRatio="xMidYMid meet" version="1.0"><path fill="#c62828" d="M 1461.15625 657.222656 L 1104.382812 657.222656 C 1094.523438 657.222656 1086.453125 665.289062 1086.453125 675.148438 C 1086.453125 685.011719 1094.523438 693.078125 1104.382812 693.078125 L 1461.15625 693.078125 C 1462.648438 693.078125 1464.144531 694.570312 1464.144531 696.066406 L 1464.144531 890.289062 L 1145.617188 890.289062 C 1135.757812 890.289062 1127.6875 898.355469 1127.6875 908.21875 L 1127.6875 1065.386719 L 760.457031 1065.386719 L 760.457031 693.078125 L 828.285156 693.078125 C 838.148438 693.078125 846.214844 685.011719 846.214844 675.148438 C 846.214844 665.289062 838.148438 657.222656 828.285156 657.222656 L 38.84375 657.222656 C 17.332031 657.222656 0 674.550781 0 696.066406 L 0 1461.003906 C 0 1482.519531 17.332031 1499.851562 38.84375 1499.851562 L 1461.15625 1499.851562 C 1482.667969 1499.851562 1500 1482.519531 1500 1461.003906 L 1500 696.066406 C 1500 674.550781 1482.667969 657.222656 1461.15625 657.222656 Z M 1145.617188 1101.246094 C 1155.476562 1101.246094 1163.546875 1093.175781 1163.546875 1083.316406 L 1163.546875 926.144531 L 1464.144531 926.144531 L 1464.144531 1181.027344 L 760.457031 1181.027344 L 760.457031 1100.945312 L 1145.617188 1100.945312 Z M 742.53125 1217.179688 L 1464.144531 1217.179688 L 1464.144531 1277.242188 L 265.339844 1277.242188 C 255.476562 1277.242188 247.410156 1285.308594 247.410156 1295.167969 L 247.410156 1464.292969 L 187.050781 1464.292969 L 187.050781 1295.167969 C 187.050781 1285.308594 178.984375 1277.242188 169.125 1277.242188 L 35.855469 1277.242188 L 35.855469 1217.179688 L 169.125 1217.179688 C 178.984375 1217.179688 187.050781 1209.113281 187.050781 1199.253906 L 187.050781 693.078125 L 247.113281 693.078125 L 247.113281 1199.253906 C 247.113281 1209.113281 255.179688 1217.179688 265.039062 1217.179688 L 646.316406 1217.179688 C 656.175781 1217.179688 664.242188 1209.113281 664.242188 1199.253906 L 664.242188 693.078125 L 724.300781 693.078125 L 724.300781 1199.253906 C 724.601562 1209.113281 732.667969 1217.179688 742.53125 1217.179688 Z M 283.265625 693.078125 L 628.683594 693.078125 L 628.683594 1181.324219 L 283.265625 1181.324219 Z M 38.84375 693.078125 L 151.195312 693.078125 L 151.195312 1181.324219 L 35.855469 1181.324219 L 35.855469 696.066406 C 35.855469 694.570312 37.351562 693.078125 38.84375 693.078125 Z M 35.855469 1461.304688 L 35.855469 1313.097656 L 151.195312 1313.097656 L 151.195312 1464.292969 L 38.84375 1464.292969 C 37.351562 1464.292969 35.855469 1462.796875 35.855469 1461.304688 Z M 1461.15625 1464.292969 L 283.265625 1464.292969 L 283.265625 1313.097656 L 1464.144531 1313.097656 L 1464.144531 1461.304688 C 1464.144531 1462.796875 1462.648438 1464.292969 1461.15625 1464.292969 Z M 1243.027344 276.84375 C 1243.027344 124.453125 1118.726562 0.148438 966.035156 0.148438 C 813.347656 0.148438 689.042969 124.152344 689.042969 276.84375 C 689.042969 358.417969 725.796875 420.867188 761.355469 481.226562 C 795.417969 539.191406 839.042969 605.527344 877.589844 664.09375 C 905.378906 706.523438 931.671875 746.265625 950.496094 777.042969 C 953.785156 782.421875 959.460938 785.707031 965.738281 785.707031 C 972.011719 785.707031 977.6875 782.421875 980.976562 777.042969 C 999.800781 746.265625 1026.09375 706.226562 1053.882812 664.09375 C 1092.429688 605.527344 1136.054688 539.191406 1170.121094 481.226562 C 1206.273438 420.867188 1243.027344 358.417969 1243.027344 276.84375 Z M 1024.601562 644.074219 C 1003.386719 676.046875 983.367188 706.824219 966.335938 733.417969 C 949.601562 706.824219 929.28125 676.046875 908.066406 644.074219 C 869.820312 585.808594 826.492188 520.070312 792.730469 462.699219 C 758.066406 403.835938 725.199219 348.257812 725.199219 276.542969 C 725.199219 143.875 833.367188 35.707031 966.335938 35.707031 C 1099.300781 35.707031 1207.171875 143.875 1207.171875 276.84375 C 1207.171875 348.554688 1174.300781 404.132812 1139.640625 462.996094 C 1106.175781 520.070312 1062.847656 586.105469 1024.601562 644.074219 Z M 966.335938 135.808594 C 888.945312 135.808594 825.894531 198.855469 825.894531 276.246094 C 825.894531 353.636719 888.945312 416.683594 966.335938 416.683594 C 1043.726562 416.683594 1106.773438 353.636719 1106.773438 276.246094 C 1106.773438 198.855469 1043.726562 135.808594 966.335938 135.808594 Z M 966.335938 380.828125 C 908.664062 380.828125 861.753906 333.914062 861.753906 276.246094 C 861.753906 218.574219 908.664062 171.664062 966.335938 171.664062 C 1024.003906 171.664062 1070.917969 218.574219 1070.917969 276.246094 C 1070.917969 333.914062 1024.003906 380.828125 966.335938 380.828125 Z M 882.371094 771.363281 C 853.984375 777.640625 841.433594 785.410156 837.550781 788.992188 C 845.917969 797.660156 888.945312 814.691406 966.035156 814.691406 C 1043.128906 814.691406 1086.15625 797.660156 1094.523438 788.992188 C 1090.636719 785.410156 1078.386719 777.640625 1049.699219 771.363281 C 1040.140625 769.273438 1033.863281 759.710938 1035.957031 750.148438 C 1038.046875 740.585938 1047.609375 734.3125 1057.171875 736.402344 C 1118.128906 749.851562 1130.976562 772.558594 1130.976562 788.992188 C 1130.976562 837.699219 1026.992188 850.847656 965.4375 850.847656 C 903.882812 850.847656 800.796875 837.699219 800.796875 788.992188 C 800.796875 772.261719 813.644531 749.851562 874.601562 736.402344 C 884.164062 734.3125 893.726562 740.289062 895.816406 750.148438 C 897.910156 760.011719 892.230469 768.972656 882.371094 771.363281 Z M 882.371094 771.363281 " fill-opacity="1" fill-rule="nonzero"/></svg>