<svg xmlns="http://www.w3.org/2000/svg" xmlns:xlink="http://www.w3.org/1999/xlink" width="2000" zoomAndPan="magnify" viewBox="0 0 1500 1499.999933" height="2000" preserveAspectRatio="xMidYMid meet" version="1.0"><defs><clipPath id="0457fa8c02"><path d="M 0 225 L 1500 225 L 1500 1276.875 L 0 1276.875 Z M 0 225 " clip-rule="nonzero"/></clipPath></defs><g clip-path="url(#0457fa8c02)"><path fill="#163c78" d="M 1470.519531 517.027344 L 767.886719 228.535156 C 765.019531 227.398438 762.066406 226.539062 759.035156 225.960938 C 756.003906 225.382812 752.945312 225.09375 749.855469 225.09375 C 746.769531 225.09375 743.710938 225.382812 740.679688 225.960938 C 737.644531 226.539062 734.695312 227.398438 731.824219 228.535156 L 29.191406 517.027344 C 27.039062 517.898438 24.960938 518.921875 22.960938 520.101562 C 20.960938 521.28125 19.058594 522.601562 17.257812 524.066406 C 15.453125 525.527344 13.769531 527.117188 12.203125 528.832031 C 10.636719 530.546875 9.207031 532.367188 7.914062 534.296875 C 6.621094 536.222656 5.476562 538.238281 4.480469 540.335938 C 3.488281 542.433594 2.65625 544.597656 1.988281 546.820312 C 1.316406 549.042969 0.8125 551.304688 0.480469 553.601562 C 0.148438 555.898438 -0.0117188 558.210938 0 560.53125 L 0 1258.871094 C 0 1259.433594 0.0273438 1259.996094 0.0820312 1260.554688 C 0.136719 1261.113281 0.21875 1261.671875 0.328125 1262.222656 C 0.441406 1262.773438 0.578125 1263.320312 0.738281 1263.855469 C 0.902344 1264.394531 1.09375 1264.925781 1.308594 1265.445312 C 1.523438 1265.964844 1.761719 1266.472656 2.027344 1266.96875 C 2.292969 1267.464844 2.582031 1267.945312 2.894531 1268.414062 C 3.207031 1268.878906 3.542969 1269.332031 3.898438 1269.765625 C 4.253906 1270.199219 4.632812 1270.617188 5.03125 1271.015625 C 5.425781 1271.414062 5.84375 1271.789062 6.277344 1272.148438 C 6.714844 1272.503906 7.164062 1272.835938 7.632812 1273.148438 C 8.097656 1273.460938 8.582031 1273.75 9.078125 1274.015625 C 9.574219 1274.28125 10.082031 1274.523438 10.601562 1274.738281 C 11.121094 1274.953125 11.648438 1275.140625 12.1875 1275.304688 C 12.726562 1275.46875 13.269531 1275.605469 13.820312 1275.714844 C 14.375 1275.824219 14.929688 1275.90625 15.488281 1275.960938 C 16.050781 1276.015625 16.609375 1276.042969 17.171875 1276.042969 L 1482.542969 1276.042969 C 1483.105469 1276.042969 1483.664062 1276.015625 1484.226562 1275.960938 C 1484.785156 1275.90625 1485.339844 1275.824219 1485.890625 1275.714844 C 1486.441406 1275.605469 1486.988281 1275.46875 1487.527344 1275.304688 C 1488.0625 1275.140625 1488.59375 1274.953125 1489.113281 1274.738281 C 1489.632812 1274.523438 1490.140625 1274.28125 1490.636719 1274.015625 C 1491.132812 1273.75 1491.613281 1273.460938 1492.082031 1273.148438 C 1492.550781 1272.839844 1493 1272.503906 1493.433594 1272.148438 C 1493.871094 1271.789062 1494.285156 1271.414062 1494.683594 1271.015625 C 1495.082031 1270.617188 1495.457031 1270.199219 1495.816406 1269.765625 C 1496.171875 1269.332031 1496.507812 1268.878906 1496.820312 1268.414062 C 1497.132812 1267.945312 1497.421875 1267.464844 1497.6875 1266.96875 C 1497.949219 1266.472656 1498.191406 1265.964844 1498.40625 1265.445312 C 1498.621094 1264.925781 1498.8125 1264.394531 1498.972656 1263.855469 C 1499.136719 1263.320312 1499.273438 1262.773438 1499.382812 1262.222656 C 1499.492188 1261.671875 1499.574219 1261.113281 1499.632812 1260.554688 C 1499.6875 1259.996094 1499.714844 1259.433594 1499.714844 1258.871094 L 1499.714844 560.53125 C 1499.726562 558.210938 1499.566406 555.898438 1499.230469 553.601562 C 1498.898438 551.304688 1498.398438 549.042969 1497.726562 546.820312 C 1497.054688 544.597656 1496.226562 542.4375 1495.230469 540.335938 C 1494.238281 538.238281 1493.09375 536.222656 1491.800781 534.296875 C 1490.507812 532.367188 1489.078125 530.546875 1487.511719 528.832031 C 1485.945312 527.117188 1484.261719 525.527344 1482.457031 524.066406 C 1480.652344 522.601562 1478.75 521.28125 1476.75 520.101562 C 1474.75 518.921875 1472.675781 517.898438 1470.519531 517.027344 Z M 222.667969 1241.699219 L 94.449219 1241.699219 L 94.449219 1158.988281 L 222.667969 1158.988281 Z M 222.667969 1124.640625 L 94.449219 1124.640625 L 94.449219 1038.207031 L 222.667969 1038.207031 Z M 222.667969 1003.863281 L 94.449219 1003.863281 L 94.449219 917.144531 L 222.667969 917.144531 Z M 222.667969 882.800781 L 94.449219 882.800781 L 94.449219 796.652344 L 222.667969 796.652344 Z M 381.511719 1241.699219 L 257.011719 1241.699219 L 257.011719 1158.988281 L 381.511719 1158.988281 Z M 381.511719 1124.640625 L 257.011719 1124.640625 L 257.011719 1038.207031 L 381.511719 1038.207031 Z M 381.511719 1003.863281 L 257.011719 1003.863281 L 257.011719 917.144531 L 381.511719 917.144531 Z M 381.511719 882.800781 L 257.011719 882.800781 L 257.011719 796.652344 L 381.511719 796.652344 Z M 544.363281 1241.699219 L 415.855469 1241.699219 L 415.855469 1158.988281 L 544.363281 1158.988281 Z M 544.363281 1124.640625 L 415.855469 1124.640625 L 415.855469 1038.207031 L 544.363281 1038.207031 Z M 544.363281 1003.863281 L 415.855469 1003.863281 L 415.855469 917.144531 L 544.363281 917.144531 Z M 544.363281 882.800781 L 415.855469 882.800781 L 415.855469 796.652344 L 544.363281 796.652344 Z M 702.917969 1241.699219 L 578.707031 1241.699219 L 578.707031 1158.988281 L 702.917969 1158.988281 Z M 702.917969 1124.640625 L 578.707031 1124.640625 L 578.707031 1038.207031 L 702.917969 1038.207031 Z M 702.917969 1003.863281 L 578.707031 1003.863281 L 578.707031 917.144531 L 702.917969 917.144531 Z M 702.917969 882.800781 L 578.707031 882.800781 L 578.707031 796.652344 L 702.917969 796.652344 Z M 970.519531 1241.699219 L 865.199219 1241.699219 L 865.199219 1171.867188 L 970.519531 1171.867188 Z M 1193.472656 1241.699219 L 1087.863281 1241.699219 L 1087.863281 1171.867188 L 1193.472656 1171.867188 Z M 1193.472656 1137.519531 L 1070.691406 1137.519531 C 1070.128906 1137.519531 1069.570312 1137.550781 1069.007812 1137.605469 C 1068.449219 1137.660156 1067.894531 1137.742188 1067.34375 1137.851562 C 1066.789062 1137.960938 1066.246094 1138.097656 1065.707031 1138.261719 C 1065.167969 1138.425781 1064.640625 1138.613281 1064.121094 1138.828125 C 1063.601562 1139.042969 1063.09375 1139.285156 1062.597656 1139.550781 C 1062.101562 1139.8125 1061.621094 1140.101562 1061.152344 1140.414062 C 1060.683594 1140.726562 1060.234375 1141.0625 1059.796875 1141.417969 C 1059.363281 1141.777344 1058.949219 1142.152344 1058.550781 1142.550781 C 1058.152344 1142.949219 1057.773438 1143.363281 1057.417969 1143.800781 C 1057.0625 1144.234375 1056.726562 1144.6875 1056.414062 1145.152344 C 1056.101562 1145.621094 1055.8125 1146.101562 1055.546875 1146.597656 C 1055.28125 1147.09375 1055.042969 1147.601562 1054.828125 1148.121094 C 1054.613281 1148.640625 1054.421875 1149.171875 1054.261719 1149.707031 C 1054.097656 1150.246094 1053.960938 1150.792969 1053.851562 1151.34375 C 1053.742188 1151.894531 1053.65625 1152.449219 1053.601562 1153.011719 C 1053.546875 1153.570312 1053.519531 1154.132812 1053.519531 1154.695312 L 1053.519531 1241.699219 L 1004.867188 1241.699219 L 1004.867188 1154.695312 C 1004.867188 1154.132812 1004.839844 1153.570312 1004.78125 1153.011719 C 1004.726562 1152.449219 1004.644531 1151.894531 1004.535156 1151.34375 C 1004.425781 1150.792969 1004.289062 1150.246094 1004.125 1149.707031 C 1003.960938 1149.171875 1003.773438 1148.640625 1003.558594 1148.121094 C 1003.34375 1147.601562 1003.101562 1147.09375 1002.835938 1146.597656 C 1002.574219 1146.101562 1002.285156 1145.621094 1001.972656 1145.152344 C 1001.660156 1144.683594 1001.324219 1144.234375 1000.96875 1143.800781 C 1000.609375 1143.363281 1000.234375 1142.949219 999.835938 1142.550781 C 999.4375 1142.152344 999.023438 1141.777344 998.585938 1141.417969 C 998.152344 1141.0625 997.699219 1140.726562 997.234375 1140.414062 C 996.765625 1140.101562 996.285156 1139.8125 995.789062 1139.550781 C 995.292969 1139.285156 994.785156 1139.042969 994.265625 1138.828125 C 993.746094 1138.613281 993.214844 1138.425781 992.679688 1138.261719 C 992.140625 1138.097656 991.59375 1137.960938 991.042969 1137.851562 C 990.492188 1137.742188 989.9375 1137.660156 989.375 1137.605469 C 988.816406 1137.546875 988.253906 1137.519531 987.691406 1137.519531 L 865.199219 1137.519531 L 865.199219 1036.203125 L 1193.472656 1036.203125 Z M 914.425781 835.289062 L 1144.246094 835.289062 L 1029.191406 899.113281 Z M 1144.246094 1001.859375 L 914.425781 1001.859375 L 1029.191406 938.324219 Z M 993.988281 918.574219 L 865.199219 989.839844 L 865.199219 847.308594 Z M 1193.472656 989.839844 L 1064.683594 918.574219 L 1193.472656 847.308594 Z M 1333.429688 1241.699219 L 1227.820312 1241.699219 L 1227.820312 1171.867188 L 1333.429688 1171.867188 Z M 1333.429688 1137.519531 L 1227.820312 1137.519531 L 1227.820312 1067.972656 L 1333.429688 1067.972656 Z M 1405.265625 1241.699219 L 1367.773438 1241.699219 L 1367.773438 1050.800781 C 1367.773438 1050.238281 1367.746094 1049.679688 1367.691406 1049.117188 C 1367.636719 1048.558594 1367.554688 1048.003906 1367.441406 1047.449219 C 1367.332031 1046.898438 1367.195312 1046.355469 1367.035156 1045.816406 C 1366.871094 1045.277344 1366.679688 1044.75 1366.464844 1044.230469 C 1366.25 1043.710938 1366.011719 1043.203125 1365.746094 1042.707031 C 1365.480469 1042.210938 1365.191406 1041.726562 1364.878906 1041.261719 C 1364.566406 1040.792969 1364.230469 1040.34375 1363.875 1039.90625 C 1363.519531 1039.472656 1363.140625 1039.054688 1362.742188 1038.660156 C 1362.347656 1038.261719 1361.929688 1037.882812 1361.496094 1037.527344 C 1361.058594 1037.167969 1360.609375 1036.835938 1360.140625 1036.523438 C 1359.671875 1036.210938 1359.191406 1035.921875 1358.695312 1035.65625 C 1358.199219 1035.390625 1357.691406 1035.152344 1357.171875 1034.9375 C 1356.652344 1034.722656 1356.125 1034.53125 1355.585938 1034.367188 C 1355.046875 1034.203125 1354.503906 1034.070312 1353.949219 1033.957031 C 1353.398438 1033.847656 1352.84375 1033.765625 1352.285156 1033.710938 C 1351.722656 1033.65625 1351.164062 1033.628906 1350.601562 1033.628906 L 1227.820312 1033.628906 L 1227.820312 818.117188 C 1227.820312 817.554688 1227.792969 816.992188 1227.738281 816.433594 C 1227.679688 815.875 1227.597656 815.316406 1227.488281 814.765625 C 1227.378906 814.214844 1227.242188 813.671875 1227.078125 813.132812 C 1226.917969 812.59375 1226.726562 812.066406 1226.511719 811.546875 C 1226.296875 811.027344 1226.054688 810.519531 1225.792969 810.023438 C 1225.527344 809.527344 1225.238281 809.042969 1224.925781 808.574219 C 1224.613281 808.109375 1224.277344 807.65625 1223.921875 807.222656 C 1223.5625 806.789062 1223.1875 806.371094 1222.789062 805.972656 C 1222.390625 805.578125 1221.976562 805.199219 1221.539062 804.84375 C 1221.105469 804.484375 1220.65625 804.152344 1220.1875 803.839844 C 1219.71875 803.527344 1219.238281 803.238281 1218.742188 802.972656 C 1218.246094 802.707031 1217.738281 802.464844 1217.21875 802.25 C 1216.699219 802.035156 1216.167969 801.847656 1215.632812 801.683594 C 1215.09375 801.519531 1214.546875 801.382812 1213.996094 801.273438 C 1213.445312 801.164062 1212.890625 801.082031 1212.328125 801.027344 C 1211.769531 800.972656 1211.210938 800.945312 1210.648438 800.945312 L 848.023438 800.945312 C 847.460938 800.945312 846.902344 800.972656 846.34375 801.027344 C 845.78125 801.082031 845.226562 801.164062 844.675781 801.273438 C 844.125 801.382812 843.578125 801.519531 843.039062 801.683594 C 842.503906 801.847656 841.972656 802.035156 841.453125 802.25 C 840.933594 802.46875 840.425781 802.707031 839.929688 802.972656 C 839.433594 803.238281 838.953125 803.527344 838.484375 803.839844 C 838.015625 804.152344 837.566406 804.484375 837.132812 804.84375 C 836.695312 805.199219 836.28125 805.578125 835.882812 805.972656 C 835.484375 806.371094 835.109375 806.789062 834.75 807.222656 C 834.394531 807.65625 834.058594 808.109375 833.746094 808.578125 C 833.433594 809.042969 833.144531 809.527344 832.878906 810.023438 C 832.617188 810.519531 832.375 811.027344 832.160156 811.546875 C 831.945312 812.066406 831.753906 812.59375 831.59375 813.132812 C 831.429688 813.671875 831.292969 814.214844 831.183594 814.765625 C 831.074219 815.316406 830.992188 815.875 830.9375 816.433594 C 830.878906 816.992188 830.851562 817.554688 830.851562 818.117188 L 830.851562 1241.699219 L 737.265625 1241.699219 L 737.265625 779.480469 C 737.265625 778.917969 737.234375 778.355469 737.179688 777.796875 C 737.125 777.234375 737.042969 776.679688 736.933594 776.128906 C 736.824219 775.578125 736.6875 775.03125 736.523438 774.492188 C 736.359375 773.957031 736.171875 773.425781 735.957031 772.90625 C 735.742188 772.386719 735.5 771.878906 735.234375 771.382812 C 734.972656 770.886719 734.683594 770.40625 734.371094 769.9375 C 734.058594 769.472656 733.722656 769.019531 733.367188 768.585938 C 733.007812 768.148438 732.632812 767.734375 732.234375 767.335938 C 731.835938 766.9375 731.421875 766.5625 730.984375 766.203125 C 730.550781 765.847656 730.101562 765.511719 729.632812 765.199219 C 729.164062 764.886719 728.683594 764.597656 728.1875 764.335938 C 727.691406 764.070312 727.183594 763.828125 726.664062 763.613281 C 726.144531 763.398438 725.613281 763.210938 725.078125 763.046875 C 724.539062 762.882812 723.992188 762.746094 723.441406 762.636719 C 722.890625 762.527344 722.335938 762.445312 721.773438 762.390625 C 721.214844 762.335938 720.652344 762.308594 720.089844 762.308594 L 94.449219 762.308594 L 94.449219 599.742188 L 1405.265625 599.742188 Z M 478.25 565.398438 L 159.988281 565.398438 L 353.464844 486.117188 Z M 392.386719 470.089844 L 518.890625 418.289062 L 518.890625 550.515625 Z M 705.496094 565.398438 L 553.234375 565.398438 L 553.234375 430.59375 Z M 568.117188 397.96875 L 732.683594 330.421875 L 732.683594 543.644531 Z M 767.027344 543.644531 L 767.027344 330.421875 L 931.597656 397.96875 Z M 946.480469 430.59375 L 946.480469 565.398438 L 794.21875 565.398438 Z M 980.824219 550.515625 L 980.824219 418.003906 L 1107.328125 470.089844 Z M 1146.25 486.117188 L 1339.726562 565.398438 L 1021.464844 565.398438 Z M 1465.367188 1241.699219 L 1439.609375 1241.699219 L 1439.609375 580.851562 C 1439.617188 580 1439.5625 579.15625 1439.445312 578.3125 C 1439.328125 577.46875 1439.148438 576.640625 1438.910156 575.824219 C 1438.667969 575.007812 1438.367188 574.214844 1438.007812 573.441406 C 1437.648438 572.671875 1437.234375 571.929688 1436.765625 571.21875 C 1436.296875 570.511719 1435.777344 569.839844 1435.210938 569.207031 C 1434.640625 568.574219 1434.027344 567.984375 1433.371094 567.445312 C 1432.714844 566.902344 1432.023438 566.410156 1431.292969 565.972656 C 1430.566406 565.535156 1429.808594 565.152344 1429.019531 564.824219 L 756.441406 288.921875 C 754.328125 288.066406 752.136719 287.636719 749.855469 287.636719 C 747.578125 287.636719 745.382812 288.066406 743.273438 288.921875 L 70.691406 564.824219 C 69.90625 565.152344 69.148438 565.535156 68.417969 565.972656 C 67.691406 566.410156 67 566.902344 66.34375 567.445312 C 65.6875 567.984375 65.074219 568.574219 64.503906 569.207031 C 63.933594 569.839844 63.417969 570.511719 62.945312 571.21875 C 62.476562 571.929688 62.0625 572.671875 61.703125 573.441406 C 61.347656 574.214844 61.046875 575.007812 60.804688 575.824219 C 60.5625 576.640625 60.382812 577.46875 60.265625 578.3125 C 60.148438 579.15625 60.09375 580 60.101562 580.851562 L 60.101562 1241.699219 L 34.34375 1241.699219 L 34.34375 560.53125 C 34.34375 559.265625 34.53125 558.023438 34.90625 556.8125 C 35.277344 555.601562 35.824219 554.472656 36.539062 553.425781 C 37.253906 552.378906 38.105469 551.460938 39.097656 550.671875 C 40.089844 549.882812 41.175781 549.257812 42.359375 548.796875 L 744.992188 260.304688 C 746.5625 259.734375 748.183594 259.449219 749.855469 259.449219 C 751.527344 259.449219 753.148438 259.734375 754.722656 260.304688 L 1457.355469 548.796875 C 1458.535156 549.257812 1459.621094 549.882812 1460.613281 550.671875 C 1461.605469 551.460938 1462.460938 552.378906 1463.175781 553.425781 C 1463.890625 554.472656 1464.433594 555.601562 1464.808594 556.8125 C 1465.183594 558.023438 1465.371094 559.265625 1465.367188 560.53125 Z M 1465.367188 1241.699219 " fill-opacity="1" fill-rule="nonzero"/></g></svg>